<svg width="938" height="373" viewBox="0 0 938 373" fill="none" xmlns="http://www.w3.org/2000/svg">
<g opacity="0.2">
<path d="M54.2221 52.1096C53.0041 52.1096 51.998 52.5333 51.0447 53.2747C35.0518 65.4547 19.0589 77.5817 3.06604 89.7618C0.259343 91.933 0.3123 95.9047 3.22491 98.1289C5.66092 99.9824 8.14988 101.783 10.5329 103.742C11.4332 104.484 11.9628 104.484 12.916 103.742C24.3546 95.0045 35.7932 86.2666 47.2319 77.5817C48.4499 76.6815 49.6149 75.7283 50.8329 74.828C53.3219 72.9745 55.4401 72.9745 57.9291 74.828C70.4268 84.3602 82.9246 93.8394 95.4224 103.425C96.5874 104.325 97.3818 104.537 98.5998 103.478C100.665 101.677 102.942 100.088 105.113 98.3407C108.556 95.6399 108.556 91.9859 105.06 89.3381C93.463 80.4944 81.9184 71.7036 70.3209 62.9128C66.1374 59.7354 61.9538 56.6109 57.8232 53.3806C56.6581 52.5862 55.546 52.1096 54.2221 52.1096Z" fill="#7AC8E7"/>
<path d="M54.2221 187.837C53.0041 187.837 51.998 188.261 51.0447 189.002C35.0518 201.182 19.0589 213.309 3.06604 225.489C0.259343 227.66 0.3123 231.632 3.22491 233.856C5.66092 235.71 8.14988 237.51 10.5329 239.47C11.4332 240.211 11.9628 240.211 12.916 239.47C24.3546 230.732 35.7932 221.994 47.2319 213.309C48.4499 212.409 49.6149 211.456 50.8329 210.555C53.3219 208.702 55.4401 208.702 57.9291 210.555C70.4269 220.088 82.9246 229.567 95.4224 239.152C96.5874 240.052 97.3818 240.264 98.5998 239.205C100.665 237.404 102.942 235.816 105.113 234.068C108.556 231.367 108.556 227.713 105.06 225.066C93.463 216.222 81.9184 207.431 70.3209 198.64C66.1374 195.463 61.9538 192.338 57.8232 189.108C56.6581 188.314 55.546 187.837 54.2221 187.837Z" stroke="#01396D" stroke-miterlimit="10"/>
<path d="M54.2221 320.811C53.0041 320.811 51.998 321.235 51.0447 321.976C35.0518 334.156 19.0589 346.283 3.06604 358.463C0.259343 360.635 0.3123 364.606 3.22491 366.831C5.66092 368.684 8.14988 370.485 10.5329 372.444C11.4332 373.185 11.9628 373.185 12.916 372.444C24.3546 363.706 35.7932 354.968 47.2319 346.283C48.4499 345.383 49.6149 344.43 50.8329 343.53C53.3219 341.676 55.4401 341.676 57.9291 343.53C70.4268 353.062 82.9246 362.541 95.4224 372.126C96.5874 373.026 97.3818 373.238 98.5998 372.179C100.665 370.379 102.942 368.79 105.113 367.042C108.556 364.342 108.556 360.688 105.06 358.04C93.463 349.196 81.9184 340.405 70.3209 331.614C66.1374 328.437 61.9538 325.313 57.8232 322.082C56.6581 321.288 55.546 320.811 54.2221 320.811Z" fill="#7AC8E7"/>
<path d="M187.038 113.486C185.82 113.486 184.813 113.91 183.86 114.651C167.867 126.831 151.874 138.958 135.881 151.138C133.075 153.309 133.128 157.281 136.04 159.505C138.476 161.359 140.965 163.159 143.348 165.119C144.249 165.86 144.778 165.86 145.731 165.119C157.17 156.381 168.609 147.643 180.047 138.958C181.265 138.058 182.43 137.105 183.648 136.204C186.137 134.351 188.256 134.351 190.745 136.204C203.242 145.737 215.74 155.216 228.238 164.801C229.403 165.701 230.197 165.913 231.415 164.854C233.48 163.053 235.758 161.465 237.929 159.717C241.371 157.016 241.371 153.362 237.876 150.715C226.278 141.871 214.734 133.08 203.136 124.289C198.953 121.112 194.769 117.987 190.639 114.757C189.474 113.91 188.361 113.486 187.038 113.486Z" stroke="#7AC8E7" stroke-miterlimit="10"/>
<path d="M187.038 249.214C185.82 249.214 184.813 249.638 183.86 250.379C167.867 262.559 151.874 274.686 135.881 286.866C133.075 289.037 133.128 293.009 136.04 295.233C138.476 297.087 140.965 298.887 143.348 300.847C144.249 301.588 144.778 301.588 145.731 300.847C157.17 292.109 168.609 283.371 180.047 274.686C181.265 273.786 182.43 272.832 183.648 271.932C186.137 270.079 188.256 270.079 190.745 271.932C203.242 281.464 215.74 290.944 228.238 300.529C229.403 301.429 230.197 301.641 231.415 300.582C233.48 298.781 235.758 297.193 237.929 295.445C241.371 292.744 241.371 289.09 237.876 286.442C226.278 277.599 214.734 268.808 203.136 260.017C198.953 256.84 194.769 253.715 190.639 250.485C189.474 249.69 188.361 249.214 187.038 249.214Z" fill="#01396D"/>
<path d="M187.038 0C185.82 0 184.813 0.423653 183.86 1.16505C167.867 13.3451 151.874 25.4721 135.881 37.6521C133.075 39.7704 133.128 43.7422 136.04 45.9663C138.476 47.8198 140.965 49.6203 143.348 51.5797C144.249 52.3211 144.778 52.3211 145.731 51.5797C157.17 42.8419 168.609 34.1041 180.047 25.4192C181.265 24.5189 182.43 23.5657 183.648 22.6654C186.137 20.8119 188.256 20.8119 190.745 22.6654C203.242 32.1976 215.74 41.6769 228.238 51.262C229.403 52.1623 230.197 52.3741 231.415 51.315C233.48 49.5144 235.758 47.9257 237.929 46.1782C241.371 43.4774 241.371 39.8234 237.876 37.1755C226.278 28.3318 214.734 19.541 203.136 10.7502C198.953 7.57279 194.769 4.44836 190.639 1.218C189.474 0.423653 188.361 0 187.038 0Z" fill="#01396D"/>
<path d="M319.852 52.1096C318.634 52.1096 317.628 52.5333 316.675 53.2747C300.682 65.4547 284.689 77.5817 268.696 89.7618C265.889 91.933 265.942 95.9047 268.855 98.1289C271.291 99.9824 273.78 101.783 276.163 103.742C277.063 104.484 277.593 104.484 278.546 103.742C289.984 95.0045 301.423 86.2666 312.862 77.5817C314.08 76.6815 315.245 75.7283 316.463 74.828C318.952 72.9745 321.07 72.9745 323.559 74.828C336.057 84.3602 348.554 93.8394 361.052 103.425C362.217 104.325 363.012 104.537 364.23 103.478C366.295 101.677 368.572 100.088 370.743 98.3407C374.185 95.6399 374.185 91.9859 370.69 89.3381C359.093 80.4944 347.548 71.7036 335.951 62.9128C331.767 59.7354 327.584 56.6109 323.453 53.3806C322.288 52.5862 321.176 52.1096 319.852 52.1096Z" fill="#7AC8E7"/>
<path d="M319.852 187.837C318.634 187.837 317.628 188.261 316.675 189.002C300.682 201.182 284.689 213.309 268.696 225.489C265.889 227.66 265.942 231.632 268.855 233.856C271.291 235.71 273.78 237.51 276.163 239.47C277.063 240.211 277.593 240.211 278.546 239.47C289.984 230.732 301.423 221.994 312.862 213.309C314.08 212.409 315.245 211.456 316.463 210.555C318.952 208.702 321.07 208.702 323.559 210.555C336.057 220.088 348.554 229.567 361.052 239.152C362.217 240.052 363.012 240.264 364.23 239.205C366.295 237.404 368.572 235.816 370.743 234.068C374.185 231.367 374.185 227.713 370.69 225.066C359.093 216.222 347.548 207.431 335.951 198.64C331.767 195.463 327.584 192.338 323.453 189.108C322.288 188.314 321.176 187.837 319.852 187.837Z" stroke="#01396D" stroke-miterlimit="10"/>
<path d="M319.852 320.811C318.634 320.811 317.628 321.235 316.675 321.976C300.682 334.156 284.689 346.283 268.696 358.463C265.889 360.635 265.942 364.606 268.855 366.831C271.291 368.684 273.78 370.485 276.163 372.444C277.063 373.185 277.593 373.185 278.546 372.444C289.984 363.706 301.423 354.968 312.862 346.283C314.08 345.383 315.245 344.43 316.463 343.53C318.952 341.676 321.07 341.676 323.559 343.53C336.057 353.062 348.554 362.541 361.052 372.126C362.217 373.026 363.012 373.238 364.23 372.179C366.295 370.379 368.572 368.79 370.743 367.042C374.185 364.342 374.185 360.688 370.69 358.04C359.093 349.196 347.548 340.405 335.951 331.614C331.767 328.437 327.584 325.313 323.453 322.082C322.288 321.288 321.176 320.811 319.852 320.811Z" fill="#7AC8E7"/>
<path d="M591.573 52.1096C590.355 52.1096 589.349 52.5333 588.395 53.2747C572.402 65.4547 556.41 77.5817 540.417 89.7618C537.61 91.933 537.663 95.9047 540.575 98.1289C543.011 99.9824 545.5 101.783 547.883 103.742C548.784 104.484 549.313 104.484 550.267 103.742C561.705 95.0045 573.144 86.2666 584.582 77.5817C585.8 76.6815 586.965 75.7283 588.183 74.828C590.672 72.9745 592.791 72.9745 595.28 74.828C607.777 84.3602 620.275 93.8394 632.773 103.425C633.938 104.325 634.732 104.537 635.95 103.478C638.016 101.677 640.293 100.088 642.464 98.3407C645.906 95.6399 645.906 91.9859 642.411 89.3381C630.814 80.4944 619.269 71.7036 607.672 62.9128C603.488 59.7354 599.304 56.6109 595.174 53.3806C594.009 52.5862 592.897 52.1096 591.573 52.1096Z" fill="#7AC8E7"/>
<path d="M591.573 187.837C590.355 187.837 589.349 188.261 588.395 189.002C572.402 201.182 556.41 213.309 540.417 225.489C537.61 227.66 537.663 231.632 540.575 233.856C543.011 235.71 545.5 237.51 547.883 239.47C548.784 240.211 549.313 240.211 550.267 239.47C561.705 230.732 573.144 221.994 584.582 213.309C585.8 212.409 586.965 211.456 588.183 210.555C590.672 208.702 592.791 208.702 595.28 210.555C607.777 220.088 620.275 229.567 632.773 239.152C633.938 240.052 634.732 240.264 635.95 239.205C638.016 237.404 640.293 235.816 642.464 234.068C645.906 231.367 645.906 227.713 642.411 225.066C630.814 216.222 619.269 207.431 607.672 198.64C603.488 195.463 599.304 192.338 595.174 189.108C594.009 188.314 592.897 187.837 591.573 187.837Z" stroke="#01396D" stroke-miterlimit="10"/>
<path d="M591.573 320.811C590.355 320.811 589.349 321.235 588.395 321.976C572.402 334.156 556.41 346.283 540.417 358.463C537.61 360.635 537.663 364.606 540.575 366.831C543.011 368.684 545.5 370.485 547.883 372.444C548.784 373.185 549.313 373.185 550.267 372.444C561.705 363.706 573.144 354.968 584.582 346.283C585.8 345.383 586.965 344.43 588.183 343.53C590.672 341.676 592.791 341.676 595.28 343.53C607.777 353.062 620.275 362.541 632.773 372.126C633.938 373.026 634.732 373.238 635.95 372.179C638.016 370.379 640.293 368.79 642.464 367.042C645.906 364.342 645.906 360.688 642.411 358.04C630.814 349.196 619.269 340.405 607.672 331.614C603.488 328.437 599.304 325.313 595.174 322.082C594.009 321.288 592.897 320.811 591.573 320.811Z" fill="#7AC8E7"/>
<path d="M452.667 113.486C451.449 113.486 450.443 113.91 449.49 114.651C433.497 126.831 417.504 138.958 401.511 151.138C398.705 153.309 398.758 157.281 401.67 159.505C404.106 161.359 406.595 163.159 408.978 165.119C409.879 165.86 410.408 165.86 411.361 165.119C422.8 156.381 434.239 147.643 445.677 138.958C446.895 138.058 448.06 137.105 449.278 136.204C451.767 134.351 453.885 134.351 456.374 136.204C468.872 145.737 481.37 155.216 493.868 164.801C495.033 165.701 495.827 165.913 497.045 164.854C499.11 163.053 501.388 161.465 503.559 159.717C507.001 157.016 507.001 153.362 503.506 150.715C491.908 141.871 480.364 133.08 468.766 124.289C464.583 121.112 460.399 117.987 456.268 114.757C455.103 113.91 453.991 113.486 452.667 113.486Z" stroke="#7AC8E7" stroke-miterlimit="10"/>
<path d="M452.667 249.214C451.449 249.214 450.443 249.638 449.49 250.379C433.497 262.559 417.504 274.686 401.511 286.866C398.705 289.037 398.758 293.009 401.67 295.233C404.106 297.087 406.595 298.887 408.978 300.847C409.879 301.588 410.408 301.588 411.361 300.847C422.8 292.109 434.239 283.371 445.677 274.686C446.895 273.786 448.06 272.832 449.278 271.932C451.767 270.079 453.885 270.079 456.374 271.932C468.872 281.464 481.37 290.944 493.868 300.529C495.033 301.429 495.827 301.641 497.045 300.582C499.11 298.781 501.388 297.193 503.559 295.445C507.001 292.744 507.001 289.09 503.506 286.442C491.908 277.599 480.364 268.808 468.766 260.017C464.583 256.84 460.399 253.715 456.268 250.485C455.103 249.69 453.991 249.214 452.667 249.214Z" fill="#01396D"/>
<path d="M452.667 0C451.449 0 450.443 0.423653 449.49 1.16505C433.497 13.3451 417.504 25.4721 401.511 37.6521C398.705 39.8234 398.758 43.7951 401.67 46.0193C404.106 47.8728 406.595 49.6733 408.978 51.6327C409.879 52.3741 410.408 52.3741 411.361 51.6327C422.8 42.8949 434.239 34.157 445.677 25.4721C446.895 24.5719 448.06 23.6186 449.278 22.7184C451.767 20.8649 453.885 20.8649 456.374 22.7184C468.872 32.2506 481.37 41.7298 493.868 51.3149C495.033 52.2152 495.827 52.427 497.045 51.3679C499.11 49.5674 501.388 47.9787 503.559 46.2311C507.001 43.5303 507.001 39.8763 503.506 37.2285C491.802 28.3847 480.258 19.5939 468.66 10.7502C464.477 7.57279 460.293 4.44835 456.163 1.218C455.103 0.423653 453.991 0 452.667 0Z" fill="#01396D"/>
<path d="M718.297 113.486C717.079 113.486 716.073 113.91 715.12 114.651C699.127 126.831 683.134 138.958 667.141 151.138C664.335 153.309 664.387 157.281 667.3 159.505C669.736 161.359 672.225 163.159 674.608 165.119C675.508 165.86 676.038 165.86 676.991 165.119C688.43 156.381 699.868 147.643 711.307 138.958C712.525 138.058 713.69 137.105 714.908 136.204C717.397 134.351 719.515 134.351 722.004 136.204C734.502 145.737 747 155.216 759.498 164.801C760.663 165.701 761.457 165.913 762.675 164.854C764.74 163.053 767.017 161.465 769.189 159.717C772.631 157.016 772.631 153.362 769.136 150.715C757.538 141.871 745.994 133.08 734.396 124.289C730.213 121.112 726.029 117.987 721.898 114.757C720.733 113.91 719.621 113.486 718.297 113.486Z" stroke="#7AC8E7" stroke-miterlimit="10"/>
<path d="M718.297 249.214C717.079 249.214 716.073 249.638 715.12 250.379C699.127 262.559 683.134 274.686 667.141 286.866C664.335 289.037 664.387 293.009 667.3 295.233C669.736 297.087 672.225 298.887 674.608 300.847C675.508 301.588 676.038 301.588 676.991 300.847C688.43 292.109 699.868 283.371 711.307 274.686C712.525 273.786 713.69 272.832 714.908 271.932C717.397 270.079 719.515 270.079 722.004 271.932C734.502 281.464 747 290.944 759.498 300.529C760.663 301.429 761.457 301.641 762.675 300.582C764.74 298.781 767.017 297.193 769.189 295.445C772.631 292.744 772.631 289.09 769.136 286.442C757.538 277.599 745.994 268.808 734.396 260.017C730.213 256.84 726.029 253.715 721.898 250.485C720.733 249.69 719.621 249.214 718.297 249.214Z" fill="#01396D"/>
<path d="M718.297 0C717.079 0 716.073 0.423653 715.12 1.16505C699.127 13.3451 683.134 25.4721 667.141 37.6521C664.335 39.8234 664.387 43.7951 667.3 46.0193C669.736 47.8728 672.225 49.6733 674.608 51.6327C675.508 52.3741 676.038 52.3741 676.991 51.6327C688.43 42.8949 699.868 34.157 711.307 25.4721C712.525 24.5719 713.69 23.6186 714.908 22.7184C717.397 20.8649 719.515 20.8649 722.004 22.7184C734.502 32.2506 747 41.7298 759.498 51.3149C760.663 52.2152 761.457 52.427 762.675 51.3679C764.74 49.5674 767.017 47.9787 769.189 46.2311C772.631 43.5303 772.631 39.8763 769.136 37.2285C757.538 28.3847 745.994 19.5939 734.396 10.8031C730.213 7.62575 726.029 4.50131 721.898 1.27096C720.733 0.423653 719.621 0 718.297 0Z" fill="#01396D"/>
<path d="M851.113 52.1096C849.895 52.1096 848.889 52.5333 847.936 53.2747C831.943 65.4547 815.95 77.5817 799.957 89.7618C797.15 91.933 797.203 95.9047 800.116 98.1289C802.552 99.9824 805.041 101.783 807.424 103.742C808.324 104.484 808.854 104.484 809.807 103.742C821.246 95.0045 832.684 86.2666 844.123 77.5817C845.341 76.6815 846.506 75.7283 847.724 74.828C850.213 72.9745 852.331 72.9745 854.82 74.828C867.318 84.3602 879.816 93.8394 892.313 103.425C893.479 104.325 894.273 104.537 895.491 103.478C897.556 101.677 899.833 100.088 902.005 98.3407C905.447 95.6399 905.447 91.9859 901.952 89.3381C890.354 80.4944 878.81 71.7036 867.212 62.9128C863.029 59.7354 858.845 56.6109 854.714 53.3806C853.549 52.5862 852.437 52.1096 851.113 52.1096Z" fill="#7AC8E7"/>
<path d="M851.113 187.837C849.895 187.837 848.889 188.261 847.936 189.002C831.943 201.182 815.95 213.309 799.957 225.489C797.15 227.66 797.203 231.632 800.116 233.856C802.552 235.71 805.041 237.51 807.424 239.47C808.324 240.211 808.854 240.211 809.807 239.47C821.246 230.732 832.684 221.994 844.123 213.309C845.341 212.409 846.506 211.456 847.724 210.555C850.213 208.702 852.331 208.702 854.82 210.555C867.318 220.088 879.816 229.567 892.313 239.152C893.479 240.052 894.273 240.264 895.491 239.205C897.556 237.404 899.833 235.816 902.005 234.068C905.447 231.367 905.447 227.713 901.952 225.066C890.354 216.222 878.81 207.431 867.212 198.64C863.029 195.463 858.845 192.338 854.714 189.108C853.549 188.314 852.437 187.837 851.113 187.837Z" stroke="#01396D" stroke-miterlimit="10"/>
<path d="M851.113 320.811C849.895 320.811 848.889 321.235 847.936 321.976C831.943 334.156 815.95 346.283 799.957 358.463C797.15 360.635 797.203 364.606 800.116 366.831C802.552 368.684 805.041 370.485 807.424 372.444C808.324 373.185 808.854 373.185 809.807 372.444C821.246 363.706 832.684 354.968 844.123 346.283C845.341 345.383 846.506 344.43 847.724 343.53C850.213 341.676 852.331 341.676 854.82 343.53C867.318 353.062 879.816 362.541 892.313 372.126C893.479 373.026 894.273 373.238 895.491 372.179C897.556 370.379 899.833 368.79 902.005 367.042C905.447 364.342 905.447 360.688 901.952 358.04C890.354 349.196 878.81 340.405 867.212 331.614C863.029 328.437 858.845 325.313 854.714 322.082C853.549 321.288 852.437 320.811 851.113 320.811Z" fill="#7AC8E7"/>
<path d="M983.929 113.486C982.711 113.486 981.704 113.91 980.751 114.651C964.758 126.831 948.765 138.958 932.773 151.138C929.966 153.309 930.019 157.281 932.931 159.505C935.367 161.359 937.856 163.159 940.239 165.119C941.14 165.86 941.669 165.86 942.623 165.119C954.061 156.381 965.5 147.643 976.938 138.958C978.156 138.058 979.321 137.105 980.539 136.204C983.028 134.351 985.147 134.351 987.636 136.204C1000.13 145.737 1012.63 155.216 1025.13 164.801C1026.29 165.701 1027.09 165.913 1028.31 164.854C1030.37 163.053 1032.65 161.465 1034.82 159.717C1038.26 157.016 1038.26 153.362 1034.77 150.715C1023.17 141.871 1011.62 133.08 1000.03 124.289C995.844 121.112 991.66 117.987 987.53 114.757C986.365 113.91 985.253 113.486 983.929 113.486Z" stroke="#7AC8E7" stroke-miterlimit="10"/>
<path d="M983.929 249.214C982.711 249.214 981.704 249.638 980.751 250.379C964.758 262.559 948.765 274.686 932.773 286.866C929.966 289.037 930.019 293.009 932.931 295.233C935.367 297.087 937.856 298.887 940.239 300.847C941.14 301.588 941.669 301.588 942.623 300.847C954.061 292.109 965.5 283.371 976.938 274.686C978.156 273.786 979.321 272.832 980.539 271.932C983.028 270.079 985.147 270.079 987.636 271.932C1000.13 281.464 1012.63 290.944 1025.13 300.529C1026.29 301.429 1027.09 301.641 1028.31 300.582C1030.37 298.781 1032.65 297.193 1034.82 295.445C1038.26 292.744 1038.26 289.09 1034.77 286.442C1023.17 277.599 1011.62 268.808 1000.03 260.017C995.844 256.84 991.66 253.715 987.53 250.485C986.365 249.69 985.253 249.214 983.929 249.214Z" fill="#01396D"/>
<path d="M983.929 0C982.711 0 981.704 0.423653 980.751 1.16505C964.758 13.3451 948.765 25.4721 932.773 37.6521C929.966 39.8234 930.019 43.7951 932.931 46.0193C935.367 47.8728 937.856 49.6733 940.239 51.6327C941.14 52.3741 941.669 52.3741 942.623 51.6327C954.061 42.8949 965.5 34.157 976.938 25.4721C978.156 24.5719 979.321 23.6186 980.539 22.7184C983.028 20.8649 985.147 20.8649 987.636 22.7184C1000.13 32.2506 1012.63 41.7298 1025.13 51.3149C1026.29 52.2152 1027.09 52.427 1028.31 51.3679C1030.37 49.5674 1032.65 47.9787 1034.82 46.2311C1038.26 43.5303 1038.26 39.8763 1034.77 37.2285C1023.17 28.3847 1011.62 19.5939 1000.03 10.8031C995.844 7.62575 991.66 4.50131 987.53 1.27096C986.365 0.423653 985.253 0 983.929 0Z" fill="#01396D"/>
</g>
</svg>
