<svg width="528" height="350" viewBox="0 0 528 350" fill="none" xmlns="http://www.w3.org/2000/svg">
<g opacity="0.3">
<path d="M578.177 159.742C578.177 144.523 578.177 129.305 578.177 114.086C578.177 113.698 578.177 113.28 578.177 112.892C578.117 108.028 574.328 105.88 570.18 108.357C562.362 113.042 554.543 117.786 546.755 122.531C529 133.303 511.245 144.076 493.489 154.878C487.73 158.399 487.76 163.741 493.549 167.262C518.197 182.242 542.846 197.222 567.494 212.202C569.852 213.634 572.299 214.261 574.805 212.858C577.371 211.426 578.207 209.069 578.207 206.174C578.147 190.717 578.177 175.229 578.177 159.742Z" fill="#01396D"/>
<path d="M527.806 53.4204C527.806 38.2016 527.806 22.9829 527.806 7.76419C527.806 7.37626 527.806 6.95849 527.806 6.57056C527.746 1.70653 523.957 -0.441988 519.809 2.03478C511.991 6.71976 504.172 11.4644 496.384 16.2091C478.629 26.9816 460.874 37.754 443.118 48.5563C437.359 52.0775 437.389 57.419 443.178 60.9402C467.826 75.9202 492.475 90.9002 517.123 105.88C519.481 107.313 521.927 107.939 524.434 106.537C527 105.104 527.836 102.717 527.806 99.8524C527.806 84.3651 527.806 68.8778 527.806 53.4204Z" stroke="#7AC8E7" stroke-miterlimit="10"/>
<path d="M566.034 359.167C566.034 343.948 566.034 328.729 566.034 313.511C566.034 313.123 566.034 312.705 566.034 312.317C565.974 307.453 562.184 305.304 558.036 307.781C550.218 312.466 542.4 317.211 534.612 321.955C516.856 332.728 499.101 343.5 481.346 354.303C475.587 357.824 475.617 363.165 481.406 366.687C506.054 381.667 530.702 396.647 555.351 411.627C557.708 413.059 560.155 413.686 562.662 412.283C565.228 410.851 566.064 408.463 566.034 405.599C566.034 390.141 566.034 374.654 566.034 359.167Z" fill="#01396D"/>
<path d="M515.691 252.845C515.691 237.626 515.691 222.407 515.691 207.189C515.691 206.801 515.691 206.383 515.691 205.995C515.632 201.131 511.842 198.983 507.694 201.459C499.876 206.144 492.058 210.889 484.269 215.634C466.514 226.406 448.759 237.179 431.004 247.981C425.244 251.502 425.274 256.844 431.063 260.365C455.712 275.345 480.36 290.325 505.008 305.305C507.366 306.737 509.813 307.364 512.319 305.961C514.886 304.529 515.721 302.142 515.691 299.277C515.661 283.79 515.691 268.302 515.691 252.845Z" stroke="#7AC8E7" stroke-miterlimit="10"/>
<path d="M449.803 342.516C449.803 332.132 449.803 321.777 449.803 311.393C449.803 311.124 449.803 310.855 449.803 310.587C449.743 307.275 447.177 305.783 444.342 307.483C439.001 310.676 433.689 313.929 428.348 317.152C416.232 324.493 404.117 331.863 392.032 339.204C388.093 341.591 388.122 345.262 392.061 347.649C408.862 357.854 425.692 368.09 442.492 378.295C444.104 379.28 445.775 379.698 447.476 378.743C449.206 377.758 449.803 376.147 449.773 374.177C449.773 363.644 449.803 353.08 449.803 342.516Z" fill="#7AC8E7"/>
<path d="M189.115 110.445C189.115 95.2265 189.115 80.0078 189.115 64.7891C189.115 64.4012 189.115 63.9834 189.115 63.5955C189.055 58.7314 185.265 56.5829 181.117 59.0597C173.299 63.7447 165.481 68.4893 157.692 73.234C139.937 84.0064 122.182 94.7789 104.427 105.581C98.6675 109.102 98.6974 114.444 104.486 117.965C129.135 132.945 153.783 147.925 178.432 162.905C180.789 164.337 183.236 164.964 185.742 163.562C188.309 162.129 189.144 159.742 189.114 156.877C189.085 141.39 189.115 125.903 189.115 110.445Z" fill="#01396D"/>
<path d="M176.969 309.871C176.969 294.652 176.969 279.433 176.969 264.214C176.969 263.826 176.969 263.409 176.969 263.021C176.91 258.157 173.12 256.008 168.972 258.485C161.154 263.17 153.336 267.915 145.547 272.659C127.792 283.432 110.037 294.204 92.2816 305.007C86.5224 308.528 86.5522 313.869 92.3413 317.39C116.99 332.37 141.638 347.35 166.286 362.33C168.644 363.763 171.091 364.389 173.597 362.987C176.164 361.555 176.999 359.167 176.969 356.303C176.939 340.815 176.969 325.328 176.969 309.871Z" fill="#01396D"/>
<path d="M126.599 203.518C126.599 188.299 126.599 173.081 126.599 157.862C126.599 157.474 126.599 157.056 126.599 156.668C126.539 151.804 122.749 149.656 118.601 152.132C110.783 156.817 102.965 161.562 95.1766 166.307C77.4214 177.079 59.6662 187.852 41.9111 198.654C36.1518 202.175 36.1817 207.517 41.9707 211.038C66.6191 226.018 91.2675 240.998 115.916 255.978C118.273 257.41 120.72 258.037 123.227 256.634C125.793 255.202 126.629 252.815 126.599 249.95C126.569 234.493 126.599 219.005 126.599 203.518Z" stroke="#7AC8E7" stroke-miterlimit="10"/>
<path d="M60.7106 293.189C60.7106 282.805 60.7106 272.45 60.7106 262.066C60.7106 261.797 60.7106 261.529 60.7106 261.26C60.6509 257.948 58.0846 256.456 55.2498 258.157C49.9083 261.349 44.5966 264.602 39.2552 267.825C27.1399 275.166 15.0246 282.536 2.93911 289.877C-0.999853 292.264 -0.970027 295.935 2.96894 298.322C19.7692 308.528 36.5994 318.763 53.3996 328.968C55.011 329.953 56.6821 330.371 58.383 329.416C60.1138 328.431 60.7106 326.82 60.6808 324.85C60.6808 314.317 60.7106 303.753 60.7106 293.189Z" fill="#7AC8E7"/>
<path d="M366.07 226.555C366.07 211.336 366.07 196.118 366.07 180.899C366.07 180.511 366.07 180.093 366.07 179.705C366.01 174.841 362.22 172.693 358.072 175.17C350.254 179.855 342.436 184.599 334.647 189.344C316.892 200.116 299.137 210.889 281.382 221.691C275.623 225.212 275.652 230.554 281.442 234.075C306.09 249.055 330.738 264.035 355.387 279.015C357.744 280.447 360.191 281.074 362.698 279.671C365.264 278.239 366.099 275.852 366.07 272.987C366.04 257.5 366.07 242.042 366.07 226.555Z" fill="#01396D"/>
<path d="M249.812 209.874C249.812 199.489 249.812 189.135 249.812 178.75C249.812 178.481 249.812 178.213 249.812 177.944C249.752 174.632 247.186 173.14 244.351 174.841C239.009 178.034 233.698 181.286 228.356 184.509C216.241 191.85 204.126 199.221 192.04 206.561C188.101 208.949 188.131 212.619 192.07 215.006C208.87 225.212 225.7 235.447 242.501 245.653C244.112 246.637 245.783 247.055 247.484 246.1C249.215 245.116 249.812 243.504 249.782 241.535C249.782 231.001 249.812 220.437 249.812 209.874Z" fill="#7AC8E7"/>
<path d="M301.585 332.549C301.585 317.33 301.585 302.111 301.585 286.893C301.585 286.505 301.585 286.087 301.585 285.699C301.525 280.835 297.735 278.686 293.587 281.163C285.769 285.848 277.951 290.593 270.162 295.338C252.407 306.11 234.652 316.882 216.897 327.685C211.138 331.206 211.167 336.547 216.957 340.069C241.605 355.049 266.253 370.029 290.902 385.009C293.259 386.441 295.706 387.068 298.213 385.665C300.779 384.233 301.614 381.846 301.585 378.981C301.555 363.494 301.585 348.006 301.585 332.549Z" stroke="#7AC8E7" stroke-miterlimit="10"/>
</g>
</svg>
