<svg width="497" height="230" viewBox="0 0 497 230" fill="none" xmlns="http://www.w3.org/2000/svg">
<g opacity="0.3">
<path d="M-69.8264 96.1326C-69.8264 83.9576 -69.8264 71.7826 -69.8264 59.6076C-69.8264 59.2973 -69.8264 58.9631 -69.8264 58.6527C-69.7667 54.7615 -65.9769 53.0427 -61.8291 55.0241C-54.0108 58.7721 -46.1926 62.5678 -38.4042 66.3636C-20.649 74.9815 -2.89383 83.5995 14.8614 92.2413C20.6206 95.0583 20.5908 99.3315 14.8017 102.148C-9.84669 114.132 -34.495 126.116 -59.1434 138.1C-61.5008 139.246 -63.9478 139.748 -66.4544 138.626C-69.0207 137.48 -69.8562 135.57 -69.8264 133.278C-69.8264 120.912 -69.8264 108.522 -69.8264 96.1326Z" fill="#01396D"/>
<path d="M-19.4846 11.0759C-19.4846 -1.09904 -19.4846 -13.274 -19.4846 -25.449C-19.4846 -25.7593 -19.4846 -26.0936 -19.4846 -26.4039C-19.4249 -30.2951 -15.6351 -32.0139 -11.4873 -30.0325C-3.66905 -26.2845 4.1492 -22.4888 11.9376 -18.6931C29.6928 -10.0751 47.448 -1.45713 65.2031 7.18472C70.9624 10.0017 70.9326 14.2749 65.1435 17.0918C40.4951 29.0758 15.8467 41.0598 -8.80161 53.0438C-11.159 54.1897 -13.606 54.691 -16.1126 53.569C-18.6789 52.4231 -19.5144 50.5133 -19.4846 48.2216C-19.4547 35.8317 -19.4846 23.4419 -19.4846 11.0759Z" stroke="#7AC8E7" stroke-miterlimit="10"/>
<path d="M0.807419 185.703C0.807416 173.528 0.807413 161.353 0.807409 149.178C0.807409 148.868 0.807409 148.533 0.807409 148.223C0.867089 144.332 4.65685 142.613 8.8047 144.594C16.6229 148.342 24.4412 152.138 32.2296 155.934C49.9848 164.552 67.74 173.17 85.4951 181.812C91.2544 184.629 91.2245 188.902 85.4355 191.719C60.7871 203.703 36.1387 215.687 11.4904 227.671C9.13297 228.817 6.68603 229.318 4.17942 228.196C1.61313 227.05 0.77759 225.14 0.80743 222.849C0.807426 210.459 0.807423 198.069 0.807419 185.703Z" stroke="#7AC8E7" stroke-miterlimit="10"/>
<path d="M46.4043 82.8125C46.4043 74.5048 46.4043 66.2211 46.4043 57.9135C46.4043 57.6986 46.4043 57.4837 46.4043 57.2689C46.464 54.619 49.0303 53.4254 51.8651 54.7862C57.2066 57.3405 62.5182 59.9426 67.8597 62.5208C79.975 68.3935 92.0903 74.29 104.176 80.1626C108.115 82.0724 108.085 85.0088 104.146 86.9186C87.3457 95.083 70.5155 103.271 53.7153 111.436C52.1039 112.223 50.4328 112.558 48.7319 111.794C47.0011 111.006 46.4043 109.717 46.4342 108.141C46.4342 99.7142 46.4043 91.2634 46.4043 82.8125Z" fill="#7AC8E7"/>
<path d="M319.238 56.6961C319.238 44.5211 319.238 32.3461 319.238 20.1711C319.238 19.8608 319.238 19.5266 319.238 19.2162C319.298 15.325 323.087 13.6062 327.235 15.5876C335.054 19.3356 342.872 23.1313 350.66 26.927C368.415 35.545 386.171 44.163 403.926 52.8048C409.685 55.6218 409.655 59.895 403.866 62.7119C379.218 74.6959 354.569 86.6799 329.921 98.6639C327.564 99.8098 325.117 100.311 322.61 99.1891C320.044 98.0433 319.208 96.1334 319.238 93.8417C319.268 81.4518 319.238 69.062 319.238 56.6961Z" fill="#01396D"/>
<path d="M369.608 -28.386C369.608 -40.561 369.608 -52.7359 369.608 -64.9109C369.608 -65.2213 369.608 -65.5555 369.608 -65.8658C369.668 -69.757 373.458 -71.4759 377.606 -69.4944C385.424 -65.7465 393.242 -61.9507 401.03 -58.155C418.786 -49.537 436.541 -40.919 454.296 -32.2772C460.055 -29.4602 460.025 -25.1871 454.236 -22.3701C429.588 -10.3861 404.94 1.5979 380.291 13.5819C377.934 14.7278 375.487 15.2291 372.98 14.1071C370.414 12.9612 369.578 11.0514 369.608 8.75965C369.638 -3.60631 369.608 -15.9961 369.608 -28.386Z" stroke="#7AC8E7" stroke-miterlimit="10"/>
<path d="M369.608 140.941C369.608 128.766 369.608 116.591 369.608 104.416C369.608 104.106 369.608 103.772 369.608 103.461C369.668 99.5701 373.458 97.8513 377.606 99.8327C385.424 103.581 393.242 107.376 401.03 111.172C418.786 119.79 436.541 128.408 454.296 137.05C460.055 139.867 460.025 144.14 454.236 146.957C429.588 158.941 404.94 170.925 380.291 182.909C377.934 184.055 375.487 184.556 372.98 183.434C370.414 182.288 369.578 180.379 369.608 178.087C369.638 165.721 369.608 153.331 369.608 140.941Z" stroke="#7AC8E7" stroke-miterlimit="10"/>
<path d="M435.496 43.3516C435.496 35.0439 435.496 26.7602 435.496 18.4525C435.496 18.2377 435.496 18.0228 435.496 17.808C435.556 15.1581 438.122 13.9645 440.957 15.3252C446.298 17.8796 451.61 20.4817 456.952 23.0599C469.067 28.9326 481.182 34.8291 493.268 40.7017C497.207 42.6115 497.177 45.5478 493.238 47.4576C476.437 55.622 459.607 63.8103 442.807 71.9747C441.196 72.7625 439.525 73.0967 437.824 72.3328C436.093 71.545 435.496 70.2559 435.526 68.6803C435.526 60.2533 435.496 51.8024 435.496 43.3516Z" fill="#7AC8E7"/>
<path d="M130.137 -9.95629C130.137 -22.1313 130.137 -34.3063 130.137 -46.4812C130.137 -46.7916 130.137 -47.1258 130.137 -47.4361C130.197 -51.3273 133.987 -53.0462 138.135 -51.0648C145.953 -47.3168 153.771 -43.521 161.56 -39.7253C179.315 -31.1073 197.07 -22.4894 214.825 -13.8475C220.584 -11.0306 220.555 -6.75739 214.766 -3.94044C190.117 8.04357 165.469 20.0276 140.82 32.0116C138.463 33.1575 136.016 33.6588 133.51 32.5368C130.943 31.3909 130.108 29.4811 130.138 27.1893C130.167 14.7995 130.138 2.43354 130.137 -9.95629Z" fill="#01396D"/>
<path d="M246.396 -23.3018C246.396 -31.6094 246.396 -39.8932 246.396 -48.2008C246.396 -48.4157 246.396 -48.6305 246.396 -48.8454C246.455 -51.4952 249.021 -52.6888 251.856 -51.3281C257.198 -48.7737 262.509 -46.1716 267.851 -43.5934C279.966 -37.7208 292.082 -31.8243 304.167 -25.9516C308.106 -24.0418 308.076 -21.1055 304.137 -19.1957C287.337 -11.0313 270.507 -2.84303 253.706 5.32137C252.095 6.10916 250.424 6.44338 248.723 5.67946C246.992 4.89167 246.396 3.60254 246.425 2.02695C246.425 -6.40004 246.396 -14.8509 246.396 -23.3018Z" fill="#7AC8E7"/>
<path d="M144.252 159.896C144.252 147.721 144.252 135.546 144.252 123.371C144.252 123.061 144.252 122.727 144.252 122.416C144.311 118.525 148.101 116.806 152.249 118.788C160.067 122.536 167.886 126.331 175.674 130.127C193.429 138.745 211.184 147.363 228.939 156.005C234.699 158.822 234.669 163.095 228.88 165.912C204.231 177.896 179.583 189.88 154.935 201.864C152.577 203.01 150.13 203.511 147.624 202.389C145.057 201.243 144.222 199.334 144.252 197.042C144.282 184.676 144.252 172.286 144.252 159.896Z" fill="#01396D"/>
<path d="M194.623 74.8386C194.623 62.6637 194.623 50.4887 194.623 38.3137C194.623 38.0033 194.623 37.6691 194.623 37.3588C194.683 33.4676 198.472 31.7488 202.62 33.7302C210.438 37.4782 218.257 41.2739 226.045 45.0696C243.8 53.6876 261.555 62.3056 279.311 70.9474C285.07 73.7644 285.04 78.0375 279.251 80.8545C254.603 92.8385 229.954 104.823 205.306 116.807C202.948 117.952 200.501 118.454 197.995 117.332C195.429 116.186 194.593 114.276 194.623 111.984C194.653 99.5944 194.623 87.2046 194.623 74.8386Z" stroke="#7AC8E7" stroke-miterlimit="10"/>
<path d="M260.511 146.575C260.511 138.268 260.511 129.984 260.511 121.676C260.511 121.461 260.511 121.246 260.511 121.032C260.57 118.382 263.137 117.188 265.972 118.549C271.313 121.103 276.625 123.705 281.966 126.284C294.081 132.156 306.197 138.053 318.282 143.925C322.221 145.835 322.191 148.771 318.252 150.681C301.452 158.846 284.622 167.034 267.822 175.198C266.21 175.986 264.539 176.32 262.838 175.556C261.108 174.769 260.511 173.479 260.541 171.904C260.541 163.453 260.511 155.026 260.511 146.575Z" fill="#7AC8E7"/>
</g>
</svg>
