<svg width="878" height="392" viewBox="0 0 878 392" fill="none" xmlns="http://www.w3.org/2000/svg">
<g opacity="0.15">
<path d="M-22.9519 54.7566C-24.2318 54.7566 -25.289 55.2018 -26.2907 55.9808C-43.0959 68.7795 -59.9012 81.5226 -76.7065 94.3213C-79.6557 96.6028 -79.6001 100.776 -76.5395 103.113C-73.9798 105.061 -71.3644 106.953 -68.8603 109.012C-67.9143 109.791 -67.3578 109.791 -66.3562 109.012C-54.3365 99.8303 -42.3169 90.6486 -30.2972 81.5226C-29.0174 80.5766 -27.7931 79.575 -26.5133 78.629C-23.8979 76.6813 -21.672 76.6813 -19.0566 78.629C-5.92403 88.6453 7.20854 98.6061 20.3411 108.678C21.5654 109.624 22.4 109.847 23.6799 108.734C25.8501 106.842 28.243 105.172 30.5245 103.336C34.1415 100.498 34.1415 96.6585 30.4688 93.8761C18.2822 84.5832 6.15128 75.3458 -6.03532 66.1085C-10.4314 62.7697 -14.8275 59.4865 -19.1679 56.0921C-20.3921 55.2574 -21.5607 54.7566 -22.9519 54.7566Z" fill="#7AC8E7"/>
<path d="M-22.9519 197.378C-24.2318 197.378 -25.289 197.824 -26.2907 198.603C-43.0959 211.401 -59.9012 224.144 -76.7065 236.943C-79.6557 239.225 -79.6001 243.398 -76.5395 245.735C-73.9798 247.683 -71.3644 249.575 -68.8603 251.634C-67.9143 252.413 -67.3578 252.413 -66.3562 251.634C-54.3365 242.452 -42.3169 233.27 -30.2972 224.144C-29.0174 223.198 -27.7931 222.197 -26.5133 221.251C-23.8979 219.303 -21.672 219.303 -19.0566 221.251C-5.92403 231.267 7.20854 241.228 20.3411 251.3C21.5654 252.246 22.4 252.468 23.6799 251.356C25.8501 249.464 28.243 247.794 30.5245 245.958C34.1415 243.12 34.1415 239.28 30.4688 236.498C18.2822 227.205 6.15128 217.968 -6.03532 208.73C-10.4314 205.392 -14.8275 202.108 -19.1679 198.714C-20.3921 197.879 -21.5607 197.378 -22.9519 197.378Z" stroke="#01396D" stroke-miterlimit="10"/>
<path d="M-22.9519 337.107C-24.2318 337.107 -25.289 337.552 -26.2907 338.331C-43.0959 351.13 -59.9012 363.873 -76.7065 376.672C-79.6557 378.953 -79.6001 383.127 -76.5395 385.464C-73.9798 387.411 -71.3644 389.303 -68.8603 391.362C-67.9143 392.141 -67.3578 392.141 -66.3562 391.362C-54.3365 382.181 -42.3169 372.999 -30.2972 363.873C-29.0174 362.927 -27.7931 361.925 -26.5133 360.979C-23.8979 359.032 -21.672 359.032 -19.0566 360.979C-5.92403 370.996 7.20854 380.956 20.3411 391.028C21.5654 391.974 22.4 392.197 23.6799 391.084C25.8501 389.192 28.243 387.523 30.5245 385.686C34.1415 382.848 34.1415 379.009 30.4688 376.226C18.2822 366.933 6.15128 357.696 -6.03532 348.459C-10.4314 345.12 -14.8275 341.837 -19.1679 338.442C-20.3921 337.608 -21.5607 337.107 -22.9519 337.107Z" fill="#7AC8E7"/>
<path d="M262.571 54.7566C261.291 54.7566 260.234 55.2018 259.232 55.9808C242.427 68.7795 225.622 81.5226 208.816 94.3213C205.867 96.6028 205.923 100.776 208.983 103.113C211.543 105.061 214.159 106.953 216.663 109.012C217.609 109.791 218.165 109.791 219.167 109.012C231.186 99.8303 243.206 90.6486 255.226 81.5226C256.506 80.5766 257.73 79.575 259.01 78.629C261.625 76.6813 263.851 76.6813 266.466 78.629C279.599 88.6453 292.732 98.6061 305.864 108.678C307.088 109.624 307.923 109.847 309.203 108.734C311.373 106.842 313.766 105.172 316.047 103.336C319.664 100.498 319.664 96.6585 315.992 93.8761C303.805 84.5832 291.674 75.3458 279.488 66.1085C275.092 62.7697 270.695 59.4865 266.355 56.0921C265.131 55.2574 263.962 54.7566 262.571 54.7566Z" fill="#7AC8E7"/>
<path d="M262.571 197.378C261.291 197.378 260.234 197.824 259.232 198.603C242.427 211.401 225.622 224.144 208.816 236.943C205.867 239.225 205.923 243.398 208.983 245.735C211.543 247.683 214.159 249.575 216.663 251.634C217.609 252.413 218.165 252.413 219.167 251.634C231.186 242.452 243.206 233.27 255.226 224.144C256.506 223.198 257.73 222.197 259.01 221.251C261.625 219.303 263.851 219.303 266.466 221.251C279.599 231.267 292.732 241.228 305.864 251.3C307.088 252.246 307.923 252.468 309.203 251.356C311.373 249.464 313.766 247.794 316.047 245.958C319.664 243.12 319.664 239.28 315.992 236.498C303.805 227.205 291.674 217.968 279.488 208.73C275.092 205.392 270.695 202.108 266.355 198.714C265.131 197.879 263.962 197.378 262.571 197.378Z" stroke="#01396D" stroke-miterlimit="10"/>
<path d="M262.571 337.107C261.291 337.107 260.234 337.552 259.232 338.331C242.427 351.13 225.622 363.873 208.816 376.672C205.867 378.953 205.923 383.127 208.983 385.464C211.543 387.411 214.159 389.303 216.663 391.362C217.609 392.141 218.165 392.141 219.167 391.362C231.186 382.181 243.206 372.999 255.226 363.873C256.506 362.927 257.73 361.925 259.01 360.979C261.625 359.032 263.851 359.032 266.466 360.979C279.599 370.996 292.732 380.956 305.864 391.028C307.088 391.974 307.923 392.197 309.203 391.084C311.373 389.192 313.766 387.523 316.047 385.686C319.664 382.848 319.664 379.009 315.992 376.226C303.805 366.933 291.674 357.696 279.488 348.459C275.092 345.12 270.695 341.837 266.355 338.442C265.131 337.608 263.962 337.107 262.571 337.107Z" fill="#7AC8E7"/>
<path d="M116.61 119.251C115.33 119.251 114.273 119.696 113.271 120.475C96.4661 133.274 79.6608 146.017 62.8555 158.815C59.9063 161.097 59.962 165.27 63.0225 167.608C65.5823 169.555 68.1976 171.447 70.7017 173.506C71.6477 174.285 72.2042 174.285 73.2058 173.506C85.2255 164.324 97.2451 155.143 109.265 146.017C110.545 145.071 111.769 144.069 113.049 143.123C115.664 141.175 117.89 141.175 120.505 143.123C133.638 153.139 146.771 163.1 159.903 173.172C161.127 174.118 161.962 174.341 163.242 173.228C165.412 171.336 167.805 169.667 170.086 167.83C173.704 164.992 173.704 161.153 170.031 158.37C157.844 149.077 145.713 139.84 133.527 130.603C129.131 127.264 124.735 123.981 120.394 120.586C119.17 119.696 118.001 119.251 116.61 119.251Z" stroke="#7AC8E7" stroke-miterlimit="10"/>
<path d="M116.61 261.873C115.33 261.873 114.273 262.318 113.271 263.097C96.4661 275.895 79.6608 288.639 62.8555 301.437C59.9063 303.719 59.962 307.892 63.0225 310.229C65.5823 312.177 68.1976 314.069 70.7017 316.128C71.6477 316.907 72.2042 316.907 73.2058 316.128C85.2255 306.946 97.2451 297.765 109.265 288.639C110.545 287.693 111.769 286.691 113.049 285.745C115.664 283.797 117.89 283.797 120.505 285.745C133.638 295.761 146.771 305.722 159.903 315.794C161.127 316.74 161.962 316.963 163.242 315.85C165.412 313.958 167.805 312.288 170.086 310.452C173.704 307.614 173.704 303.774 170.031 300.992C157.844 291.699 145.713 282.462 133.527 273.224C129.131 269.886 124.735 266.603 120.394 263.208C119.17 262.373 118.001 261.873 116.61 261.873Z" fill="#01396D"/>
<path d="M116.61 0C115.33 0 114.273 0.445172 113.271 1.22422C96.4661 14.0229 79.6608 26.766 62.8555 39.5647C59.9063 41.8462 59.962 46.0197 63.0225 48.3569C65.5823 50.3045 68.1976 52.1965 70.7017 54.2554C71.6477 55.0345 72.2042 55.0345 73.2058 54.2554C85.2255 45.0737 97.2451 35.892 109.265 26.766C110.545 25.82 111.769 24.8184 113.049 23.8724C115.664 21.9247 117.89 21.9247 120.505 23.8724C133.638 33.8888 146.771 43.8495 159.903 53.9215C161.127 54.8675 161.962 55.0901 163.242 53.9772C165.412 52.0852 167.805 50.4158 170.086 48.5794C173.704 45.7415 173.704 41.9019 170.031 39.1195C157.733 29.8266 145.602 20.5892 133.415 11.2963C129.019 7.95746 124.623 4.67431 120.283 1.27987C119.17 0.445172 118.001 0 116.61 0Z" fill="#01396D"/>
<path d="M395.733 119.251C394.453 119.251 393.396 119.696 392.394 120.475C375.589 133.274 358.783 146.017 341.978 158.815C339.029 161.097 339.084 165.27 342.145 167.608C344.705 169.555 347.32 171.447 349.824 173.506C350.77 174.285 351.327 174.285 352.328 173.506C364.348 164.324 376.368 155.143 388.387 146.017C389.667 145.071 390.891 144.069 392.171 143.123C394.787 141.175 397.013 141.175 399.628 143.123C412.761 153.139 425.893 163.1 439.026 173.172C440.25 174.118 441.085 174.341 442.365 173.228C444.535 171.336 446.928 169.667 449.209 167.83C452.826 164.992 452.826 161.153 449.153 158.37C436.967 149.077 424.836 139.84 412.649 130.603C408.253 127.264 403.857 123.981 399.517 120.586C398.292 119.696 397.124 119.251 395.733 119.251Z" stroke="#7AC8E7" stroke-miterlimit="10"/>
<path d="M395.733 261.873C394.453 261.873 393.396 262.318 392.394 263.097C375.589 275.895 358.783 288.639 341.978 301.437C339.029 303.719 339.084 307.892 342.145 310.229C344.705 312.177 347.32 314.069 349.824 316.128C350.77 316.907 351.327 316.907 352.328 316.128C364.348 306.946 376.368 297.765 388.387 288.639C389.667 287.693 390.891 286.691 392.171 285.745C394.787 283.797 397.013 283.797 399.628 285.745C412.761 295.761 425.893 305.722 439.026 315.794C440.25 316.74 441.085 316.963 442.365 315.85C444.535 313.958 446.928 312.288 449.209 310.452C452.826 307.614 452.826 303.774 449.153 300.992C436.967 291.699 424.836 282.462 412.649 273.224C408.253 269.886 403.857 266.603 399.517 263.208C398.292 262.373 397.124 261.873 395.733 261.873Z" fill="#01396D"/>
<path d="M395.733 0C394.453 0 393.396 0.445172 392.394 1.22422C375.589 14.0229 358.783 26.766 341.978 39.5647C339.029 41.8462 339.084 46.0197 342.145 48.3569C344.705 50.3045 347.32 52.1965 349.824 54.2554C350.77 55.0345 351.327 55.0345 352.328 54.2554C364.348 45.0737 376.368 35.892 388.387 26.766C389.667 25.82 390.891 24.8184 392.171 23.8724C394.787 21.9247 397.013 21.9247 399.628 23.8724C412.761 33.8888 425.893 43.8495 439.026 53.9215C440.25 54.8675 441.085 55.0901 442.365 53.9772C444.535 52.0852 446.928 50.4158 449.209 48.5794C452.826 45.7415 452.826 41.9019 449.153 39.1195C436.967 29.8266 424.836 20.5892 412.649 11.3519C408.253 8.0131 403.857 4.72996 399.517 1.33552C398.292 0.445172 397.124 0 395.733 0Z" fill="#01396D"/>
<path d="M535.295 54.7566C534.015 54.7566 532.958 55.2018 531.956 55.9808C515.151 68.7795 498.345 81.5226 481.54 94.3213C478.591 96.6028 478.647 100.776 481.707 103.113C484.267 105.061 486.882 106.953 489.386 109.012C490.332 109.791 490.889 109.791 491.89 109.012C503.91 99.8303 515.93 90.6486 527.949 81.5226C529.229 80.5766 530.453 79.575 531.733 78.629C534.349 76.6813 536.575 76.6813 539.19 78.629C552.323 88.6453 565.455 98.6061 578.588 108.678C579.812 109.624 580.647 109.847 581.927 108.734C584.097 106.842 586.49 105.172 588.771 103.336C592.388 100.498 592.388 96.6585 588.715 93.8761C576.529 84.5832 564.398 75.3458 552.211 66.1085C547.815 62.7697 543.419 59.4865 539.079 56.0921C537.855 55.2574 536.686 54.7566 535.295 54.7566Z" fill="#7AC8E7"/>
<path d="M535.295 197.378C534.015 197.378 532.958 197.824 531.956 198.603C515.151 211.401 498.345 224.144 481.54 236.943C478.591 239.225 478.647 243.398 481.707 245.735C484.267 247.683 486.882 249.575 489.386 251.634C490.332 252.413 490.889 252.413 491.89 251.634C503.91 242.452 515.93 233.27 527.949 224.144C529.229 223.198 530.453 222.197 531.733 221.251C534.349 219.303 536.575 219.303 539.19 221.251C552.323 231.267 565.455 241.228 578.588 251.3C579.812 252.246 580.647 252.468 581.927 251.356C584.097 249.464 586.49 247.794 588.771 245.958C592.388 243.12 592.388 239.28 588.715 236.498C576.529 227.205 564.398 217.968 552.211 208.73C547.815 205.392 543.419 202.108 539.079 198.714C537.855 197.879 536.686 197.378 535.295 197.378Z" stroke="#01396D" stroke-miterlimit="10"/>
<path d="M535.295 337.107C534.015 337.107 532.958 337.552 531.956 338.331C515.151 351.13 498.345 363.873 481.54 376.672C478.591 378.953 478.647 383.127 481.707 385.464C484.267 387.411 486.882 389.303 489.386 391.362C490.332 392.141 490.889 392.141 491.89 391.362C503.91 382.181 515.93 372.999 527.949 363.873C529.229 362.927 530.453 361.925 531.733 360.979C534.349 359.032 536.575 359.032 539.19 360.979C552.323 370.996 565.455 380.956 578.588 391.028C579.812 391.974 580.647 392.197 581.927 391.084C584.097 389.192 586.49 387.523 588.771 385.686C592.388 382.848 592.388 379.009 588.715 376.226C576.529 366.933 564.398 357.696 552.211 348.459C547.815 345.12 543.419 341.837 539.079 338.442C537.855 337.608 536.686 337.107 535.295 337.107Z" fill="#7AC8E7"/>
<path d="M820.818 54.7566C819.538 54.7566 818.481 55.2018 817.479 55.9808C800.674 68.7795 783.869 81.5226 767.064 94.3213C764.114 96.6028 764.17 100.776 767.231 103.113C769.79 105.061 772.406 106.953 774.91 109.012C775.856 109.791 776.412 109.791 777.414 109.012C789.433 99.8303 801.453 90.6486 813.473 81.5226C814.753 80.5766 815.977 79.575 817.257 78.629C819.872 76.6813 822.098 76.6813 824.713 78.629C837.846 88.6453 850.979 98.6061 864.111 108.678C865.335 109.624 866.17 109.847 867.45 108.734C869.62 106.842 872.013 105.172 874.294 103.336C877.912 100.498 877.912 96.6585 874.239 93.8761C862.052 84.5832 849.921 75.3458 837.735 66.1085C833.339 62.7697 828.943 59.4865 824.602 56.0921C823.378 55.2574 822.209 54.7566 820.818 54.7566Z" fill="#7AC8E7"/>
<path d="M820.818 197.378C819.538 197.378 818.481 197.824 817.479 198.603C800.674 211.401 783.869 224.144 767.064 236.943C764.114 239.225 764.17 243.398 767.231 245.735C769.79 247.683 772.406 249.575 774.91 251.634C775.856 252.413 776.412 252.413 777.414 251.634C789.433 242.452 801.453 233.27 813.473 224.144C814.753 223.198 815.977 222.197 817.257 221.251C819.872 219.303 822.098 219.303 824.713 221.251C837.846 231.267 850.979 241.228 864.111 251.3C865.335 252.246 866.17 252.468 867.45 251.356C869.62 249.464 872.013 247.794 874.294 245.958C877.912 243.12 877.912 239.28 874.239 236.498C862.052 227.205 849.921 217.968 837.735 208.73C833.339 205.392 828.943 202.108 824.602 198.714C823.378 197.879 822.209 197.378 820.818 197.378Z" stroke="#01396D" stroke-miterlimit="10"/>
<path d="M820.818 337.107C819.538 337.107 818.481 337.552 817.479 338.331C800.674 351.13 783.869 363.873 767.064 376.672C764.114 378.953 764.17 383.127 767.231 385.464C769.79 387.411 772.406 389.303 774.91 391.362C775.856 392.141 776.412 392.141 777.414 391.362C789.433 382.181 801.453 372.999 813.473 363.873C814.753 362.927 815.977 361.925 817.257 360.979C819.872 359.032 822.098 359.032 824.713 360.979C837.846 370.996 850.979 380.956 864.111 391.028C865.335 391.974 866.17 392.197 867.45 391.084C869.62 389.192 872.013 387.523 874.294 385.686C877.912 382.848 877.912 379.009 874.239 376.226C862.052 366.933 849.921 357.696 837.735 348.459C833.339 345.12 828.943 341.837 824.602 338.442C823.378 337.608 822.209 337.107 820.818 337.107Z" fill="#7AC8E7"/>
<path d="M674.857 119.251C673.577 119.251 672.52 119.696 671.518 120.475C654.713 133.274 637.907 146.017 621.102 158.815C618.153 161.097 618.209 165.27 621.269 167.608C623.829 169.555 626.444 171.447 628.948 173.506C629.894 174.285 630.451 174.285 631.452 173.506C643.472 164.324 655.492 155.143 667.511 146.017C668.791 145.071 670.015 144.069 671.295 143.123C673.911 141.175 676.137 141.175 678.752 143.123C691.885 153.139 705.017 163.1 718.15 173.172C719.374 174.118 720.209 174.341 721.489 173.228C723.659 171.336 726.052 169.667 728.333 167.83C731.95 164.992 731.95 161.153 728.277 158.37C716.091 149.077 703.96 139.84 691.773 130.603C687.377 127.264 682.981 123.981 678.641 120.586C677.416 119.696 676.248 119.251 674.857 119.251Z" stroke="#7AC8E7" stroke-miterlimit="10"/>
<path d="M674.857 261.873C673.577 261.873 672.52 262.318 671.518 263.097C654.713 275.895 637.907 288.639 621.102 301.437C618.153 303.719 618.209 307.892 621.269 310.229C623.829 312.177 626.444 314.069 628.948 316.128C629.894 316.907 630.451 316.907 631.452 316.128C643.472 306.946 655.492 297.765 667.511 288.639C668.791 287.693 670.015 286.691 671.295 285.745C673.911 283.797 676.137 283.797 678.752 285.745C691.885 295.761 705.017 305.722 718.15 315.794C719.374 316.74 720.209 316.963 721.489 315.85C723.659 313.958 726.052 312.288 728.333 310.452C731.95 307.614 731.95 303.774 728.277 300.992C716.091 291.699 703.96 282.462 691.773 273.224C687.377 269.886 682.981 266.603 678.641 263.208C677.416 262.373 676.248 261.873 674.857 261.873Z" fill="#01396D"/>
<path d="M674.857 0C673.577 0 672.52 0.445172 671.518 1.22422C654.713 14.0229 637.907 26.766 621.102 39.5647C618.153 41.8462 618.209 46.0197 621.269 48.3569C623.829 50.3045 626.444 52.1965 628.948 54.2554C629.894 55.0345 630.451 55.0345 631.452 54.2554C643.472 45.0737 655.492 35.892 667.511 26.766C668.791 25.82 670.015 24.8184 671.295 23.8724C673.911 21.9247 676.137 21.9247 678.752 23.8724C691.885 33.8888 705.017 43.8495 718.15 53.9215C719.374 54.8675 720.209 55.0901 721.489 53.9772C723.659 52.0852 726.052 50.4158 728.333 48.5794C731.95 45.7415 731.95 41.9019 728.277 39.1195C716.091 29.8266 703.96 20.5892 691.773 11.3519C687.377 8.0131 682.981 4.72996 678.641 1.33552C677.416 0.445172 676.248 0 674.857 0Z" fill="#01396D"/>
</g>
</svg>
