<svg width="868" height="862" viewBox="0 0 868 862" fill="none" xmlns="http://www.w3.org/2000/svg">
<g opacity="0.3">
<path d="M0.0448103 312.859C0.0448063 290.012 0.0448023 267.166 0.0447983 244.32C0.0447982 243.738 0.0447981 243.11 0.044798 242.528C0.13439 235.226 5.82355 232.001 12.0503 235.719C23.787 242.752 35.5237 249.875 47.2156 256.997C73.8695 273.169 100.523 289.34 127.177 305.557C135.823 310.843 135.778 318.861 127.088 324.147C90.0859 346.635 53.0839 369.123 16.082 391.611C12.5431 393.761 8.86974 394.702 5.10683 392.596C1.25433 390.446 2.67062e-05 386.907 2.59465e-05 382.562C0.089615 359.357 0.0448144 336.108 0.0448103 312.859Z" fill="#01396D"/>
<path d="M75.6608 153.249C75.6608 130.403 75.6608 107.556 75.6608 84.71C75.6608 84.1277 75.6608 83.5005 75.6608 82.9181C75.7504 75.6163 81.4396 72.391 87.6663 76.1091C99.403 83.1421 111.14 90.2648 122.832 97.3874C149.486 113.559 176.14 129.731 202.793 145.947C211.439 151.233 211.394 159.251 202.704 164.537C165.702 187.025 128.7 209.513 91.698 232.001C88.1591 234.151 84.4858 235.092 80.7229 232.987C76.8704 230.836 75.6161 227.253 75.6608 222.952C75.6608 199.703 75.6608 176.453 75.6608 153.249Z" stroke="#7AC8E7" stroke-miterlimit="10"/>
<path d="M174.573 287.863C174.573 272.273 174.573 256.729 174.573 241.14C174.573 240.737 174.573 240.333 174.573 239.93C174.663 234.958 178.515 232.718 182.771 235.271C190.79 240.065 198.763 244.947 206.782 249.785C224.969 260.805 243.157 271.87 261.299 282.89C267.213 286.474 267.168 291.984 261.255 295.568C236.034 310.888 210.769 326.253 185.548 341.574C183.129 343.052 180.621 343.679 178.067 342.246C175.469 340.767 174.573 338.348 174.618 335.392C174.573 319.578 174.573 303.721 174.573 287.863Z" fill="#7AC8E7"/>
<path d="M257.894 96.8496C257.894 74.0033 257.894 51.1571 257.894 28.3108C257.894 27.7285 257.894 27.1013 257.894 26.519C257.983 19.2171 263.672 15.9918 269.899 19.7099C281.636 26.743 293.373 33.8656 305.064 40.9883C331.718 57.1598 358.372 73.3314 385.026 89.5477C393.672 94.8337 393.627 102.852 384.937 108.138C347.935 130.626 310.933 153.114 273.931 175.602C270.392 177.752 266.719 178.693 262.956 176.587C259.103 174.437 257.849 170.853 257.894 166.553C257.939 143.304 257.894 120.099 257.894 96.8496Z" fill="#01396D"/>
<path d="M432.42 71.853C432.42 56.2638 432.42 40.7194 432.42 25.1302C432.42 24.727 432.42 24.3239 432.42 23.9207C432.51 18.9483 436.363 16.7085 440.618 19.2619C448.637 24.0551 456.611 28.9379 464.629 33.7759C482.817 44.7959 501.004 55.8606 519.147 66.8806C525.06 70.4643 525.015 75.9743 519.102 79.558C493.881 94.8784 468.616 110.244 443.396 125.564C440.977 127.042 438.468 127.67 435.915 126.236C433.316 124.758 432.42 122.339 432.465 119.382C432.42 103.524 432.42 87.711 432.42 71.853Z" fill="#7AC8E7"/>
<path d="M18.2751 612.233C18.2751 589.387 18.2751 566.541 18.2751 543.694C18.2751 543.112 18.2751 542.485 18.2751 541.903C18.3647 534.601 24.0538 531.375 30.2806 535.093C42.0173 542.127 53.754 549.249 65.4459 556.372C92.0998 572.543 118.754 588.715 145.408 604.931C154.053 610.217 154.009 618.236 145.318 623.522C108.316 646.01 71.3142 668.498 34.3123 690.985C30.7733 693.136 27.1 694.076 23.3371 691.971C19.4846 689.821 18.2303 686.237 18.2751 681.937C18.2751 658.732 18.2751 635.483 18.2751 612.233Z" fill="#01396D"/>
<path d="M93.8483 452.624C93.8483 429.777 93.8483 406.931 93.8483 384.085C93.8483 383.503 93.8483 382.876 93.8483 382.293C93.9379 374.991 99.6271 371.766 105.854 375.484C117.59 382.517 129.327 389.64 141.019 396.762C167.673 412.934 194.327 429.106 220.981 445.322C229.627 450.608 229.582 458.626 220.891 463.912C183.889 486.4 146.887 508.888 109.886 531.376C106.347 533.526 102.673 534.467 98.9104 532.362C95.0579 530.211 93.8036 526.628 93.8483 522.327C93.8931 499.078 93.8483 475.828 93.8483 452.624Z" stroke="#7AC8E7" stroke-miterlimit="10"/>
<path d="M124.309 780.311C124.309 757.464 124.309 734.618 124.309 711.772C124.309 711.189 124.309 710.562 124.309 709.98C124.399 702.678 130.088 699.453 136.315 703.171C148.051 710.204 159.788 717.327 171.48 724.449C198.134 740.621 224.788 756.792 251.442 773.009C260.088 778.295 260.043 786.313 251.352 791.599C214.35 814.087 177.348 836.575 140.346 859.063C136.808 861.213 133.134 862.154 129.371 860.048C125.519 857.898 124.264 854.314 124.309 850.014C124.309 826.765 124.309 803.515 124.309 780.311Z" stroke="#7AC8E7" stroke-miterlimit="10"/>
<path d="M192.759 587.238C192.759 571.649 192.759 556.104 192.759 540.515C192.759 540.112 192.759 539.709 192.759 539.305C192.849 534.333 196.701 532.093 200.957 534.647C208.976 539.44 216.949 544.323 224.968 549.161C243.155 560.181 261.343 571.245 279.485 582.265C285.399 585.849 285.354 591.359 279.441 594.943C254.22 610.263 228.955 625.628 203.734 640.949C201.315 642.427 198.807 643.054 196.253 641.621C193.655 640.143 192.759 637.723 192.804 634.767C192.804 618.954 192.759 603.096 192.759 587.238Z" fill="#7AC8E7"/>
<path d="M584.103 238.855C584.103 216.008 584.103 193.162 584.103 170.316C584.103 169.734 584.103 169.106 584.103 168.524C584.192 161.222 589.882 157.997 596.108 161.715C607.845 168.748 619.582 175.871 631.273 182.993C657.927 199.165 684.581 215.336 711.235 231.553C719.881 236.839 719.836 244.857 711.146 250.143C674.144 272.631 637.142 295.119 600.14 317.607C596.601 319.757 592.928 320.698 589.165 318.593C585.312 316.442 584.058 312.859 584.103 308.558C584.148 285.309 584.103 262.059 584.103 238.855Z" fill="#01396D"/>
<path d="M659.718 79.1997C659.718 56.3534 659.718 33.5072 659.718 10.6609C659.718 10.0786 659.718 9.45143 659.718 8.86908C659.808 1.56724 665.497 -1.65811 671.723 2.06C683.46 9.09306 695.197 16.2157 706.889 23.3384C733.543 39.5099 760.197 55.6815 786.851 71.8978C795.496 77.1838 795.452 85.2024 786.761 90.4884C749.759 112.976 712.757 135.464 675.755 157.952C672.216 160.102 668.543 161.043 664.78 158.938C660.927 156.787 659.673 153.204 659.718 148.903C659.763 125.698 659.718 102.449 659.718 79.1997Z" stroke="#7AC8E7" stroke-miterlimit="10"/>
<path d="M758.631 213.813C758.631 198.224 758.631 182.68 758.631 167.091C758.631 166.688 758.631 166.284 758.631 165.881C758.72 160.909 762.573 158.669 766.829 161.222C774.847 166.016 782.821 170.898 790.84 175.736C809.027 186.756 827.214 197.821 845.357 208.841C851.27 212.425 851.225 217.935 845.312 221.518C820.092 236.839 794.826 252.204 769.606 267.525C767.187 269.003 764.678 269.63 762.125 268.196C759.527 266.718 758.631 264.299 758.676 261.343C758.676 245.529 758.631 229.671 758.631 213.813Z" fill="#7AC8E7"/>
<path d="M602.336 538.23C602.336 515.384 602.336 492.537 602.336 469.691C602.336 469.109 602.336 468.482 602.336 467.899C602.425 460.598 608.114 457.372 614.341 461.09C626.078 468.123 637.814 475.246 649.506 482.369C676.16 498.54 702.814 514.712 729.468 530.928C738.114 536.214 738.069 544.233 729.379 549.519C692.377 572.007 655.375 594.494 618.373 616.982C614.834 619.133 611.161 620.073 607.398 617.968C603.545 615.818 602.291 612.234 602.336 607.933C602.38 584.684 602.336 561.435 602.336 538.23Z" fill="#01396D"/>
<path d="M677.95 378.575C677.95 355.728 677.95 332.882 677.95 310.036C677.95 309.454 677.95 308.826 677.95 308.244C678.04 300.942 683.729 297.717 689.956 301.435C701.693 308.468 713.429 315.591 725.121 322.713C751.775 338.885 778.429 355.056 805.083 371.273C813.729 376.559 813.684 384.577 804.993 389.863C767.991 412.351 730.99 434.839 693.988 457.327C690.449 459.477 686.775 460.418 683.012 458.313C679.16 456.162 677.906 452.579 677.95 448.278C677.995 425.073 677.95 401.824 677.95 378.575Z" stroke="#7AC8E7" stroke-miterlimit="10"/>
<path d="M677.95 696.317C677.95 673.47 677.95 650.624 677.95 627.778C677.95 627.196 677.95 626.568 677.95 625.986C678.04 618.684 683.729 615.459 689.956 619.177C701.693 626.21 713.429 633.333 725.121 640.455C751.775 656.627 778.429 672.798 805.083 689.015C813.729 694.301 813.684 702.319 804.993 707.605C767.991 730.093 730.99 752.581 693.988 775.069C690.449 777.219 686.775 778.16 683.012 776.054C679.16 773.904 677.906 770.321 677.95 766.02C677.995 742.815 677.95 719.566 677.95 696.317Z" stroke="#7AC8E7" stroke-miterlimit="10"/>
<path d="M776.861 513.188C776.861 497.599 776.861 482.055 776.861 466.466C776.861 466.063 776.861 465.659 776.861 465.256C776.951 460.284 780.803 458.044 785.059 460.597C793.078 465.391 801.051 470.273 809.07 475.111C827.257 486.131 845.445 497.196 863.587 508.216C869.501 511.8 869.456 517.31 863.543 520.893C838.322 536.214 813.057 551.579 787.836 566.9C785.417 568.378 782.909 569.005 780.355 567.572C777.757 566.093 776.861 563.674 776.906 560.718C776.906 544.904 776.861 529.046 776.861 513.188Z" fill="#7AC8E7"/>
<path d="M318.459 413.158C318.459 390.312 318.459 367.465 318.459 344.619C318.459 344.037 318.459 343.41 318.459 342.827C318.549 335.526 324.238 332.3 330.465 336.018C342.201 343.051 353.938 350.174 365.63 357.297C392.284 373.468 418.938 389.64 445.592 405.856C454.238 411.142 454.193 419.161 445.502 424.447C408.5 446.934 371.498 469.422 334.496 491.91C330.957 494.061 327.284 495.001 323.521 492.896C319.669 490.746 318.414 487.162 318.459 482.861C318.504 459.612 318.459 436.407 318.459 413.158Z" fill="#01396D"/>
<path d="M394.074 253.503C394.074 230.657 394.074 207.811 394.074 184.964C394.074 184.382 394.074 183.755 394.074 183.173C394.164 175.871 399.853 172.645 406.08 176.363C417.817 183.397 429.553 190.519 441.245 197.642C467.899 213.813 494.553 229.985 521.207 246.201C529.853 251.487 529.808 259.506 521.117 264.792C484.115 287.28 447.114 309.768 410.112 332.256C406.573 334.406 402.899 335.346 399.136 333.241C395.284 331.091 394.03 327.507 394.074 323.207C394.119 300.002 394.074 276.753 394.074 253.503Z" stroke="#7AC8E7" stroke-miterlimit="10"/>
<path d="M492.984 388.116C492.984 372.527 492.984 356.982 492.984 341.393C492.984 340.99 492.984 340.587 492.984 340.184C493.074 335.211 496.926 332.971 501.182 335.525C509.201 340.318 517.174 345.201 525.193 350.039C543.38 361.059 561.568 372.124 579.711 383.144C585.624 386.727 585.579 392.237 579.666 395.821C554.445 411.141 529.18 426.507 503.96 441.827C501.541 443.305 499.032 443.932 496.479 442.499C493.88 441.021 492.984 438.602 493.029 435.645C493.029 419.832 492.984 403.974 492.984 388.116Z" fill="#7AC8E7"/>
<path d="M339.648 731.885C339.648 709.039 339.648 686.193 339.648 663.347C339.648 662.764 339.648 662.137 339.648 661.555C339.737 654.253 345.426 651.027 351.653 654.746C363.39 661.779 375.127 668.901 386.818 676.024C413.472 692.195 440.126 708.367 466.78 724.583C475.426 729.869 475.381 737.888 466.691 743.174C429.689 765.662 392.687 788.15 355.685 810.638C352.146 812.788 348.473 813.729 344.71 811.623C340.857 809.473 339.603 805.889 339.648 801.589C339.692 778.384 339.648 755.135 339.648 731.885Z" fill="#01396D"/>
<path d="M415.263 572.275C415.263 549.429 415.263 526.582 415.263 503.736C415.263 503.154 415.263 502.527 415.263 501.944C415.353 494.642 421.042 491.417 427.269 495.135C439.006 502.168 450.742 509.291 462.434 516.414C489.088 532.585 515.742 548.757 542.396 564.973C551.042 570.259 550.997 578.278 542.306 583.564C505.304 606.051 468.303 628.539 431.301 651.027C427.762 653.177 424.088 654.118 420.325 652.013C416.473 649.862 415.219 646.279 415.263 641.978C415.308 618.729 415.263 595.479 415.263 572.275Z" stroke="#7AC8E7" stroke-miterlimit="10"/>
<path d="M514.174 706.889C514.174 691.299 514.174 675.755 514.174 660.166C514.174 659.763 514.174 659.359 514.174 658.956C514.264 653.984 518.116 651.744 522.372 654.298C530.391 659.091 538.364 663.974 546.383 668.812C564.57 679.832 582.758 690.896 600.9 701.916C606.814 705.5 606.769 711.01 600.856 714.594C575.635 729.914 550.37 745.279 525.15 760.6C522.73 762.078 520.222 762.705 517.668 761.272C515.07 759.793 514.174 757.374 514.219 754.418C514.219 738.56 514.174 722.747 514.174 706.889Z" fill="#7AC8E7"/>
</g>
</svg>
