<svg width="288" height="306" viewBox="0 0 288 306" fill="none" xmlns="http://www.w3.org/2000/svg">
<g opacity="0.7">
<path d="M298.417 300.302C298.417 309.241 298.417 318.181 298.417 327.121C298.417 327.349 298.417 327.594 298.417 327.822C298.374 330.679 295.591 331.941 292.545 330.486C286.805 327.734 281.064 324.947 275.345 322.16C262.308 315.832 249.271 309.504 236.234 303.159C232.005 301.091 232.027 297.953 236.278 295.885C254.376 287.085 272.475 278.286 290.573 269.486C292.304 268.645 294.101 268.277 295.941 269.1C297.826 269.942 298.439 271.344 298.417 273.027C298.396 282.124 298.417 291.204 298.417 300.302Z" fill="#01396D"/>
<path d="M213.053 310.082C213.053 316.182 213.053 322.265 213.053 328.365C213.053 328.523 213.053 328.68 213.053 328.838C213.009 330.784 211.125 331.66 209.043 330.661C205.121 328.786 201.221 326.875 197.299 324.982C188.403 320.67 179.507 316.34 170.633 312.028C167.741 310.626 167.763 308.47 170.655 307.067C182.991 301.073 195.349 295.06 207.685 289.065C208.868 288.487 210.095 288.242 211.344 288.802C212.615 289.381 213.053 290.327 213.031 291.484C213.053 297.69 213.053 303.877 213.053 310.082Z" fill="#7AC8E7"/>
<path d="M330.276 108.413C330.276 114.513 330.276 120.596 330.276 126.696C330.276 126.853 330.276 127.011 330.276 127.169C330.233 129.115 328.348 129.991 326.267 128.992C322.345 127.116 318.444 125.206 314.522 123.312C305.626 119 296.731 114.671 287.857 110.359C284.964 108.956 284.986 106.8 287.879 105.398C300.214 99.4032 312.572 93.3908 324.908 87.3959C326.091 86.8175 327.318 86.5721 328.567 87.133C329.838 87.7114 330.276 88.658 330.254 89.8149C330.254 96.0026 330.276 102.208 330.276 108.413Z" fill="#7AC8E7"/>
<path d="M138.863 244.734C138.863 253.674 138.863 262.614 138.863 271.553C138.863 271.781 138.863 272.027 138.863 272.255C138.819 275.112 136.036 276.374 132.991 274.919C127.25 272.167 121.509 269.38 115.79 266.593C102.753 260.265 89.7163 253.937 76.6792 247.592C72.4504 245.523 72.4723 242.386 76.7231 240.317C94.8216 231.518 112.92 222.718 131.019 213.919C132.75 213.077 134.546 212.709 136.387 213.533C138.271 214.374 138.885 215.777 138.863 217.46C138.841 226.557 138.863 235.654 138.863 244.734Z" fill="#01396D"/>
<path d="M101.876 307.208C101.876 316.147 101.876 325.087 101.876 334.027C101.876 334.254 101.876 334.5 101.876 334.728C101.833 337.585 99.0499 338.847 96.0043 337.392C90.2636 334.64 84.5229 331.853 78.8041 329.066C65.767 322.738 52.73 316.41 39.6929 310.065C35.4641 307.996 35.486 304.859 39.7367 302.79C57.8352 293.991 75.9337 285.191 94.0322 276.392C95.7632 275.55 97.5599 275.182 99.4005 276.006C101.285 276.848 101.898 278.25 101.876 279.933C101.854 289.013 101.876 298.11 101.876 307.208Z" stroke="#7AC8E7" stroke-miterlimit="10"/>
<path d="M53.4961 254.533C53.4961 260.633 53.4961 266.716 53.4961 272.816C53.4961 272.973 53.4961 273.131 53.4961 273.289C53.4523 275.235 51.568 276.111 49.4864 275.112C45.5643 273.236 41.6642 271.326 37.7421 269.433C28.8462 265.12 19.9503 260.791 11.0764 256.479C8.1841 255.076 8.20603 252.92 11.0983 251.518C23.4342 245.523 35.792 239.511 48.1279 233.516C49.3111 232.938 50.5381 232.692 51.787 233.253C53.0579 233.832 53.4961 234.778 53.4742 235.935C53.4742 242.123 53.4961 248.328 53.4961 254.533Z" fill="#7AC8E7"/>
<path d="M129.943 127.589C129.943 136.529 129.943 145.469 129.943 154.408C129.943 154.636 129.943 154.882 129.943 155.11C129.899 157.967 127.116 159.229 124.071 157.774C118.33 155.022 112.589 152.235 106.87 149.448C93.8334 143.12 80.7964 136.792 67.7594 130.447C63.5305 128.378 63.5524 125.24 67.8032 123.172C85.9017 114.373 104 105.573 122.099 96.7737C123.83 95.9323 125.626 95.5642 127.467 96.3881C129.351 97.2295 129.965 98.6318 129.943 100.315C129.921 109.412 129.943 118.509 129.943 127.589Z" fill="#01396D"/>
<path d="M92.9584 190.063C92.9584 199.002 92.9584 207.942 92.9584 216.882C92.9584 217.109 92.9584 217.355 92.9584 217.583C92.9146 220.44 90.1319 221.702 87.0863 220.247C81.3456 217.495 75.6049 214.708 69.8861 211.921C56.8491 205.593 43.812 199.265 30.7749 192.92C26.5461 190.851 26.568 187.714 30.8188 185.645C48.9173 176.846 67.0158 168.046 85.1143 159.247C86.8453 158.405 88.6419 158.037 90.4825 158.861C92.3668 159.703 92.9803 161.105 92.9584 162.788C92.9365 171.868 92.9584 180.965 92.9584 190.063Z" stroke="#7AC8E7" stroke-miterlimit="10"/>
<path d="M92.9584 65.7305C92.9584 74.6702 92.9584 83.6099 92.9584 92.5496C92.9584 92.7774 92.9584 93.0229 92.9584 93.2507C92.9146 96.1079 90.1319 97.37 87.0863 95.9151C81.3456 93.1631 75.6049 90.376 69.8861 87.5889C56.8491 81.261 43.812 74.9331 30.7749 68.5877C26.5461 66.5193 26.568 63.3816 30.8188 61.3132C48.9173 52.5138 67.0158 43.7143 85.1143 34.9148C86.8453 34.0735 88.6419 33.7054 90.4825 34.5292C92.3668 35.3706 92.9803 36.7729 92.9584 38.4556C92.9365 47.5356 92.9584 56.633 92.9584 65.7305Z" stroke="#7AC8E7" stroke-miterlimit="10"/>
<path d="M44.5781 137.388C44.5781 143.488 44.5781 149.571 44.5781 155.671C44.5781 155.828 44.5781 155.986 44.5781 156.144C44.5343 158.09 42.65 158.966 40.5684 157.967C36.6463 156.091 32.7462 154.181 28.8241 152.288C19.9282 147.975 11.0324 143.646 2.15839 139.334C-0.733869 137.931 -0.711968 135.775 2.18029 134.373C14.5162 128.378 26.874 122.366 39.2099 116.371C40.3931 115.793 41.6201 115.547 42.8691 116.108C44.1399 116.687 44.5781 117.633 44.5562 118.79C44.5562 124.978 44.5781 131.183 44.5781 137.388Z" fill="#7AC8E7"/>
<path d="M268.793 176.53C268.793 185.469 268.793 194.409 268.793 203.349C268.793 203.577 268.793 203.822 268.793 204.05C268.75 206.907 265.967 208.169 262.921 206.714C257.181 203.962 251.44 201.175 245.721 198.388C232.684 192.06 219.647 185.732 206.61 179.387C202.381 177.319 202.403 174.181 206.654 172.113C224.752 163.313 242.851 154.514 260.949 145.714C262.68 144.873 264.477 144.505 266.317 145.328C268.202 146.17 268.815 147.572 268.793 149.255C268.771 158.352 268.793 167.432 268.793 176.53Z" fill="#01396D"/>
<path d="M231.809 239.002C231.809 247.942 231.809 256.882 231.809 265.822C231.809 266.049 231.809 266.295 231.809 266.523C231.765 269.38 228.982 270.642 225.937 269.187C220.196 266.435 214.455 263.648 208.737 260.861C195.7 254.533 182.663 248.205 169.626 241.86C165.397 239.791 165.419 236.654 169.669 234.585C187.768 225.786 205.866 216.986 223.965 208.187C225.696 207.345 227.493 206.977 229.333 207.801C231.217 208.643 231.831 210.045 231.809 211.728C231.787 220.808 231.809 229.905 231.809 239.002Z" stroke="#7AC8E7" stroke-miterlimit="10"/>
<path d="M183.43 186.329C183.43 192.429 183.43 198.512 183.43 204.612C183.43 204.769 183.43 204.927 183.43 205.085C183.386 207.031 181.502 207.907 179.42 206.908C175.498 205.032 171.598 203.122 167.676 201.228C158.78 196.916 149.884 192.587 141.01 188.275C138.118 186.872 138.14 184.716 141.032 183.314C153.368 177.319 165.726 171.307 178.061 165.312C179.245 164.733 180.472 164.488 181.721 165.049C182.991 165.627 183.43 166.574 183.408 167.731C183.408 173.919 183.43 180.124 183.43 186.329Z" fill="#7AC8E7"/>
<path d="M258.43 51.8125C258.43 60.7522 258.43 69.6919 258.43 78.6316C258.43 78.8595 258.43 79.1049 258.43 79.3327C258.386 82.1899 255.604 83.452 252.558 81.9971C246.817 79.2451 241.077 76.458 235.358 73.6709C222.321 67.343 209.284 61.0151 196.247 54.6697C192.018 52.6013 192.04 49.4636 196.29 47.3952C214.389 38.5958 232.487 29.7963 250.586 20.9968C252.317 20.1555 254.114 19.7874 255.954 20.6112C257.839 21.4526 258.452 22.8549 258.43 24.5377C258.408 33.6176 258.43 42.7151 258.43 51.8125Z" fill="#01396D"/>
<path d="M221.445 114.268C221.445 123.208 221.445 132.147 221.445 141.087C221.445 141.315 221.445 141.56 221.445 141.788C221.401 144.646 218.618 145.908 215.573 144.453C209.832 141.701 204.091 138.914 198.372 136.127C185.335 129.799 172.298 123.471 159.261 117.125C155.032 115.057 155.054 111.919 159.305 109.851C177.404 101.051 195.502 92.2519 213.601 83.4524C215.332 82.611 217.128 82.2429 218.969 83.0668C220.853 83.9082 221.467 85.3105 221.445 86.9932C221.423 96.0907 221.445 105.188 221.445 114.268Z" stroke="#7AC8E7" stroke-miterlimit="10"/>
<path d="M173.065 61.5937C173.065 67.6937 173.065 73.7762 173.065 79.8762C173.065 80.034 173.065 80.1917 173.065 80.3495C173.022 82.2952 171.137 83.1716 169.056 82.1725C165.134 80.2969 161.233 78.3863 157.311 76.4931C148.416 72.1811 139.52 67.8514 130.646 63.5393C127.753 62.137 127.775 59.981 130.668 58.5787C143.003 52.5838 155.361 46.5715 167.697 40.5766C168.88 39.9981 170.107 39.7527 171.356 40.3136C172.627 40.8921 173.065 41.8387 173.044 42.9956C173.044 49.2008 173.065 55.3885 173.065 61.5937Z" fill="#7AC8E7"/>
</g>
</svg>
