<svg width="509" height="760" viewBox="0 0 509 760" fill="none" xmlns="http://www.w3.org/2000/svg">
<g opacity="0.3">
<path d="M-28.8857 85.8443C-28.8857 65.7247 -28.8857 45.6051 -28.8857 25.4854C-28.8857 24.9726 -28.8857 24.4203 -28.8857 23.9074C-28.8068 17.477 -23.7966 14.6366 -18.313 17.911C-7.97706 24.1047 2.35891 30.3773 12.6554 36.6499C36.1283 50.8914 59.6012 65.1329 83.0742 79.4139C90.688 84.0691 90.6486 91.1307 82.9953 95.7858C50.4093 115.59 17.8234 135.394 -14.7625 155.198C-17.8791 157.091 -21.114 157.92 -24.4278 156.066C-27.8205 154.172 -28.9252 151.016 -28.8857 147.229C-28.8463 126.754 -28.8857 106.319 -28.8857 85.8443Z" fill="#01396D"/>
<path d="M124.812 63.8307C124.812 50.102 124.812 36.4128 124.812 22.6841C124.812 22.3291 124.812 21.974 124.812 21.6189C124.891 17.24 128.284 15.2675 132.032 17.5161C139.094 21.7373 146.116 26.0374 153.177 30.298C169.194 40.0028 185.211 49.747 201.188 59.4518C206.396 62.6078 206.356 67.4602 201.149 70.6162C178.938 84.1082 156.688 97.6396 134.478 111.132C132.348 112.433 130.138 112.986 127.89 111.723C125.602 110.422 124.813 108.291 124.852 105.687C124.813 91.7221 124.813 77.7961 124.812 63.8307Z" fill="#7AC8E7"/>
<path d="M258.392 210.903C258.392 190.783 258.392 170.664 258.392 150.544C258.392 150.031 258.392 149.479 258.392 148.966C258.471 142.536 263.481 139.695 268.964 142.97C279.3 149.163 289.636 155.436 299.933 161.708C323.406 175.95 346.879 190.192 370.352 204.473C377.965 209.128 377.926 216.189 370.273 220.844C337.687 240.648 305.101 260.452 272.515 280.256C269.398 282.15 266.163 282.979 262.85 281.124C259.457 279.231 258.352 276.075 258.392 272.288C258.431 251.813 258.392 231.338 258.392 210.903Z" fill="#01396D"/>
<path d="M324.981 70.3014C324.981 50.1817 324.981 30.0621 324.981 9.94247C324.981 9.42961 324.981 8.87731 324.981 8.36446C325.06 1.93407 330.071 -0.906353 335.554 2.36802C345.89 8.56171 356.226 14.8343 366.523 21.1069C389.996 35.3484 413.468 49.59 436.941 63.871C444.555 68.5261 444.516 75.5877 436.862 80.2428C404.277 100.047 371.691 119.851 339.105 139.655C335.988 141.549 332.753 142.377 329.439 140.523C326.047 138.629 324.942 135.473 324.981 131.686C325.021 111.251 324.981 90.776 324.981 70.3014Z" stroke="#7AC8E7" stroke-miterlimit="10"/>
<path d="M412.092 188.85C412.092 175.122 412.092 161.432 412.092 147.704C412.092 147.349 412.092 146.994 412.092 146.638C412.171 142.26 415.563 140.287 419.311 142.536C426.373 146.757 433.395 151.057 440.456 155.318C456.473 165.022 472.49 174.767 488.468 184.471C493.675 187.627 493.635 192.48 488.428 195.636C466.218 209.128 443.968 222.659 421.757 236.151C419.627 237.453 417.418 238.005 415.169 236.743C412.881 235.441 412.092 233.311 412.131 230.707C412.131 216.781 412.092 202.816 412.092 188.85Z" fill="#7AC8E7"/>
<path d="M274.448 474.548C274.448 454.429 274.448 434.309 274.448 414.19C274.448 413.677 274.448 413.124 274.448 412.612C274.527 406.181 279.537 403.341 285.021 406.615C295.357 412.809 305.693 419.081 315.989 425.354C339.462 439.596 362.935 453.837 386.408 468.118C394.022 472.773 393.983 479.835 386.329 484.49C353.743 504.294 321.157 524.098 288.571 543.902C285.455 545.796 282.22 546.624 278.906 544.77C275.513 542.876 274.409 539.72 274.448 535.933C274.488 515.458 274.448 494.984 274.448 474.548Z" fill="#01396D"/>
<path d="M341.04 333.947C341.04 313.827 341.04 293.708 341.04 273.588C341.04 273.075 341.04 272.523 341.04 272.01C341.119 265.58 346.129 262.739 351.613 266.014C361.949 272.207 372.285 278.48 382.581 284.752C406.054 298.994 429.527 313.235 453 327.516C460.614 332.172 460.574 339.233 452.921 343.888C420.335 363.692 387.749 383.496 355.163 403.3C352.047 405.194 348.812 406.023 345.498 404.168C342.105 402.275 341.001 399.119 341.04 395.331C341.08 374.896 341.04 354.422 341.04 333.947Z" stroke="#7AC8E7" stroke-miterlimit="10"/>
<path d="M341.04 613.768C341.04 593.649 341.04 573.529 341.04 553.409C341.04 552.896 341.04 552.344 341.04 551.831C341.119 545.401 346.129 542.56 351.613 545.835C361.949 552.029 372.285 558.301 382.581 564.574C406.054 578.815 429.527 593.057 453 607.338C460.614 611.993 460.574 619.054 452.921 623.71C420.335 643.514 387.749 663.318 355.163 683.122C352.047 685.015 348.812 685.844 345.498 683.99C342.105 682.096 341.001 678.94 341.04 675.153C341.08 654.718 341.04 634.243 341.04 613.768Z" stroke="#7AC8E7" stroke-miterlimit="10"/>
<path d="M428.146 452.496C428.146 438.767 428.146 425.078 428.146 411.349C428.146 410.994 428.146 410.639 428.146 410.284C428.225 405.905 431.618 403.932 435.366 406.181C442.427 410.402 449.45 414.702 456.511 418.963C472.528 428.668 488.545 438.412 504.522 448.117C509.73 451.273 509.69 456.125 504.483 459.281C482.272 472.773 460.022 486.305 437.812 499.797C435.681 501.098 433.472 501.651 431.224 500.388C428.935 499.087 428.146 496.956 428.186 494.353C428.186 480.427 428.146 466.461 428.146 452.496Z" fill="#7AC8E7"/>
<path d="M24.4522 364.403C24.4522 344.283 24.4522 324.164 24.4522 304.044C24.4522 303.531 24.4522 302.979 24.4522 302.466C24.5311 296.036 29.5413 293.195 35.0249 296.47C45.3608 302.663 55.6968 308.936 65.9933 315.208C89.4662 329.45 112.939 343.692 136.412 357.973C144.026 362.628 143.986 369.689 136.333 374.344C103.747 394.148 71.1613 413.952 38.5754 433.756C35.4588 435.65 32.2239 436.479 28.9101 434.624C25.5174 432.731 24.4127 429.575 24.4522 425.788C24.4916 405.313 24.4522 384.878 24.4522 364.403Z" fill="#01396D"/>
<path d="M91.044 223.802C91.044 203.683 91.044 183.563 91.044 163.443C91.044 162.931 91.044 162.378 91.044 161.865C91.1229 155.435 96.1331 152.595 101.617 155.869C111.953 162.063 122.289 168.335 132.585 174.608C156.058 188.849 179.531 203.091 203.004 217.372C210.618 222.027 210.578 229.089 202.925 233.744C170.339 253.548 137.753 273.352 105.167 293.156C102.051 295.05 98.8157 295.878 95.5019 294.024C92.1091 292.13 91.0045 288.974 91.044 285.187C91.0834 264.752 91.044 244.277 91.044 223.802Z" stroke="#7AC8E7" stroke-miterlimit="10"/>
<path d="M178.148 342.35C178.148 328.622 178.148 314.932 178.148 301.204C178.148 300.849 178.148 300.494 178.148 300.138C178.227 295.76 181.62 293.787 185.368 296.036C192.429 300.257 199.452 304.557 206.513 308.818C222.53 318.522 238.547 328.267 254.524 337.971C259.732 341.127 259.692 345.98 254.485 349.136C232.274 362.628 210.024 376.159 187.814 389.651C185.683 390.953 183.474 391.505 181.226 390.243C178.937 388.941 178.148 386.811 178.188 384.207C178.188 370.281 178.148 356.316 178.148 342.35Z" fill="#7AC8E7"/>
<path d="M43.1104 645.092C43.1104 624.973 43.1104 604.853 43.1104 584.734C43.1104 584.221 43.1104 583.668 43.1104 583.155C43.1893 576.725 48.1995 573.885 53.6831 577.159C64.019 583.353 74.355 589.625 84.6515 595.898C108.124 610.139 131.597 624.381 155.07 638.662C162.684 643.317 162.645 650.379 154.991 655.034C122.405 674.838 89.8195 694.642 57.2336 714.446C54.117 716.34 50.8821 717.168 47.5683 715.314C44.1755 713.42 43.0709 710.264 43.1104 706.477C43.1498 686.042 43.1104 665.567 43.1104 645.092Z" fill="#01396D"/>
<path d="M109.704 504.53C109.704 484.41 109.704 464.291 109.704 444.171C109.704 443.658 109.704 443.106 109.704 442.593C109.783 436.163 114.793 433.322 120.277 436.597C130.613 442.79 140.949 449.063 151.245 455.335C174.718 469.577 198.191 483.818 221.664 498.099C229.278 502.755 229.238 509.816 221.585 514.471C188.999 534.275 156.413 554.079 123.827 573.883C120.711 575.777 117.476 576.605 114.162 574.751C110.769 572.858 109.665 569.702 109.704 565.914C109.744 545.44 109.704 524.965 109.704 504.53Z" stroke="#7AC8E7" stroke-miterlimit="10"/>
<path d="M196.809 623.079C196.809 609.35 196.809 595.661 196.809 581.932C196.809 581.577 196.809 581.222 196.809 580.867C196.887 576.488 200.28 574.516 204.028 576.764C211.09 580.985 218.112 585.285 225.173 589.546C241.19 599.251 257.207 608.995 273.184 618.7C278.392 621.856 278.352 626.708 273.145 629.864C250.934 643.356 228.684 656.888 206.474 670.38C204.344 671.681 202.134 672.234 199.886 670.971C197.598 669.67 196.809 667.539 196.848 664.935C196.848 650.97 196.809 637.044 196.809 623.079Z" fill="#7AC8E7"/>
</g>
</svg>
