<svg width="115" height="90" viewBox="0 0 115 90" fill="none" xmlns="http://www.w3.org/2000/svg">
<path d="M0.802734 50.6112C0.802734 50.6112 10.5108 44.9888 25.0729 46.3944C25.0729 46.3944 65.5169 57.6393 71.992 57.6393C71.992 57.6393 80.079 66.0729 67.138 70.2897L41.2561 71.6953C41.2561 71.6953 38.0232 74.5066 41.2561 75.9122L70.3803 74.5066L101.116 57.6393C101.116 57.6393 110.824 53.4225 114.057 60.4505C114.057 60.4505 93.02 81.5346 78.4672 85.7608C78.4672 85.7608 39.6349 92.7888 29.9269 87.1664C29.9269 87.1664 13.7437 75.9215 0.802734 77.3271V50.6112Z" fill="#81E6C9"/>
<path d="M69.7706 46.385C82.5795 46.385 92.9632 36.0014 92.9632 23.1925C92.9632 10.3836 82.5795 0 69.7706 0C56.9618 0 46.5781 10.3836 46.5781 23.1925C46.5781 36.0014 56.9618 46.385 69.7706 46.385Z" fill="#81E6C9"/>
<path d="M70.4741 40.7626C80.5659 40.7626 88.747 32.5815 88.747 22.4897C88.747 12.3979 80.5659 4.2168 70.4741 4.2168C60.3822 4.2168 52.2012 12.3979 52.2012 22.4897C52.2012 32.5815 60.3822 40.7626 70.4741 40.7626Z" fill="#81E6C9"/>
<path d="M71.1678 14.2486L62.2227 23.1937L71.1678 32.1389L80.1129 23.1937L71.1678 14.2486Z" fill="#81E6C9"/>
</svg>
