<svg width="97" height="104" viewBox="0 0 97 104" fill="none" xmlns="http://www.w3.org/2000/svg">
<path d="M82.0305 36.6199C88.5033 36.6199 93.7505 31.3727 93.7505 24.8999C93.7505 18.4272 88.5033 13.1799 82.0305 13.1799C75.5578 13.1799 70.3105 18.4272 70.3105 24.8999C70.3105 31.3727 75.5578 36.6199 82.0305 36.6199Z" fill="#81E6C9"/>
<path d="M64.4492 45.51L71.3592 39.76H90.9192L96.6792 46.66V67.38L92.0692 69.68L88.6192 95H73.6592L72.5092 70.83L64.4492 67.38V45.51Z" fill="#81E6C9"/>
<path d="M14.6497 36.6199C21.1225 36.6199 26.3697 31.3727 26.3697 24.8999C26.3697 18.4272 21.1225 13.1799 14.6497 13.1799C8.17691 13.1799 2.92969 18.4272 2.92969 24.8999C2.92969 31.3727 8.17691 36.6199 14.6497 36.6199Z" fill="#81E6C9"/>
<path d="M32.23 45.51L25.32 39.76H5.75L0 46.66V67.38L4.6 69.68L8.06 95H23.02L24.17 70.83L32.23 67.38V45.51Z" fill="#81E6C9"/>
<path d="M48.3395 29.3C56.4304 29.3 62.9895 22.741 62.9895 14.65C62.9895 6.55902 56.4304 0 48.3395 0C40.2485 0 33.6895 6.55902 33.6895 14.65C33.6895 22.741 40.2485 29.3 48.3395 29.3Z" fill="#81E6C9"/>
<path d="M27.8301 42.4799L36.6201 33.6899H61.5201L68.8501 42.4799V68.8399L62.9901 71.7699L58.5901 104H39.5501L38.0801 73.2399L27.8301 68.8399V42.4799Z" fill="#81E6C9"/>
</svg>
