<svg width="250" height="450" viewBox="0 0 250 450" fill="none" xmlns="http://www.w3.org/2000/svg">
<g opacity="0.7">
<path d="M308.066 51.1452C308.066 39.2539 308.066 27.3626 308.066 15.4713C308.066 15.1682 308.066 14.8418 308.066 14.5386C308.02 10.7381 305.059 9.05932 301.818 10.9946C295.709 14.6552 289.6 18.3625 283.514 22.0698C269.641 30.487 255.768 38.9041 241.895 47.3446C237.395 50.0959 237.418 54.2695 241.941 57.0209C261.201 68.7256 280.46 80.4304 299.719 92.1352C301.561 93.2543 303.473 93.744 305.432 92.6481C307.437 91.5289 308.09 89.6636 308.066 87.4253C308.043 75.3241 308.066 63.2463 308.066 51.1452Z" fill="#01396D"/>
<path d="M217.227 38.1345C217.227 30.0205 217.227 21.9297 217.227 13.8157C217.227 13.6058 217.227 13.396 217.227 13.1861C217.181 10.598 215.175 9.43221 212.96 10.7612C208.787 13.2561 204.637 15.7975 200.463 18.3157C190.996 24.0515 181.53 29.8106 172.087 35.5464C169.009 37.4117 169.033 40.2796 172.11 42.1449C185.237 50.1191 198.388 58.1166 211.515 66.0907C212.774 66.8601 214.08 67.1866 215.409 66.4405C216.761 65.671 217.227 64.4119 217.204 62.8731C217.227 54.6191 217.227 46.3885 217.227 38.1345Z" fill="#7AC8E7"/>
<path d="M138.278 125.058C138.278 113.167 138.278 101.276 138.278 89.3844C138.278 89.0813 138.278 88.7548 138.278 88.4517C138.231 84.6512 135.27 82.9724 132.029 84.9077C125.92 88.5683 119.811 92.2756 113.726 95.9829C99.8528 104.4 85.9796 112.817 72.1064 121.258C67.6064 124.009 67.6297 128.183 72.153 130.934C91.4123 142.639 110.671 154.343 129.931 166.048C131.773 167.167 133.685 167.657 135.643 166.561C137.648 165.442 138.301 163.577 138.278 161.338C138.255 149.237 138.278 137.136 138.278 125.058Z" fill="#01396D"/>
<path d="M98.9205 41.9591C98.9205 30.0678 98.9205 18.1766 98.9205 6.28526C98.9205 5.98215 98.9205 5.65572 98.9205 5.35261C98.8739 1.55206 95.9128 -0.126711 92.6718 1.80854C86.5629 5.46919 80.4541 9.17647 74.3685 12.8838C60.4954 21.3009 46.6222 29.7181 32.749 38.1586C28.249 40.9099 28.2723 45.0835 32.7956 47.8348C52.0549 59.5396 71.3141 71.2444 90.5733 82.9491C92.4153 84.0683 94.3273 84.5579 96.2858 83.4621C98.291 82.3429 98.9438 80.4776 98.9205 78.2392C98.8972 66.1614 98.9205 54.0603 98.9205 41.9591Z" stroke="#7AC8E7" stroke-miterlimit="10"/>
<path d="M47.437 112.024C47.437 103.91 47.437 95.8194 47.437 87.7053C47.437 87.4955 47.437 87.2856 47.437 87.0758C47.3904 84.4877 45.3852 83.3219 43.1702 84.6509C38.9966 87.1457 34.8463 89.6872 30.6726 92.2054C21.2062 97.9411 11.7398 103.7 2.29672 109.436C-0.78103 111.301 -0.757692 114.169 2.32006 116.035C15.4471 124.009 28.5975 132.006 41.7245 139.98C42.9836 140.75 44.2893 141.076 45.6183 140.33C46.9707 139.561 47.437 138.302 47.4137 136.763C47.4137 128.532 47.437 120.278 47.437 112.024Z" fill="#7AC8E7"/>
<path d="M128.787 280.881C128.787 268.989 128.787 257.098 128.787 245.207C128.787 244.904 128.787 244.577 128.787 244.274C128.741 240.473 125.78 238.795 122.539 240.73C116.43 244.391 110.321 248.098 104.235 251.805C90.3623 260.222 76.4891 268.639 62.616 277.08C58.1159 279.831 58.1392 284.005 62.6626 286.756C81.9218 298.461 101.181 310.166 120.44 321.871C122.282 322.99 124.194 323.479 126.153 322.383C128.158 321.264 128.811 319.399 128.787 317.161C128.764 305.059 128.787 292.958 128.787 280.881Z" fill="#01396D"/>
<path d="M89.4299 197.781C89.4299 185.89 89.4299 173.998 89.4299 162.107C89.4299 161.804 89.4299 161.478 89.4299 161.174C89.3833 157.374 86.4221 155.695 83.1812 157.63C77.0723 161.291 70.9635 164.998 64.8779 168.706C51.0047 177.123 37.1316 185.54 23.2584 193.98C18.7583 196.732 18.7817 200.905 23.305 203.657C42.5642 215.361 61.8235 227.066 81.0827 238.771C82.9247 239.89 84.8366 240.38 86.7952 239.284C88.8004 238.165 89.4532 236.299 89.4299 234.061C89.4066 221.983 89.4299 209.882 89.4299 197.781Z" stroke="#7AC8E7" stroke-miterlimit="10"/>
<path d="M276.543 215.782C276.543 203.891 276.543 191.999 276.543 180.108C276.543 179.805 276.543 179.478 276.543 179.175C276.496 175.375 273.535 173.696 270.294 175.631C264.185 179.292 258.077 182.999 251.991 186.707C238.118 195.124 224.245 203.541 210.372 211.981C205.871 214.733 205.895 218.906 210.418 221.658C229.677 233.362 248.937 245.067 268.196 256.772C270.038 257.891 271.95 258.381 273.908 257.285C275.914 256.166 276.566 254.3 276.543 252.062C276.52 239.961 276.543 227.883 276.543 215.782Z" fill="#01396D"/>
<path d="M237.186 132.683C237.186 120.792 237.186 108.901 237.186 97.0094C237.186 96.7063 237.186 96.3798 237.186 96.0767C237.139 92.2762 234.178 90.5974 230.937 92.5327C224.828 96.1933 218.719 99.9006 212.634 103.608C198.76 112.025 184.887 120.442 171.014 128.883C166.514 131.634 166.537 135.808 171.061 138.559C190.32 150.264 209.579 161.968 228.838 173.673C230.68 174.792 232.592 175.282 234.551 174.186C236.556 173.067 237.209 171.202 237.186 168.963C237.162 156.886 237.186 144.784 237.186 132.683Z" stroke="#7AC8E7" stroke-miterlimit="10"/>
<path d="M185.703 202.748C185.703 194.634 185.703 186.543 185.703 178.429C185.703 178.219 185.703 178.009 185.703 177.799C185.657 175.211 183.652 174.045 181.437 175.375C177.263 177.869 173.113 180.411 168.939 182.929C159.473 188.665 150.006 194.424 140.563 200.16C137.485 202.025 137.509 204.893 140.586 206.758C153.713 214.732 166.864 222.73 179.991 230.704C181.25 231.473 182.556 231.8 183.885 231.054C185.237 230.284 185.703 229.025 185.68 227.486C185.68 219.256 185.703 211.002 185.703 202.748Z" fill="#7AC8E7"/>
<path d="M265.514 381.676C265.514 369.785 265.514 357.894 265.514 346.003C265.514 345.699 265.514 345.373 265.514 345.07C265.467 341.269 262.506 339.591 259.265 341.526C253.156 345.186 247.048 348.894 240.962 352.601C227.089 361.018 213.216 369.435 199.342 377.876C194.842 380.627 194.866 384.801 199.389 387.552C218.648 399.257 237.908 410.962 257.167 422.666C259.009 423.786 260.921 424.275 262.879 423.179C264.885 422.06 265.537 420.195 265.514 417.957C265.491 405.879 265.514 393.778 265.514 381.676Z" fill="#01396D"/>
<path d="M226.157 298.6C226.157 286.709 226.157 274.818 226.157 262.926C226.157 262.623 226.157 262.297 226.157 261.994C226.11 258.193 223.149 256.514 219.908 258.45C213.799 262.11 207.69 265.818 201.605 269.525C187.732 277.942 173.859 286.359 159.985 294.8C155.485 297.551 155.509 301.725 160.032 304.476C179.291 316.181 198.551 327.885 217.81 339.59C219.652 340.709 221.564 341.199 223.522 340.103C225.527 338.984 226.18 337.119 226.157 334.88C226.134 322.779 226.157 310.678 226.157 298.6Z" stroke="#7AC8E7" stroke-miterlimit="10"/>
<path d="M174.674 368.666C174.674 360.552 174.674 352.461 174.674 344.347C174.674 344.138 174.674 343.928 174.674 343.718C174.628 341.13 172.622 339.964 170.407 341.293C166.234 343.788 162.084 346.329 157.91 348.847C148.444 354.583 138.977 360.342 129.534 366.078C126.456 367.943 126.48 370.811 129.557 372.677C142.684 380.651 155.835 388.648 168.962 396.622C170.221 397.392 171.527 397.718 172.856 396.972C174.208 396.203 174.674 394.944 174.651 393.405C174.651 385.151 174.674 376.92 174.674 368.666Z" fill="#7AC8E7"/>
</g>
</svg>
