<svg width="119" height="110" viewBox="0 0 119 110" fill="none" xmlns="http://www.w3.org/2000/svg">
<path d="M22.8203 0V40.75L50.5303 21.19L22.8203 0Z" fill="#81E6C9"/>
<path d="M91.2793 34.23V74.99L118.999 55.42L91.2793 34.23Z" fill="#81E6C9"/>
<path d="M93.17 60.31H3C1.35 60.31 0 58.96 0 57.31V53.53C0 51.88 1.35 50.53 3 50.53H93.18C94.83 50.53 96.18 51.88 96.18 53.53V57.31C96.17 58.96 94.82 60.31 93.17 60.31Z" fill="#81E6C9"/>
<path d="M58.6797 68.47V109.22L86.3897 89.66L58.6797 68.47Z" fill="#81E6C9"/>
<path d="M60.57 94.55H3C1.35 94.55 0 93.2 0 91.55V87.77C0 86.12 1.35 84.77 3 84.77H60.58C62.23 84.77 63.58 86.12 63.58 87.77V91.55C63.57 93.2 62.22 94.55 60.57 94.55Z" fill="#81E6C9"/>
<path d="M39.38 24.45H3C1.35 24.45 0 23.1 0 21.45V17.67C0 16.02 1.35 14.67 3 14.67H39.38C41.03 14.67 42.38 16.02 42.38 17.67V21.45C42.38 23.1 41.03 24.45 39.38 24.45Z" fill="#81E6C9"/>
</svg>
