<svg width="515" height="693" viewBox="0 0 515 693" fill="none" xmlns="http://www.w3.org/2000/svg">
<g opacity="0.3">
<path d="M-41.8506 231.692C-41.8506 219.177 -41.8506 206.698 -41.8506 194.183C-41.8506 193.859 -41.8506 193.535 -41.8506 193.212C-41.7787 189.22 -38.6858 187.422 -35.2693 189.471C-28.8319 193.32 -22.4305 197.24 -15.993 201.124C-1.39197 209.97 13.2091 218.853 27.7742 227.7C32.5213 230.577 32.4854 235.001 27.7382 237.878C7.49094 250.177 -12.7923 262.513 -33.0396 274.812C-34.9816 275.999 -36.9956 276.502 -39.0455 275.352C-41.1313 274.165 -41.8506 272.223 -41.8146 269.849C-41.8506 257.154 -41.8506 244.423 -41.8506 231.692Z" fill="#7AC8E7"/>
<path d="M25.041 78.3449C25.041 60.0037 25.041 41.6625 25.041 23.3212C25.041 22.8537 25.041 22.3502 25.041 21.8827C25.1129 16.0207 29.6802 13.4313 34.6791 16.4163C44.1015 22.0625 53.5238 27.7807 62.9102 33.4988C84.3083 46.4815 105.706 59.4643 127.105 72.4829C134.045 76.7266 134.01 83.164 127.033 87.4077C97.327 105.461 67.6214 123.515 37.9158 141.568C35.0747 143.295 32.1257 144.05 29.1048 142.359C26.012 140.633 25.005 137.756 25.041 134.304C25.0769 115.639 25.041 97.0098 25.041 78.3449Z" fill="#01396D"/>
<path d="M165.151 58.2782C165.151 45.763 165.151 33.2838 165.151 20.7686C165.151 20.4449 165.151 20.1212 165.151 19.7976C165.223 15.8057 168.316 14.0075 171.733 16.0574C178.17 19.9055 184.572 23.8255 191.009 27.7095C205.61 36.5564 220.211 45.4394 234.776 54.2863C239.523 57.1634 239.487 61.5868 234.74 64.4639C214.493 76.7633 194.21 89.0987 173.962 101.398C172.02 102.585 170.006 103.088 167.956 101.938C165.871 100.751 165.151 98.8088 165.187 96.4352C165.151 83.7042 165.151 71.0092 165.151 58.2782Z" fill="#7AC8E7"/>
<path d="M-106.657 363.965C-106.657 345.624 -106.657 327.283 -106.657 308.942C-106.657 308.474 -106.657 307.971 -106.657 307.503C-106.585 301.641 -102.018 299.052 -97.0191 302.037C-87.5968 307.683 -78.1744 313.401 -68.788 319.119C-47.3899 332.102 -25.9918 345.085 -4.59367 358.103C2.34723 362.347 2.31126 368.784 -4.6656 373.028C-34.3712 391.082 -64.0768 409.135 -93.7824 427.189C-96.6235 428.915 -99.5725 429.67 -102.593 427.98C-105.686 426.254 -106.693 423.377 -106.657 419.924C-106.621 401.259 -106.657 382.594 -106.657 363.965Z" stroke="#7AC8E7" stroke-miterlimit="10"/>
<path d="M-82.2022 627.036C-82.2022 608.695 -82.2022 590.354 -82.2022 572.012C-82.2022 571.545 -82.2022 571.041 -82.2022 570.574C-82.1303 564.712 -77.5629 562.123 -72.5641 565.107C-63.1417 570.754 -53.7193 576.472 -44.3329 582.19C-22.9348 595.173 -1.53671 608.155 19.8614 621.174C26.8023 625.418 26.7663 631.855 19.7895 636.099C-9.91614 654.152 -39.6218 672.206 -69.3274 690.259C-72.1685 691.986 -75.1175 692.741 -78.1384 691.051C-81.2312 689.324 -82.2382 686.447 -82.2022 682.995C-82.2022 664.33 -82.2022 645.665 -82.2022 627.036Z" stroke="#7AC8E7" stroke-miterlimit="10"/>
<path d="M-27.25 472.035C-27.25 459.52 -27.25 447.041 -27.25 434.525C-27.25 434.202 -27.25 433.878 -27.25 433.554C-27.1781 429.562 -24.0852 427.764 -20.6687 429.814C-14.2313 433.662 -7.82985 437.582 -1.39244 441.466C13.2086 450.313 27.8097 459.196 42.3748 468.043C47.1219 470.92 47.086 475.344 42.3388 478.221C22.0915 490.52 1.80828 502.856 -18.439 515.155C-20.381 516.342 -22.395 516.845 -24.4449 515.694C-26.5307 514.508 -27.25 512.566 -27.214 510.192C-27.214 497.497 -27.25 484.766 -27.25 472.035Z" fill="#7AC8E7"/>
<path d="M286.923 192.349C286.923 174.008 286.923 155.666 286.923 137.325C286.923 136.858 286.923 136.354 286.923 135.887C286.995 130.025 291.562 127.435 296.561 130.42C305.983 136.066 315.406 141.785 324.792 147.503C346.19 160.485 367.588 173.468 388.986 186.487C395.927 190.731 395.891 197.168 388.914 201.412C359.209 219.465 329.503 237.519 299.798 255.572C296.957 257.298 294.008 258.054 290.987 256.363C287.894 254.637 286.887 251.76 286.923 248.308C286.959 229.643 286.923 210.978 286.923 192.349Z" fill="#01396D"/>
<path d="M347.63 64.1758C347.63 45.8345 347.63 27.4933 347.63 9.15203C347.63 8.68451 347.63 8.18103 347.63 7.71351C347.702 1.8515 352.269 -0.737849 357.268 2.2471C366.69 7.89332 376.113 13.6115 385.499 19.3296C406.897 32.3123 428.295 45.2951 449.693 58.3137C456.634 62.5574 456.598 68.9948 449.622 73.2385C419.916 91.292 390.21 109.346 360.505 127.399C357.664 129.125 354.715 129.881 351.694 128.19C348.601 126.464 347.594 123.587 347.63 120.135C347.666 101.506 347.63 82.8407 347.63 64.1758Z" stroke="#7AC8E7" stroke-miterlimit="10"/>
<path d="M427.036 172.246C427.036 159.73 427.036 147.251 427.036 134.736C427.036 134.412 427.036 134.089 427.036 133.765C427.108 129.773 430.201 127.975 433.617 130.025C440.055 133.873 446.456 137.793 452.894 141.677C467.495 150.524 482.096 159.407 496.661 168.254C501.408 171.131 501.372 175.554 496.625 178.431C476.378 190.731 456.094 203.066 435.847 215.365C433.905 216.552 431.891 217.056 429.841 215.905C427.755 214.718 427.036 212.776 427.072 210.402C427.072 197.707 427.036 184.976 427.036 172.246Z" fill="#7AC8E7"/>
<path d="M301.563 432.691C301.563 414.35 301.563 396.009 301.563 377.668C301.563 377.2 301.563 376.697 301.563 376.229C301.635 370.367 306.203 367.778 311.202 370.763C320.624 376.409 330.046 382.127 339.433 387.845C360.831 400.828 382.229 413.811 403.627 426.829C410.568 431.073 410.532 437.51 403.555 441.754C373.849 459.808 344.144 477.861 314.438 495.915C311.597 497.641 308.648 498.396 305.627 496.706C302.534 494.98 301.527 492.103 301.563 488.65C301.599 469.985 301.563 451.32 301.563 432.691Z" fill="#01396D"/>
<path d="M362.268 304.518C362.268 286.176 362.268 267.835 362.268 249.494C362.268 249.026 362.268 248.523 362.268 248.055C362.339 242.193 366.907 239.604 371.906 242.589C381.328 248.235 390.75 253.953 400.137 259.671C421.535 272.654 442.933 285.637 464.331 298.656C471.272 302.899 471.236 309.337 464.259 313.58C434.554 331.634 404.848 349.687 375.142 367.741C372.301 369.467 369.352 370.222 366.331 368.532C363.239 366.806 362.232 363.929 362.268 360.476C362.303 341.847 362.268 323.182 362.268 304.518Z" stroke="#7AC8E7" stroke-miterlimit="10"/>
<path d="M362.268 559.605C362.268 541.264 362.268 522.923 362.268 504.582C362.268 504.114 362.268 503.611 362.268 503.143C362.339 497.281 366.907 494.692 371.906 497.677C381.328 503.323 390.75 509.041 400.137 514.759C421.535 527.742 442.933 540.725 464.331 553.743C471.272 557.987 471.236 564.424 464.259 568.668C434.554 586.722 404.848 604.775 375.142 622.829C372.301 624.555 369.352 625.31 366.331 623.62C363.239 621.894 362.232 619.017 362.268 615.564C362.303 596.935 362.268 578.27 362.268 559.605Z" stroke="#7AC8E7" stroke-miterlimit="10"/>
<path d="M441.674 412.588C441.674 400.073 441.674 387.593 441.674 375.078C441.674 374.755 441.674 374.431 441.674 374.107C441.746 370.115 444.839 368.317 448.255 370.367C454.693 374.215 461.094 378.135 467.531 382.019C482.132 390.866 496.734 399.749 511.299 408.596C516.046 411.473 516.01 415.896 511.263 418.773C491.015 431.073 470.732 443.408 450.485 455.708C448.543 456.894 446.529 457.398 444.479 456.247C442.393 455.06 441.674 453.118 441.71 450.745C441.71 438.05 441.674 425.319 441.674 412.588Z" fill="#7AC8E7"/>
<path d="M73.663 332.282C73.663 313.941 73.663 295.6 73.663 277.258C73.663 276.791 73.663 276.287 73.663 275.82C73.735 269.958 78.3023 267.369 83.3012 270.354C92.7235 276 102.146 281.718 111.532 287.436C132.93 300.419 154.329 313.402 175.727 326.42C182.668 330.664 182.632 337.101 175.655 341.345C145.949 359.398 116.243 377.452 86.5379 395.506C83.6968 397.232 80.7478 397.987 77.7269 396.297C74.6341 394.571 73.6271 391.693 73.663 388.241C73.699 369.576 73.663 350.947 73.663 332.282Z" fill="#01396D"/>
<path d="M134.367 204.109C134.367 185.768 134.367 167.427 134.367 149.086C134.367 148.618 134.367 148.115 134.367 147.647C134.439 141.785 139.006 139.196 144.005 142.181C153.428 147.827 162.85 153.545 172.236 159.263C193.635 172.246 215.033 185.229 236.431 198.247C243.372 202.491 243.336 208.928 236.359 213.172C206.653 231.226 176.948 249.279 147.242 267.333C144.401 269.059 141.452 269.814 138.431 268.124C135.338 266.398 134.331 263.521 134.367 260.068C134.403 241.439 134.367 222.774 134.367 204.109Z" stroke="#7AC8E7" stroke-miterlimit="10"/>
<path d="M213.774 312.178C213.774 299.663 213.774 287.183 213.774 274.668C213.774 274.345 213.774 274.021 213.774 273.697C213.846 269.705 216.939 267.907 220.356 269.957C226.793 273.805 233.195 277.725 239.632 281.609C254.233 290.456 268.834 299.339 283.399 308.186C288.146 311.063 288.11 315.486 283.363 318.364C263.116 330.663 242.833 342.998 222.585 355.298C220.643 356.485 218.629 356.988 216.58 355.837C214.494 354.65 213.774 352.708 213.81 350.335C213.81 337.64 213.774 324.909 213.774 312.178Z" fill="#7AC8E7"/>
<path d="M90.6738 588.16C90.6738 569.819 90.6738 551.478 90.6738 533.136C90.6738 532.669 90.6738 532.165 90.6738 531.698C90.7457 525.836 95.313 523.247 100.312 526.231C109.734 531.878 119.157 537.596 128.543 543.314C149.941 556.297 171.339 569.279 192.737 582.298C199.678 586.542 199.642 592.979 192.665 597.223C162.96 615.276 133.254 633.33 103.549 651.383C100.708 653.11 97.7585 653.865 94.7376 652.175C91.6448 650.448 90.6378 647.571 90.6738 644.119C90.7097 625.49 90.6738 606.825 90.6738 588.16Z" fill="#01396D"/>
<path d="M151.38 460.022C151.38 441.681 151.38 423.34 151.38 404.999C151.38 404.531 151.38 404.028 151.38 403.56C151.452 397.698 156.019 395.109 161.018 398.094C170.44 403.74 179.863 409.458 189.249 415.176C210.647 428.159 232.045 441.142 253.443 454.16C260.384 458.404 260.348 464.841 253.372 469.085C223.666 487.139 193.96 505.192 164.255 523.246C161.414 524.972 158.465 525.727 155.444 524.037C152.351 522.311 151.344 519.434 151.38 515.981C151.416 497.316 151.38 478.651 151.38 460.022Z" stroke="#7AC8E7" stroke-miterlimit="10"/>
<path d="M230.785 568.093C230.785 555.577 230.785 543.098 230.785 530.583C230.785 530.259 230.785 529.936 230.785 529.612C230.857 525.62 233.95 523.822 237.366 525.872C243.804 529.72 250.205 533.64 256.643 537.524C271.244 546.371 285.845 555.254 300.41 564.101C305.157 566.978 305.121 571.401 300.374 574.278C280.127 586.578 259.843 598.913 239.596 611.213C237.654 612.399 235.64 612.903 233.59 611.752C231.504 610.565 230.785 608.623 230.821 606.25C230.821 593.519 230.785 580.824 230.785 568.093Z" fill="#7AC8E7"/>
</g>
</svg>
