<svg width="148" height="147" viewBox="0 0 148 147" fill="none" xmlns="http://www.w3.org/2000/svg">
<path d="M74.0046 146.458C114.448 146.458 147.234 113.673 147.234 73.2292C147.234 32.7858 114.448 0 74.0046 0C33.5612 0 0.775391 32.7858 0.775391 73.2292C0.775391 113.673 33.5612 146.458 74.0046 146.458Z" fill="white"/>
<path d="M89.9465 102.932C90.0236 106.202 90.0494 106.279 87.3257 107.268C85.161 108.052 82.9128 108.611 80.6966 109.247C79.9386 109.465 79.3476 109.176 78.9108 108.534C78.352 107.712 77.806 106.883 77.2343 106.074C75.8018 104.05 72.1789 104.057 70.74 106.086C70.1683 106.896 69.6223 107.724 69.0635 108.54C68.6267 109.176 68.0228 109.472 67.2712 109.24C64.5862 108.399 61.9139 107.525 59.2353 106.665C58.2846 106.356 57.957 105.669 58.0019 104.718C58.0469 103.755 58.0727 102.791 58.0598 101.834C58.0213 99.0912 55.0728 97.0228 52.4841 97.9221C51.5205 98.2561 50.5506 98.5773 49.5935 98.9241C48.919 99.1682 48.3087 99.0462 47.8912 98.4873C46.144 96.162 44.4225 93.8174 42.7138 91.4663C42.277 90.8625 42.3669 90.2266 42.8101 89.6228C43.5038 88.6785 44.1655 87.7149 44.8657 86.7707C45.598 85.775 45.7586 84.6958 45.3732 83.5267C45.2254 83.0707 45.0905 82.6082 44.9428 82.1521C44.6152 81.1372 43.9471 80.4563 42.9322 80.1222C41.7631 79.7368 40.594 79.3514 39.4185 78.9917C38.6733 78.7604 38.1915 78.2787 38.1851 77.5078C38.153 74.6557 38.153 71.8101 38.1787 68.958C38.1851 68.1422 38.699 67.6733 39.4827 67.442C40.6325 67.1016 41.7695 66.7097 42.9065 66.3372C43.9214 66.0096 44.5959 65.3351 44.9299 64.3201C45.0969 63.8063 45.2639 63.2924 45.4117 62.7721C45.72 61.6993 45.5787 60.6908 44.917 59.7722C44.2169 58.7958 43.5231 57.813 42.8165 56.8431C42.354 56.2135 42.2834 55.5648 42.7459 54.9224C44.4224 52.6163 46.1054 50.3231 47.8012 48.0363C48.2959 47.3747 48.9704 47.2783 49.7412 47.5674C50.724 47.9399 51.7261 48.2547 52.7089 48.6208C53.7881 49.0191 54.7131 48.8007 55.6895 48.2033C57.5009 47.092 58.1882 45.5953 58.0726 43.4563C57.8735 39.9104 57.6743 40.3536 61.0467 39.0304C63.0445 38.2467 65.1771 37.7971 67.252 37.2061C68.0485 36.9813 68.6587 37.2703 69.1084 37.9448C69.6608 38.767 70.3096 39.5379 70.7592 40.4179C71.7228 42.3064 76.29 42.255 77.2471 40.405C77.6968 39.5314 78.3455 38.7606 78.898 37.9319C79.3284 37.2896 79.9193 36.962 80.6709 37.1932C83.3881 38.0347 86.0924 38.9148 88.7968 39.7884C89.6961 40.0839 90.0365 40.7519 89.9916 41.6705C89.9466 42.6019 89.9402 43.5333 89.9338 44.4648C89.9273 47.3297 92.8629 49.4366 95.548 48.5052C96.4858 48.1776 97.4237 47.8693 98.3551 47.5288C99.0617 47.2655 99.6912 47.3875 100.134 47.9785C101.862 50.2846 103.565 52.6035 105.254 54.9288C105.717 55.5648 105.627 56.22 105.164 56.8495C104.47 57.7938 103.802 58.7573 103.109 59.7016C102.402 60.6715 102.241 61.7186 102.608 62.8556C102.749 63.2859 102.89 63.7099 103.012 64.1467C103.346 65.3222 104.104 66.0288 105.273 66.3757C106.365 66.6969 107.438 67.1016 108.53 67.4227C109.359 67.6733 109.828 68.2128 109.834 69.0479C109.86 71.8358 109.853 74.63 109.828 77.4179C109.821 78.2273 109.352 78.7347 108.562 78.9788C107.445 79.3193 106.34 79.7111 105.222 80.0516C104.098 80.392 103.359 81.0986 103.031 82.2356C102.89 82.7238 102.704 83.1991 102.569 83.6938C102.286 84.7344 102.408 85.7172 103.057 86.6101C103.757 87.5865 104.451 88.5693 105.164 89.5392C105.646 90.2009 105.723 90.8689 105.241 91.537C103.584 93.8174 101.914 96.0849 100.231 98.346C99.7104 99.0398 99.0231 99.1425 98.2202 98.8406C97.186 98.4488 96.1261 98.1083 95.0791 97.7358C94.122 97.3953 93.2805 97.633 92.4261 98.1405C90.4348 99.3352 89.4969 100.973 89.9465 102.932Z" fill="#03C4A1"/>
<path d="M111.986 87.2008C112.782 87.4898 113.515 87.7532 114.241 88.023C114.343 88.0615 114.44 88.1258 114.536 88.1771C110.213 100.877 97.6227 113.679 79.7137 116.152C60.4429 118.818 40.5104 107.538 33.4958 88.6846C32.7828 88.7938 32.0441 88.8966 31.3118 89.0251C29.7894 89.2884 28.9479 88.402 29.4168 86.9566C30.3033 84.2138 31.209 81.4837 32.1469 78.7601C32.6286 77.3598 33.907 77.135 34.8384 78.2784C36.6755 80.5395 38.4998 82.8198 40.3049 85.1066C41.2299 86.2822 40.7995 87.387 39.3221 87.6825C38.4163 87.8624 37.4977 88.0037 36.5792 88.1643C40.3627 98.7697 51.604 110.82 68.3632 113.261C87.0559 115.979 105.967 104.641 111.986 87.2008Z" fill="#03C4A1"/>
<path d="M114.06 56.8942C115.03 56.5794 115.878 56.2775 116.746 56.027C117.94 55.6801 118.885 56.4766 118.686 57.71C118.236 60.5235 117.767 63.3371 117.266 66.1506C117.041 67.3968 115.878 67.8657 114.889 67.0885C112.5 65.2192 110.129 63.3242 107.785 61.3971C106.783 60.5685 107.046 59.2966 108.273 58.8405C109.249 58.4744 110.251 58.1725 111.247 57.8449C106.699 46.0768 94.5456 34.7134 78.0369 33.024C59.6333 31.1419 42.1931 42.3062 36.0265 59.2645C35.1721 58.9562 34.3178 58.6478 33.457 58.3395C36.9964 47.4386 48.1029 34.1546 65.9027 30.7051C72.4676 29.4332 78.9876 29.703 85.4434 31.5016C91.9184 33.3003 97.6675 36.435 102.697 40.8865C107.695 45.3124 111.459 50.644 114.06 56.8942Z" fill="#03C4A1"/>
<path d="M49.459 73.2486C49.4526 59.7204 60.4754 48.6847 73.9972 48.6975C87.5317 48.7104 98.5354 59.7269 98.5225 73.2614C98.5097 86.751 87.5253 97.7482 74.0357 97.7675C60.514 97.7932 49.4654 86.7767 49.459 73.2486ZM73.9907 51.5817C62.0813 51.5817 52.3625 61.275 52.3432 73.1779C52.3239 85.1322 62.0428 94.8769 73.9843 94.8769C85.8937 94.8769 95.6126 85.1836 95.6319 73.2743C95.6576 61.3263 85.9386 51.5881 73.9907 51.5817Z" fill="white"/>
<path d="M89.8625 72.5037C89.8625 75.4778 89.8625 78.4584 89.8625 81.4325C89.8625 82.8457 89.3807 83.3275 87.974 83.3339C86.291 83.3403 84.608 83.3467 82.925 83.3339C81.7495 83.3275 81.2099 82.8007 81.2099 81.6252C81.2035 75.5549 81.2035 69.4782 81.2099 63.4078C81.2099 62.2259 81.7431 61.6992 82.9186 61.6927C84.6594 61.6799 86.4066 61.6799 88.1474 61.6927C89.3229 61.6992 89.8561 62.2259 89.8625 63.4014C89.8689 66.4334 89.8625 69.4717 89.8625 72.5037Z" fill="white"/>
<path d="M78.3195 74.7646C78.3195 77.0193 78.3259 79.274 78.3195 81.5287C78.3131 82.8198 77.8057 83.3273 76.5145 83.3337C74.7994 83.3401 73.0907 83.3466 71.3756 83.3337C70.2001 83.3273 69.6669 82.8006 69.6669 81.6186C69.6605 76.9872 69.6605 72.3622 69.6669 67.7308C69.6669 66.5552 70.2001 66.0285 71.3756 66.0221C73.1164 66.0092 74.8637 66.0092 76.6045 66.0221C77.78 66.0285 78.3067 66.5552 78.3131 67.7372C78.3259 70.0754 78.3195 72.42 78.3195 74.7646Z" fill="white"/>
<path d="M58.117 77.5588C58.117 76.2034 58.1106 74.8545 58.117 73.4991C58.1299 72.3236 58.6502 71.7968 59.8257 71.7904C61.5665 71.7775 63.3137 71.7775 65.0545 71.7904C66.23 71.7968 66.7632 72.3236 66.7632 73.4991C66.776 76.2034 66.776 78.9078 66.7632 81.6185C66.7568 82.794 66.2236 83.3208 65.0545 83.3336C63.3137 83.3465 61.5665 83.3465 59.8257 83.3336C58.6502 83.3272 58.1235 82.8005 58.117 81.6249C58.1042 80.2696 58.117 78.9142 58.117 77.5588Z" fill="white"/>
</svg>
