<svg width="147" height="147" viewBox="0 0 147 147" fill="none" xmlns="http://www.w3.org/2000/svg">
<path d="M73.9093 146.117C114.213 146.117 146.885 113.444 146.885 73.1408C146.885 32.8374 114.213 0.165039 73.9093 0.165039C33.6059 0.165039 0.933594 32.8374 0.933594 73.1408C0.933594 113.444 33.6059 146.117 73.9093 146.117Z" fill="white"/>
<path d="M64.3775 88.5681C64.6144 91.788 64.8257 94.9887 65.1137 98.183C65.1521 98.6375 65.5299 99.1304 65.8819 99.4696C68.1544 101.678 70.4717 103.835 72.7506 106.031C74.5366 107.747 74.1909 109.328 71.8544 110.192C68.3528 111.485 64.8512 112.765 61.3433 114.046C59.4293 114.743 58.5011 114.295 57.797 112.356C55.5181 106.082 53.22 99.8153 50.9795 93.5356C50.6466 92.6074 50.3009 92.1913 49.1871 92.1273C44.6037 91.852 40.8077 89.7907 38.8744 85.6363C36.8644 81.3217 35.2001 76.7703 34.0414 72.1613C32.6203 66.5345 35.917 60.6324 41.339 58.4112C47.3243 55.9594 53.22 53.3733 58.7251 49.9421C64.2623 46.4854 69.4666 42.5933 74.2293 38.1252C74.6134 37.7603 74.9271 37.2226 75.0615 36.7105C75.8681 33.6698 78.9728 32.1655 82.1222 31.935C84.8172 31.743 86.7568 33.3305 87.8386 36.3008C92.9149 50.2942 97.9912 64.2812 103.068 78.2747C104.252 81.5394 103.861 84.0679 101.634 85.6747C99.2075 87.4286 95.5971 88.5041 92.9469 86.3468C92.6397 86.0972 92.1468 85.9883 91.7307 85.9691C82.6344 85.5338 73.634 86.302 64.7553 88.3504C64.6593 88.3696 64.5952 88.44 64.3775 88.5681ZM90.3096 81.661C85.5149 68.4741 80.7779 55.4537 75.9961 42.2925C67.7959 49.5581 58.898 55.3961 48.9183 59.8835C52.0613 68.5254 55.1596 77.0584 58.2899 85.649" fill="#03C4A1"/>
<path d="M96.3661 41.7677C95.4891 40.8843 94.5609 39.9625 93.7031 39.1048C95.8092 37.0179 97.8832 34.9695 100.015 32.8634C100.828 33.6764 101.769 34.6238 102.652 35.5072C100.559 37.5876 98.517 39.6233 96.3661 41.7677Z" fill="#03C4A1"/>
<path d="M105.41 68.5189C108.278 68.3077 110.973 68.1028 113.822 67.8916C113.918 69.3127 114.007 70.6378 114.11 72.0973C111.255 72.3086 108.534 72.507 105.692 72.7182C105.596 71.2587 105.506 69.9656 105.41 68.5189Z" fill="#03C4A1"/>
<path d="M102.434 52.413C105.193 51.5872 107.779 50.819 110.519 49.9996C110.915 51.3631 111.293 52.637 111.703 54.0453C108.963 54.8647 106.345 55.6393 103.611 56.4522C103.195 55.0503 102.837 53.8021 102.434 52.413Z" fill="#03C4A1"/>
</svg>
