<svg width="147" height="146" viewBox="0 0 147 146" fill="none" xmlns="http://www.w3.org/2000/svg">
<path d="M73.7941 145.952C114.098 145.952 146.77 113.279 146.77 72.9758C146.77 32.6724 114.098 0 73.7941 0C33.4907 0 0.818359 32.6724 0.818359 72.9758C0.818359 113.279 33.4907 145.952 73.7941 145.952Z" fill="white"/>
<path d="M96.9122 81.1311C96.9122 81.5984 96.9122 81.9377 96.9122 82.2769C96.9122 90.0098 96.925 97.7491 96.9058 105.482C96.893 110.379 93.6219 114.207 88.8016 115.026C88.4111 115.09 88.0142 115.116 87.6173 115.116C78.4122 115.122 69.207 115.161 59.9954 115.103C55.5848 115.078 51.9424 112.069 50.9502 107.774C50.6942 106.66 50.6877 105.488 50.5597 104.253C50.2781 104.253 49.9772 104.253 49.67 104.253C45.1954 104.253 40.7208 104.259 36.2398 104.253C33.2184 104.246 31.6309 102.659 31.6309 99.6375C31.6309 94.51 31.6309 89.3825 31.6309 84.255C31.6309 81.4448 33.308 79.7804 36.1374 79.774C40.644 79.7676 45.1442 79.774 49.6507 79.774C49.958 79.774 50.2653 79.774 50.6173 79.774C50.6173 75.2418 50.6173 70.7737 50.6173 66.1775C50.3037 66.1775 49.9772 66.1775 49.6507 66.1775C44.2992 66.1775 38.9412 66.1775 33.5897 66.1775C32.0149 66.1775 31.6372 65.7934 31.6372 64.225C31.6372 58.2461 31.6372 52.2673 31.6372 46.2884C31.6372 44.8416 32.0661 44.4128 33.5128 44.4128C38.8644 44.4128 44.2224 44.4128 49.5739 44.4128C49.9068 44.4128 50.2397 44.4128 50.675 44.4128C50.675 43.1581 50.675 41.9802 50.675 40.796C50.6814 34.9003 54.7719 30.8162 60.6739 30.8098C69.4246 30.8098 78.1817 30.8098 86.9324 30.8098C92.7833 30.8098 96.893 34.9003 96.9058 40.732C96.9122 44.784 96.9058 48.8361 96.9058 52.8882C96.9058 53.1955 96.9058 53.5027 96.9058 53.9252C97.2642 53.9252 97.5587 53.9252 97.8596 53.9252C101.483 53.9252 105.112 53.9188 108.736 53.9252C113.044 53.9316 115.931 56.8186 115.937 61.1204C115.943 65.3965 115.943 69.679 115.937 73.9551C115.931 78.2249 113.082 81.0991 108.806 81.1247C105.183 81.1439 101.553 81.1311 97.93 81.1311C97.6291 81.1311 97.3283 81.1311 96.9122 81.1311ZM53.4467 66.1711C53.4467 70.7673 53.4467 75.2354 53.4467 79.7676C53.7732 79.7676 54.0485 79.7676 54.3237 79.7676C56.1673 79.7676 58.0045 79.7612 59.8481 79.7676C62.5559 79.774 64.2587 81.464 64.2779 84.1525C64.2843 84.9143 64.3099 85.6825 64.2651 86.4442C64.2331 86.95 64.4379 87.1932 64.8796 87.4045C66.1599 88.0062 67.4466 88.6015 68.6629 89.3185C69.111 89.5809 69.5462 90.1314 69.6679 90.6308C69.8407 91.3157 69.271 91.7318 68.6693 92.0263C67.3762 92.66 66.0767 93.2937 64.8092 93.9851C64.5596 94.1195 64.3611 94.4908 64.2971 94.7917C64.2075 95.1885 64.2779 95.6174 64.2779 96.0207C74.3089 96.0207 84.231 96.0207 94.1532 96.0207C94.1532 90.9764 94.1532 85.9962 94.1532 81.0351C90.6772 79.8764 88.7824 77.5655 88.7632 74.4096C88.7376 69.8198 88.7376 65.2301 88.7632 60.6467C88.7824 57.7212 90.7028 55.1671 93.4938 54.2581C93.7243 54.1813 93.9547 54.0981 94.1404 54.034C94.1404 49.8923 94.1404 45.8275 94.1404 41.7562C80.5374 41.7562 66.9921 41.7562 53.4532 41.7562C53.4532 42.6652 53.4532 43.5038 53.4532 44.3231C53.5556 44.3551 53.6068 44.3936 53.658 44.3936C55.668 44.4 57.6781 44.4064 59.6881 44.4128C61.1284 44.4192 61.5573 44.8481 61.5573 46.2948C61.5573 52.2737 61.5573 58.2461 61.5573 64.225C61.5573 65.7934 61.1732 66.1711 59.6049 66.1775C57.5692 66.1775 55.5336 66.1711 53.4467 66.1711ZM64.2715 98.8629C64.2715 99.3238 64.2779 99.7463 64.2715 100.162C64.2267 102.461 62.5431 104.17 60.245 104.24C59.5665 104.259 58.8879 104.246 58.2094 104.253C56.6346 104.253 55.0535 104.253 53.4916 104.253C52.813 108.657 55.8473 112.37 60.1938 112.395C69.2518 112.447 78.3161 112.44 87.3741 112.395C91.2853 112.376 94.1468 109.425 94.1788 105.527C94.198 103.517 94.1852 101.507 94.1788 99.4967C94.1788 99.2854 94.134 99.0678 94.1084 98.8629C84.1542 98.8629 74.2577 98.8629 64.2715 98.8629ZM65.3085 90.6628C64.2651 90.1379 63.3881 89.6833 62.5047 89.2545C61.8454 88.9344 61.5381 88.4415 61.5573 87.7053C61.5765 86.5467 61.5701 85.3816 61.5637 84.223C61.5573 82.9939 61.09 82.4946 59.8865 82.4946C51.9296 82.4882 43.9791 82.4882 36.0222 82.4946C34.8635 82.4946 34.377 82.9939 34.3706 84.1654C34.3642 89.4017 34.3642 94.638 34.3706 99.8808C34.3706 101.052 34.8443 101.532 36.0222 101.532C43.9791 101.539 51.9296 101.539 59.8865 101.532C61.1092 101.532 61.5573 101.059 61.5637 99.8231C61.5701 97.7875 61.5829 95.7455 61.5573 93.7098C61.5445 92.8968 61.8646 92.3719 62.5879 92.0327C63.4393 91.6102 64.2907 91.1685 65.3085 90.6628ZM102.341 78.4105C104.549 78.4105 106.758 78.4297 108.966 78.4041C111.527 78.3785 113.216 76.6757 113.223 74.128C113.229 69.7366 113.236 65.3517 113.223 60.9603C113.216 58.3806 111.488 56.6586 108.889 56.6522C104.53 56.6394 100.17 56.6394 95.8111 56.6522C93.1737 56.6586 91.4774 58.3742 91.471 61.0308C91.4646 65.3645 91.4646 69.6982 91.471 74.0256C91.4774 76.7013 93.129 78.3785 95.7983 78.3977C97.9812 78.4297 100.164 78.4105 102.341 78.4105ZM34.4154 48.6569C34.4154 53.6756 34.4154 58.5342 34.4154 63.3865C42.5772 63.3865 50.6878 63.3865 58.7663 63.3865C58.7663 58.4766 58.7663 53.6307 58.7663 48.7017C58.5422 48.8681 58.4078 48.9705 58.2798 49.073C54.759 51.8832 51.2447 54.6934 47.7239 57.4972C46.8277 58.2077 46.3732 58.2013 45.4706 57.4844C44.4464 56.6778 43.435 55.8584 42.4172 55.0455C39.7798 52.9522 37.1488 50.8461 34.4154 48.6569ZM53.6068 38.914C67.1009 38.914 80.531 38.914 93.9803 38.914C93.4106 35.8605 90.6836 33.5624 87.4765 33.5496C78.3546 33.5112 69.2326 33.5112 60.1106 33.5496C56.9035 33.5624 54.1701 35.8669 53.6068 38.914ZM56.2314 47.2102C49.7404 47.2102 43.4414 47.2102 36.9696 47.2102C40.2663 49.8475 43.4158 52.3697 46.5973 54.9174C49.798 52.3633 52.9475 49.8411 56.2314 47.2102Z" fill="#03C4A1" stroke="#03C4A1" stroke-miterlimit="10"/>
<path d="M64.2708 98.863C74.2506 98.863 84.1471 98.863 94.1141 98.863C94.1397 99.0679 94.1845 99.2791 94.1845 99.4968C94.1909 101.507 94.2037 103.517 94.1845 105.527C94.1525 109.425 91.2846 112.376 87.3798 112.396C78.3218 112.44 69.2575 112.44 60.1995 112.396C55.853 112.37 52.8187 108.657 53.4973 104.253C55.0592 104.253 56.6339 104.253 58.2151 104.253C58.8936 104.253 59.5722 104.266 60.2507 104.24C62.5488 104.17 64.226 102.461 64.2772 100.163C64.2772 99.7464 64.2708 99.3239 64.2708 98.863ZM73.8024 109.681C76.0493 109.681 77.8545 107.883 77.8738 105.655C77.8866 103.402 76.0301 101.532 73.7833 101.539C71.5684 101.545 69.7312 103.376 69.7184 105.591C69.6992 107.863 71.5171 109.688 73.8024 109.681Z" fill="white"/>
<path d="M65.309 90.6626C64.2976 91.1683 63.4462 91.61 62.5756 92.0197C61.8523 92.3589 61.5322 92.8903 61.545 93.6968C61.577 95.7325 61.5578 97.7745 61.5514 99.8102C61.545 101.046 61.0969 101.519 59.8743 101.519C51.9173 101.526 43.9668 101.526 36.0099 101.519C34.832 101.519 34.3583 101.039 34.3583 99.8678C34.3519 94.6314 34.3519 89.3951 34.3583 84.1524C34.3583 82.9873 34.8448 82.4816 36.0099 82.4816C43.9668 82.4752 51.9173 82.4752 59.8743 82.4816C61.0777 82.4816 61.545 82.9745 61.5514 84.21C61.5578 85.3686 61.5706 86.5337 61.545 87.6923C61.5322 88.4285 61.8331 88.9278 62.4924 89.2415C63.3886 89.6832 64.2592 90.1377 65.309 90.6626ZM37.1237 87.8716C44.3765 87.8716 51.5716 87.8716 58.7604 87.8716C58.7604 86.9626 58.7604 86.1048 58.7604 85.247C51.514 85.247 44.3445 85.247 37.1237 85.247C37.1237 86.1304 37.1237 86.9626 37.1237 87.8716ZM37.1237 96.123C37.1237 97.0512 37.1237 97.8897 37.1237 98.7667C44.3637 98.7667 51.5588 98.7667 58.7732 98.7667C58.7732 97.8641 58.7732 97.0128 58.7732 96.123C51.5396 96.123 44.3701 96.123 37.1237 96.123ZM56.0782 90.7138C50.6114 90.7138 45.2279 90.7138 39.8443 90.7138C39.8443 91.6164 39.8443 92.455 39.8443 93.3256C45.2727 93.3256 50.6562 93.3256 56.0782 93.3256C56.0782 92.4358 56.0782 91.6036 56.0782 90.7138Z" fill="white"/>
<path d="M102.341 78.4107C100.158 78.4107 97.9818 78.4235 95.7989 78.4043C93.1296 78.3851 91.4716 76.7015 91.4716 74.0321C91.4652 69.6984 91.4652 65.3647 91.4716 61.0373C91.478 58.3807 93.1743 56.6652 95.8117 56.6588C100.171 56.646 104.53 56.646 108.89 56.6588C111.482 56.6652 113.217 58.3871 113.223 60.9669C113.236 65.3583 113.236 69.7432 113.223 74.1346C113.217 76.6823 111.527 78.3851 108.967 78.4107C106.758 78.4299 104.55 78.4107 102.341 78.4107ZM102.316 75.6837C106.08 75.6965 109.139 72.6622 109.146 68.911C109.152 65.1726 106.067 62.0871 102.341 62.0936C98.6347 62.1064 95.5813 65.147 95.5557 68.847C95.5301 72.611 98.5579 75.6709 102.316 75.6837ZM110.458 62.0487C110.458 61.1525 110.458 60.3012 110.458 59.4306C109.555 59.4306 108.698 59.4306 107.853 59.4306C107.853 60.346 107.853 61.1974 107.853 62.0487C108.749 62.0487 109.587 62.0487 110.458 62.0487Z" fill="white"/>
<path d="M34.4146 48.6567C37.1544 50.846 39.779 52.9521 42.4099 55.0517C43.4278 55.8647 44.4392 56.6841 45.4634 57.4907C46.366 58.2076 46.8269 58.214 47.7167 57.5035C51.2374 54.6996 54.7518 51.8894 58.2726 49.0792C58.407 48.9768 58.5414 48.8744 58.7591 48.708C58.7591 53.637 58.7591 58.4829 58.7591 63.3927C50.6805 63.3927 42.57 63.3927 34.4082 63.3927C34.4146 58.5341 34.4146 53.6754 34.4146 48.6567Z" fill="white"/>
<path d="M53.6074 38.9139C54.1707 35.8669 56.9042 33.5624 60.1113 33.5496C69.2332 33.5111 78.3552 33.5111 87.4772 33.5496C90.6843 33.5624 93.4112 35.8605 93.981 38.9139C80.5316 38.9139 67.1015 38.9139 53.6074 38.9139Z" fill="white"/>
<path d="M56.2305 47.2102C52.9466 49.8412 49.7971 52.3633 46.5964 54.9175C43.4149 52.3697 40.2655 49.8476 36.9688 47.2102C43.4405 47.2102 49.7395 47.2102 56.2305 47.2102Z" fill="white"/>
<path d="M73.8029 109.681C71.5176 109.681 69.706 107.863 69.7188 105.584C69.7316 103.369 71.5688 101.539 73.7837 101.532C76.0242 101.526 77.887 103.395 77.8742 105.648C77.855 107.882 76.0433 109.681 73.8029 109.681ZM75.1472 105.636C75.16 104.912 74.539 104.272 73.8093 104.259C73.0859 104.246 72.4522 104.874 72.4394 105.604C72.4266 106.352 73.0219 106.948 73.7773 106.961C74.5326 106.967 75.1344 106.384 75.1472 105.636Z" fill="#03C4A1" stroke="#03C4A1" stroke-miterlimit="10"/>
<path d="M37.123 87.8719C37.123 86.9629 37.123 86.1243 37.123 85.2473C44.3438 85.2473 51.5198 85.2473 58.7597 85.2473C58.7597 86.1051 58.7597 86.9565 58.7597 87.8719C51.5774 87.8719 44.3822 87.8719 37.123 87.8719Z" fill="#03C4A1" stroke="#03C4A1" stroke-miterlimit="10"/>
<path d="M37.123 96.123C44.3694 96.123 51.539 96.123 58.7725 96.123C58.7725 97.0064 58.7725 97.8642 58.7725 98.7668C51.5518 98.7668 44.3566 98.7668 37.123 98.7668C37.123 97.8898 37.123 97.0512 37.123 96.123Z" fill="#03C4A1" stroke="#03C4A1" stroke-miterlimit="10"/>
<path d="M56.0777 90.714C56.0777 91.6038 56.0777 92.4424 56.0777 93.3258C50.6557 93.3258 45.2721 93.3258 39.8438 93.3258C39.8438 92.4552 39.8438 91.6166 39.8438 90.714C45.2273 90.714 50.6109 90.714 56.0777 90.714Z" fill="#03C4A1" stroke="#03C4A1" stroke-miterlimit="10"/>
<path d="M102.315 75.6837C98.5576 75.6709 95.5297 72.611 95.5489 68.847C95.5681 65.147 98.628 62.1063 102.334 62.0935C106.066 62.0807 109.145 65.1662 109.139 68.911C109.139 72.6622 106.079 75.6965 102.315 75.6837ZM102.334 72.9631C104.581 72.9695 106.406 71.1899 106.425 68.9558C106.45 66.7025 104.607 64.8205 102.36 64.8141C100.113 64.8013 98.2567 66.6705 98.2695 68.9302C98.2823 71.1579 100.094 72.9567 102.334 72.9631Z" fill="#03C4A1" stroke="#03C4A1" stroke-miterlimit="10"/>
<path d="M110.457 62.0486C109.586 62.0486 108.748 62.0486 107.852 62.0486C107.852 61.1972 107.852 60.3458 107.852 59.4304C108.697 59.4304 109.554 59.4304 110.457 59.4304C110.457 60.301 110.457 61.1524 110.457 62.0486Z" fill="#03C4A1" stroke="#03C4A1" stroke-miterlimit="10"/>
<path d="M75.1473 105.636C75.1345 106.385 74.5327 106.967 73.7774 106.954C73.022 106.948 72.4331 106.346 72.4395 105.597C72.4459 104.868 73.086 104.247 73.8094 104.253C74.5327 104.272 75.1537 104.912 75.1473 105.636Z" fill="white"/>
<path d="M102.334 72.9631C100.093 72.9567 98.2818 71.1579 98.2754 68.9302C98.269 66.6705 100.119 64.8077 102.366 64.8141C104.613 64.8269 106.456 66.7025 106.431 68.9558C106.399 71.1899 104.581 72.9695 102.334 72.9631Z" fill="white"/>
</svg>
