<svg width="147" height="146" viewBox="0 0 147 146" fill="none" xmlns="http://www.w3.org/2000/svg">
<path d="M73.0441 145.952C113.348 145.952 146.02 113.279 146.02 72.9758C146.02 32.6724 113.348 0 73.0441 0C32.7407 0 0.0683594 32.6724 0.0683594 72.9758C0.0683594 113.279 32.7407 145.952 73.0441 145.952Z" fill="white"/>
<path d="M79.6826 31.9173C81.3469 32.4871 83.1265 32.8455 84.6564 33.6713C88.0236 35.4829 90.0976 38.4147 91.013 42.1276C91.1346 42.6269 91.3395 42.8317 91.8388 42.9533C100.737 45.149 104.686 55.3336 99.5909 62.9449C99.2708 63.4186 99.322 63.713 99.6165 64.1547C104.603 71.5867 100.858 81.6049 92.2037 83.999C91.6147 84.159 91.3971 84.3831 91.3523 85.036C91.1346 88.4352 89.6047 91.143 86.8073 93.089C86.3208 93.4282 86.1352 93.7611 86.1352 94.35C86.1608 99.4455 86.148 104.535 86.148 109.63C86.148 109.944 86.148 110.264 86.148 110.635C77.4101 110.635 68.7234 110.635 59.9471 110.635C59.9471 110.309 59.9471 109.995 59.9471 109.681C59.9471 104.56 59.9407 99.4327 59.9599 94.3116C59.9599 93.7611 59.8063 93.441 59.3326 93.1146C56.4199 91.0917 54.8772 88.2879 54.7108 84.7352C54.7044 84.5943 54.6852 84.4471 54.6916 84.4919C53.0848 83.7237 51.4781 83.1604 50.089 82.2514C43.982 78.2506 42.4009 70.1912 46.4786 64.1419C46.7794 63.6938 46.8179 63.4058 46.5042 62.9321C41.4215 55.3784 45.3391 45.1682 54.173 42.9597C54.7428 42.8189 54.9668 42.5949 55.1012 42.0251C56.3047 36.8528 60.6384 32.8776 65.9132 32.0518C66.0796 32.0262 66.2461 31.9558 66.4061 31.9045C67.3407 31.9045 68.2689 31.9045 69.2035 31.9045C70.4006 32.2438 71.5912 32.5895 72.7883 32.9224C72.9483 32.9672 73.1404 32.9672 73.3004 32.9224C74.4974 32.5895 75.6945 32.2438 76.8916 31.9045C77.8198 31.9173 78.7544 31.9173 79.6826 31.9173ZM91.1154 60.9156C92.0372 60.9156 92.9142 60.8708 93.7848 60.9284C94.425 60.9732 94.8026 60.7172 95.1419 60.2179C96.8639 57.7021 97.1455 55.0263 95.8333 52.2866C94.5018 49.5148 92.2037 48.0488 89.1374 47.8312C88.1644 47.7608 87.185 47.8184 86.1416 47.8184C86.1416 46.7365 86.1736 45.7827 86.1352 44.8289C85.9495 40.0087 81.4493 36.4175 76.7763 37.3073C75.9634 37.4609 75.6433 37.7426 75.6497 38.6516C75.6817 57.1004 75.6753 75.5556 75.6753 94.0044C75.6753 94.3116 75.6753 94.6189 75.6753 94.9006C77.4933 94.9006 79.1897 94.9006 80.918 94.9006C80.918 93.6971 80.918 92.5577 80.918 91.4246C80.918 90.0291 80.918 90.0291 82.2047 89.5618C84.9061 88.5824 86.0455 87.0077 86.1672 84.1526C86.244 82.3538 87.0186 80.8751 88.5421 79.9149C89.2846 79.4476 90.1744 79.1788 91.0258 78.9163C96.2558 77.3224 98.3554 70.9594 95.0267 66.7089C94.8346 66.4592 94.5018 66.1904 94.2201 66.1712C93.1831 66.1071 92.1333 66.1455 91.1218 66.1455C88.939 71.3883 85.0597 74.3521 80.9116 73.9168C80.9116 73.0911 80.9116 72.2525 80.9116 71.4139C80.9116 70.5497 80.9116 69.6791 80.9116 68.8277C84.2083 68.3156 86.1288 66.3568 86.148 63.5594C86.1672 60.7236 84.2467 58.7327 80.9564 58.2142C80.9564 56.5179 80.9564 54.8151 80.9564 53.1123C85.0853 52.7218 88.9518 55.6857 91.1154 60.9156ZM65.1834 94.9134C66.9886 94.9134 68.685 94.9134 70.4262 94.9134C70.4262 94.5037 70.4262 94.158 70.4262 93.8123C70.4262 75.7412 70.4262 57.6637 70.4262 39.5926C70.4262 37.3777 70.2533 37.2049 68 37.1601C63.7879 37.0769 60.1135 40.5848 59.9599 44.8545C59.9279 45.8276 59.9535 46.807 59.9535 47.8248C58.8525 47.8248 57.8923 47.7928 56.932 47.8312C51.1068 48.0744 47.5732 54.5782 50.5179 59.5841C51.062 60.5059 51.6637 61.1461 52.848 60.9284C53.3281 60.8388 53.8402 60.8772 54.3267 60.922C54.8452 60.9668 55.0692 60.7812 55.2357 60.2691C56.0487 57.7597 57.6234 55.8329 59.8959 54.495C61.4898 53.554 63.2246 53.0547 65.1322 53.0739C65.1322 54.8471 65.1322 56.5499 65.1322 58.2462C61.9635 58.6623 59.9855 60.6468 59.9407 63.4122C59.8895 66.2864 61.7587 68.2452 65.1322 68.8405C65.1322 70.5369 65.1322 72.2397 65.1322 73.9424C60.9329 74.2881 57.2137 71.4395 54.9668 66.1519C54.0578 66.1519 53.1232 66.0943 52.2014 66.1776C51.8045 66.216 51.2988 66.4336 51.062 66.7345C47.7461 70.9338 49.7945 77.3544 55.0052 78.8523C56.3879 79.2492 57.9307 79.1084 59.4094 79.166C60.0879 79.1916 60.7665 79.1084 61.5218 79.0699C61.0609 80.4078 60.6256 81.6049 60.2352 82.8212C59.3646 85.5353 60.6448 88.2751 63.263 89.3314C63.6919 89.5042 64.1336 89.6642 64.5817 89.7859C65.049 89.9139 65.209 90.1635 65.1962 90.6629C65.1642 92.0648 65.1834 93.4603 65.1834 94.9134ZM80.8348 105.444C80.8348 103.722 80.8348 102 80.8348 100.278C75.6177 100.278 70.4262 100.278 65.2538 100.278C65.2538 102.032 65.2538 103.728 65.2538 105.444C70.471 105.444 75.6177 105.444 80.8348 105.444Z" fill="#03C4A1"/>
<path d="M65.1914 121.357C65.1914 119.648 65.1914 117.939 65.1914 116.172C70.4277 116.172 75.6129 116.172 80.9132 116.172C80.9132 117.894 80.9132 119.623 80.9132 121.357C75.6705 121.357 70.4277 121.357 65.1914 121.357Z" fill="#03C4A1" stroke="#03C4A1" stroke-miterlimit="10"/>
<path d="M28.332 60.9155C32.6594 60.9155 36.9803 60.9155 41.3716 60.9155C41.3716 62.6567 41.3716 64.3531 41.3716 66.1583C37.0251 66.1583 32.6786 66.1583 28.332 66.1583C28.332 64.4107 28.332 62.6631 28.332 60.9155Z" fill="#03C4A1" stroke="#03C4A1" stroke-miterlimit="10"/>
<path d="M117.764 66.1583C113.437 66.1583 109.116 66.1583 104.725 66.1583C104.725 64.4171 104.725 62.7207 104.725 60.9155C109.071 60.9155 113.418 60.9155 117.764 60.9155C117.764 62.6631 117.764 64.4107 117.764 66.1583Z" fill="#03C4A1" stroke="#03C4A1" stroke-miterlimit="10"/>
<path d="M29.9512 79.5371C33.4655 77.7767 36.9095 76.0548 40.4302 74.3008C41.2176 75.8755 41.9794 77.3927 42.7731 78.9866C39.2844 80.7342 35.866 82.4433 32.3005 84.2293C31.5259 82.6738 30.7577 81.1439 29.9512 79.5371Z" fill="#03C4A1" stroke="#03C4A1" stroke-miterlimit="10"/>
<path d="M116.146 79.5307C115.345 81.1375 114.597 82.6354 113.803 84.2165C110.314 82.4754 106.876 80.7534 103.33 78.9866C104.111 77.4247 104.866 75.9011 105.667 74.3008C109.155 76.042 112.593 77.7575 116.146 79.5307Z" fill="#03C4A1" stroke="#03C4A1" stroke-miterlimit="10"/>
<path d="M29.9648 47.5369C30.7522 45.9557 31.514 44.4386 32.3077 42.8511C35.8221 44.6051 39.2597 46.327 42.7804 48.0938C41.9866 49.6814 41.2249 51.1985 40.4375 52.7796C36.9232 51.0192 33.4792 49.2973 29.9648 47.5369Z" fill="#03C4A1" stroke="#03C4A1" stroke-miterlimit="10"/>
<path d="M113.803 42.8572C114.59 44.4383 115.352 45.9619 116.139 47.5302C115.781 47.7158 115.499 47.8631 115.217 48.0039C112.055 49.585 108.899 51.1662 105.673 52.7793C104.879 51.1918 104.124 49.6747 103.33 48.0935C106.844 46.3331 110.288 44.6112 113.803 42.8572Z" fill="#03C4A1" stroke="#03C4A1" stroke-miterlimit="10"/>
</svg>
