<svg width="545.0604796663191" height="719" viewBox="0 0 727 959" fill="none" xmlns="http://www.w3.org/2000/svg">
<g opacity="0.6">
<path d="M-44.8867 320.499C-44.8867 303.166 -44.8867 285.883 -44.8867 268.55C-44.8867 268.102 -44.8867 267.653 -44.8867 267.205C-44.7871 261.676 -40.5037 259.186 -35.7719 262.025C-26.8564 267.354 -17.9906 272.783 -9.07505 278.163C11.1468 290.415 31.3688 302.718 51.5408 314.971C58.1154 318.955 58.0656 325.082 51.491 329.066C23.4493 346.1 -4.64218 363.184 -32.6839 380.219C-35.3735 381.862 -38.1627 382.559 -41.0017 380.966C-43.8906 379.322 -44.8867 376.632 -44.8369 373.345C-44.8867 355.763 -44.8867 338.131 -44.8867 320.499Z" fill="#7AC8E7"></path>
<path d="M47.7552 108.12C47.7552 82.718 47.7552 57.3162 47.7552 31.9143C47.7552 31.2668 47.7552 30.5695 47.7552 29.922C47.8548 21.8033 54.1804 18.2172 61.1036 22.3512C74.1532 30.171 87.2028 38.0904 100.203 46.0098C129.838 63.9904 159.474 81.9709 189.109 100.001C198.722 105.879 198.672 114.794 189.01 120.671C147.869 145.675 106.727 170.678 65.5863 195.682C61.6515 198.073 57.5673 199.118 53.3835 196.777C49.1 194.387 47.7054 190.402 47.7552 185.621C47.805 159.77 47.7552 133.97 47.7552 108.12Z" fill="#01396D"></path>
<path d="M241.795 80.3278C241.795 62.9948 241.795 45.7115 241.795 28.3785C241.795 27.9302 241.795 27.4819 241.795 27.0337C241.895 21.505 246.178 19.0146 250.91 21.8537C259.825 27.1831 268.691 32.6121 277.607 37.9913C297.829 50.244 318.05 62.5465 338.222 74.7992C344.797 78.7838 344.747 84.9101 338.173 88.8947C310.131 105.929 282.04 123.013 253.998 140.047C251.308 141.691 248.519 142.388 245.68 140.794C242.791 139.151 241.795 136.461 241.845 133.174C241.795 115.542 241.795 97.9597 241.795 80.3278Z" fill="#7AC8E7"></path>
<path d="M-134.657 503.693C-134.657 478.291 -134.657 452.889 -134.657 427.487C-134.657 426.84 -134.657 426.142 -134.657 425.495C-134.557 417.376 -128.232 413.79 -121.308 417.924C-108.259 425.744 -95.2093 433.663 -82.2095 441.583C-52.574 459.563 -22.9384 477.544 6.69711 495.574C16.31 501.451 16.2602 510.367 6.59749 516.244C-34.5436 541.248 -75.6847 566.251 -116.826 591.255C-120.761 593.645 -124.845 594.691 -129.029 592.35C-133.312 589.96 -134.707 585.975 -134.657 581.193C-134.607 555.343 -134.657 529.493 -134.657 503.693Z" stroke="#7AC8E7" stroke-miterlimit="10"></path>
<path d="M-100.784 868.035C-100.784 842.633 -100.784 817.231 -100.784 791.829C-100.784 791.182 -100.784 790.484 -100.784 789.837C-100.684 781.718 -94.3587 778.132 -87.4354 782.266C-74.3858 790.086 -61.3362 798.005 -48.3365 805.925C-18.7009 823.905 10.9346 841.886 40.5702 859.916C50.183 865.794 50.1332 874.709 40.4705 880.586C-0.670556 905.59 -41.8117 930.593 -82.9527 955.597C-86.8875 957.987 -90.9718 959.033 -95.1556 956.692C-99.4391 954.302 -100.834 950.317 -100.784 945.536C-100.784 919.685 -100.784 893.835 -100.784 868.035Z" stroke="#7AC8E7" stroke-miterlimit="10"></path>
<path d="M-24.6797 653.364C-24.6797 636.031 -24.6797 618.748 -24.6797 601.415C-24.6797 600.967 -24.6797 600.519 -24.6797 600.07C-24.5801 594.542 -20.2966 592.051 -15.5649 594.89C-6.64931 600.22 2.21645 605.649 11.132 611.028C31.3539 623.281 51.5758 635.583 71.7479 647.836C78.3225 651.82 78.2727 657.947 71.6981 661.931C43.6564 678.966 15.5649 696.05 -12.4768 713.084C-15.1664 714.727 -17.9556 715.425 -20.7947 713.831C-23.6835 712.187 -24.6797 709.498 -24.6299 706.21C-24.6299 688.628 -24.6797 670.996 -24.6797 653.364Z" fill="#7AC8E7"></path>
<path d="M410.435 266.011C410.435 240.609 410.435 215.207 410.435 189.805C410.435 189.157 410.435 188.46 410.435 187.813C410.534 179.694 416.86 176.108 423.783 180.242C436.833 188.062 449.883 195.981 462.882 203.9C492.518 221.881 522.153 239.862 551.789 257.892C561.402 263.769 561.352 272.685 551.689 278.562C510.548 303.566 469.407 328.569 428.266 353.572C424.331 355.963 420.247 357.009 416.063 354.668C411.78 352.277 410.385 348.293 410.435 343.511C410.485 317.661 410.435 291.811 410.435 266.011Z" fill="#01396D"></path>
<path d="M494.519 88.4959C494.519 63.094 494.519 37.6921 494.519 12.2902C494.519 11.6427 494.519 10.9454 494.519 10.2979C494.618 2.1793 500.944 -1.40685 507.867 2.72718C520.917 10.547 533.966 18.4664 546.966 26.3858C576.602 44.3664 606.237 62.3469 635.873 80.3773C645.486 86.2546 645.436 95.1701 635.773 101.047C594.632 126.051 553.491 151.054 512.35 176.058C508.415 178.448 504.331 179.494 500.147 177.153C495.864 174.763 494.469 170.778 494.519 165.997C494.569 140.196 494.519 114.346 494.519 88.4959Z" stroke="#7AC8E7" stroke-miterlimit="10"></path>
<path d="M604.48 238.169C604.48 220.836 604.48 203.552 604.48 186.219C604.48 185.771 604.48 185.323 604.48 184.874C604.58 179.346 608.863 176.855 613.595 179.694C622.511 185.024 631.377 190.453 640.292 195.832C660.514 208.085 680.736 220.387 700.908 232.64C707.483 236.625 707.433 242.751 700.858 246.736C672.816 263.77 644.725 280.854 616.683 297.888C613.994 299.532 611.204 300.229 608.365 298.635C605.477 296.991 604.48 294.302 604.53 291.015C604.53 273.432 604.48 255.801 604.48 238.169Z" fill="#7AC8E7"></path>
<path d="M430.726 598.875C430.726 573.473 430.726 548.072 430.726 522.67C430.726 522.022 430.726 521.325 430.726 520.677C430.826 512.559 437.151 508.973 444.074 513.107C457.124 520.926 470.174 528.846 483.173 536.765C512.809 554.746 542.444 572.726 572.08 590.757C581.693 596.634 581.643 605.55 571.98 611.427C530.839 636.43 489.698 661.434 448.557 686.437C444.622 688.828 440.538 689.874 436.354 687.533C432.071 685.142 430.676 681.158 430.726 676.376C430.776 650.526 430.726 624.676 430.726 598.875Z" fill="#01396D"></path>
<path d="M514.786 421.359C514.786 395.957 514.786 370.555 514.786 345.154C514.786 344.506 514.786 343.809 514.786 343.161C514.886 335.043 521.212 331.456 528.135 335.59C541.185 343.41 554.234 351.33 567.234 359.249C596.869 377.23 626.505 395.21 656.14 413.241C665.753 419.118 665.704 428.033 656.041 433.911C614.9 458.914 573.759 483.918 532.618 508.921C528.683 511.312 524.599 512.358 520.415 510.017C516.131 507.626 514.737 503.641 514.786 498.86C514.836 473.06 514.786 447.209 514.786 421.359Z" stroke="#7AC8E7" stroke-miterlimit="10"></path>
<path d="M514.786 774.646C514.786 749.244 514.786 723.843 514.786 698.441C514.786 697.793 514.786 697.096 514.786 696.448C514.886 688.33 521.212 684.744 528.135 688.878C541.185 696.697 554.234 704.617 567.234 712.536C596.869 730.517 626.505 748.497 656.14 766.528C665.753 772.405 665.704 781.32 656.041 787.198C614.9 812.201 573.759 837.205 532.618 862.208C528.683 864.599 524.599 865.645 520.415 863.304C516.131 860.913 514.737 856.928 514.786 852.147C514.836 826.347 514.786 800.496 514.786 774.646Z" stroke="#7AC8E7" stroke-miterlimit="10"></path>
<path d="M624.762 571.033C624.762 553.7 624.762 536.417 624.762 519.084C624.762 518.635 624.762 518.187 624.762 517.739C624.861 512.21 629.145 509.72 633.877 512.559C642.792 517.888 651.658 523.317 660.573 528.696C680.795 540.949 701.017 553.252 721.189 565.504C727.764 569.489 727.714 575.615 721.14 579.6C693.098 596.634 665.006 613.718 636.965 630.752C634.275 632.396 631.486 633.093 628.647 631.499C625.758 629.856 624.762 627.166 624.811 623.879C624.811 606.297 624.762 588.665 624.762 571.033Z" fill="#7AC8E7"></path>
<path d="M115.087 459.813C115.087 434.411 115.087 409.009 115.087 383.607C115.087 382.96 115.087 382.262 115.087 381.615C115.187 373.496 121.512 369.91 128.436 374.044C141.485 381.864 154.535 389.783 167.535 397.703C197.17 415.683 226.806 433.664 256.441 451.694C266.054 457.571 266.004 466.487 256.342 472.364C215.201 497.368 174.059 522.371 132.918 547.375C128.984 549.765 124.899 550.811 120.716 548.47C116.432 546.08 115.037 542.095 115.087 537.313C115.137 511.463 115.087 485.663 115.087 459.813Z" fill="#01396D"></path>
<path d="M199.158 282.298C199.158 256.896 199.158 231.494 199.158 206.092C199.158 205.444 199.158 204.747 199.158 204.1C199.257 195.981 205.583 192.395 212.506 196.529C225.556 204.349 238.605 212.268 251.605 220.188C281.24 238.168 310.876 256.149 340.512 274.179C350.124 280.056 350.075 288.972 340.412 294.849C299.271 319.853 258.13 344.856 216.989 369.86C213.054 372.25 208.97 373.296 204.786 370.955C200.502 368.564 199.108 364.58 199.158 359.798C199.207 333.998 199.158 308.148 199.158 282.298Z" stroke="#7AC8E7" stroke-miterlimit="10"></path>
<path d="M309.131 431.97C309.131 414.637 309.131 397.354 309.131 380.021C309.131 379.572 309.131 379.124 309.131 378.676C309.23 373.147 313.514 370.657 318.246 373.496C327.161 378.825 336.027 384.254 344.943 389.633C365.164 401.886 385.386 414.189 405.558 426.441C412.133 430.426 412.083 436.552 405.509 440.537C377.467 457.571 349.375 474.655 321.334 491.689C318.644 493.333 315.855 494.03 313.016 492.436C310.127 490.793 309.131 488.103 309.181 484.816C309.181 467.234 309.131 449.602 309.131 431.97Z" fill="#7AC8E7"></path>
<path d="M138.638 814.193C138.638 788.791 138.638 763.389 138.638 737.987C138.638 737.34 138.638 736.642 138.638 735.995C138.738 727.876 145.063 724.29 151.986 728.424C165.036 736.244 178.086 744.163 191.085 752.083C220.721 770.063 250.356 788.044 279.992 806.074C289.605 811.951 289.555 820.867 279.892 826.744C238.751 851.748 197.61 876.751 156.469 901.755C152.534 904.145 148.45 905.191 144.266 902.85C139.983 900.46 138.588 896.475 138.638 891.693C138.688 865.893 138.638 840.043 138.638 814.193Z" fill="#01396D"></path>
<path d="M222.714 636.728C222.714 611.326 222.714 585.925 222.714 560.523C222.714 559.875 222.714 559.178 222.714 558.53C222.814 550.412 229.139 546.826 236.063 550.96C249.112 558.779 262.162 566.699 275.162 574.618C304.797 592.599 334.433 610.579 364.068 628.61C373.681 634.487 373.631 643.403 363.969 649.28C322.827 674.283 281.686 699.287 240.545 724.29C236.611 726.681 232.526 727.727 228.342 725.386C224.059 722.995 222.664 719.011 222.714 714.229C222.764 688.379 222.714 662.529 222.714 636.728Z" stroke="#7AC8E7" stroke-miterlimit="10"></path>
<path d="M332.699 786.401C332.699 769.067 332.699 751.784 332.699 734.451C332.699 734.003 332.699 733.555 332.699 733.106C332.799 727.578 337.082 725.087 341.814 727.926C350.73 733.256 359.595 738.685 368.511 744.064C388.733 756.317 408.955 768.619 429.127 780.872C435.701 784.857 435.652 790.983 429.077 794.967C401.035 812.002 372.944 829.086 344.902 846.12C342.212 847.764 339.423 848.461 336.584 846.867C333.695 845.223 332.699 842.534 332.749 839.246C332.749 821.615 332.699 804.032 332.699 786.401Z" fill="#7AC8E7"></path>
</g>
</svg>