<svg width="357" height="268" viewBox="0 0 357 268" fill="none" xmlns="http://www.w3.org/2000/svg">
<g opacity="0.3">
<path d="M179.238 194.646C179.238 208.343 179.238 222.04 179.238 235.737C179.238 236.086 179.238 236.462 179.238 236.811C179.297 241.189 183.087 243.122 187.235 240.893C195.053 236.677 202.871 232.407 210.66 228.137C228.415 218.441 246.17 208.746 263.925 199.024C269.685 195.855 269.655 191.048 263.866 187.879C239.217 174.397 214.569 160.915 189.921 147.433C187.563 146.143 185.116 145.579 182.61 146.842C180.043 148.131 179.208 150.279 179.238 152.858C179.267 166.796 179.238 180.735 179.238 194.646Z" fill="#01396D"/>
<path d="M229.608 290.364C229.608 304.061 229.608 317.757 229.608 331.454C229.608 331.803 229.608 332.179 229.608 332.528C229.668 336.906 233.458 338.84 237.606 336.611C245.424 332.394 253.242 328.124 261.03 323.854C278.786 314.159 296.541 304.463 314.296 294.741C320.055 291.572 320.025 286.765 314.236 283.596C289.588 270.114 264.94 256.632 240.291 243.15C237.934 241.861 235.487 241.297 232.98 242.559C230.414 243.848 229.578 245.997 229.608 248.575C229.638 262.487 229.608 276.425 229.608 290.364Z" stroke="#7AC8E7" stroke-miterlimit="10"/>
<path d="M229.608 99.87C229.608 113.567 229.608 127.264 229.608 140.961C229.608 141.31 229.608 141.686 229.608 142.035C229.668 146.412 233.458 148.346 237.606 146.117C245.424 141.901 253.242 137.63 261.03 133.36C278.786 123.665 296.541 113.97 314.296 104.248C320.055 101.079 320.025 96.2713 314.236 93.1022C289.588 79.6202 264.94 66.1382 240.291 52.6562C237.934 51.3671 235.487 50.8031 232.98 52.0653C230.414 53.3545 229.578 55.503 229.608 58.0812C229.638 71.9929 229.608 85.9314 229.608 99.87Z" stroke="#7AC8E7" stroke-miterlimit="10"/>
<path d="M295.497 209.659C295.497 219.005 295.497 228.325 295.497 237.671C295.497 237.912 295.497 238.154 295.497 238.396C295.556 241.377 298.123 242.72 300.957 241.189C306.299 238.315 311.611 235.388 316.952 232.487C329.067 225.881 341.183 219.247 353.268 212.64C357.207 210.492 357.177 207.189 353.238 205.04C336.438 195.855 319.608 186.643 302.808 177.458C301.196 176.572 299.525 176.196 297.824 177.055C296.093 177.942 295.497 179.392 295.526 181.164C295.526 190.645 295.497 200.152 295.497 209.659Z" fill="#7AC8E7"/>
<path d="M-9.8625 269.63C-9.86251 283.327 -9.86251 297.024 -9.86251 310.721C-9.86251 311.07 -9.86251 311.446 -9.86251 311.795C-9.80283 316.173 -6.01307 318.106 -1.86522 315.877C5.95303 311.661 13.7713 307.391 21.5597 303.12C39.3149 293.425 57.0701 283.73 74.8252 274.008C80.5845 270.839 80.5546 266.032 74.7656 262.862C50.1172 249.38 25.4688 235.898 0.820461 222.416C-1.53695 221.127 -3.98387 220.563 -6.49049 221.826C-9.05678 223.115 -9.89233 225.263 -9.86249 227.841C-9.83266 241.78 -9.8625 255.692 -9.8625 269.63Z" fill="#01396D"/>
<path d="M106.396 284.644C106.396 293.99 106.396 303.309 106.396 312.655C106.396 312.897 106.396 313.139 106.396 313.38C106.455 316.361 109.021 317.704 111.856 316.173C117.198 313.3 122.509 310.372 127.851 307.472C139.966 300.865 152.082 294.231 164.167 287.625C168.106 285.476 168.076 282.173 164.137 280.024C147.337 270.839 130.507 261.628 113.706 252.443C112.095 251.556 110.424 251.18 108.723 252.04C106.992 252.926 106.396 254.376 106.425 256.149C106.425 265.629 106.396 275.136 106.396 284.644Z" fill="#7AC8E7"/>
<path d="M4.25175 78.5458C4.25175 92.2426 4.25175 105.939 4.25175 119.636C4.25175 119.985 4.25175 120.361 4.25175 120.711C4.31143 125.088 8.10119 127.022 12.249 124.793C20.0673 120.576 27.8855 116.306 35.6739 112.036C53.4291 102.341 71.1843 92.6455 88.9395 82.9234C94.6987 79.7543 94.6689 74.947 88.8798 71.7779C64.2314 58.2959 39.5831 44.8139 14.9347 31.3319C12.5773 30.0428 10.1304 29.4788 7.62375 30.7411C5.05745 32.0302 4.22192 34.1787 4.25176 36.7569C4.2816 50.6686 4.25176 64.6072 4.25175 78.5458Z" fill="#01396D"/>
<path d="M54.6224 174.236C54.6224 187.933 54.6224 201.629 54.6224 215.326C54.6224 215.675 54.6224 216.051 54.6224 216.401C54.682 220.778 58.4718 222.712 62.6196 220.483C70.4379 216.266 78.2562 211.996 86.0446 207.726C103.8 198.031 121.555 188.335 139.31 178.613C145.069 175.444 145.039 170.637 139.25 167.468C114.602 153.986 89.9537 140.504 65.3053 127.022C62.9479 125.733 60.501 125.169 57.9944 126.431C55.4281 127.72 54.5925 129.869 54.6224 132.447C54.6522 146.385 54.6224 160.324 54.6224 174.236Z" stroke="#7AC8E7" stroke-miterlimit="10"/>
<path d="M120.511 93.5319C120.511 102.878 120.511 112.197 120.511 121.543C120.511 121.785 120.511 122.027 120.511 122.268C120.57 125.25 123.137 126.592 125.972 125.061C131.313 122.188 136.625 119.261 141.966 116.36C154.081 109.753 166.197 103.12 178.282 96.513C182.221 94.3644 182.191 91.0611 178.252 88.9126C161.452 79.7276 144.622 70.5158 127.822 61.3309C126.21 60.4446 124.539 60.0686 122.838 60.928C121.108 61.8143 120.511 63.2645 120.541 65.0371C120.541 74.5443 120.511 84.0247 120.511 93.5319Z" fill="#7AC8E7"/>
</g>
</svg>
