<svg width="402" height="434" viewBox="0 0 402 434" fill="none" xmlns="http://www.w3.org/2000/svg">
<path d="M435.989 276.23C435.989 287.696 435.989 299.163 435.989 310.63C435.989 310.922 435.989 311.237 435.989 311.529C435.944 315.194 433.089 316.813 429.964 314.946C424.073 311.417 418.182 307.842 412.314 304.267C398.936 296.15 385.559 288.034 372.181 279.895C367.842 277.242 367.864 273.217 372.226 270.564C390.797 259.277 409.369 247.99 427.94 236.704C429.716 235.625 431.56 235.152 433.449 236.209C435.382 237.288 436.012 239.065 436.012 241.245C435.967 252.892 435.989 264.561 435.989 276.23Z" fill="#01396D"/>
<path d="M398.038 356.339C398.038 367.805 398.038 379.272 398.038 390.738C398.038 391.031 398.038 391.346 398.038 391.638C397.993 395.303 395.138 396.921 392.012 395.055C386.122 391.525 380.231 387.951 374.363 384.376C360.985 376.259 347.607 368.143 334.23 360.003C329.89 357.35 329.913 353.326 334.275 350.673C352.846 339.386 371.418 328.099 389.989 316.813C391.765 315.733 393.609 315.261 395.497 316.318C397.431 317.397 398.06 319.196 398.038 321.354C398.038 333.023 398.038 344.692 398.038 356.339Z" stroke="#7AC8E7" stroke-miterlimit="10"/>
<path d="M348.387 288.776C348.387 296.6 348.387 304.402 348.387 312.226C348.387 312.428 348.387 312.631 348.387 312.833C348.342 315.329 346.408 316.453 344.272 315.171C340.248 312.766 336.246 310.315 332.221 307.887C323.093 302.356 313.965 296.802 304.859 291.271C301.891 289.473 301.914 286.707 304.881 284.909C317.54 277.219 330.22 269.507 342.879 261.818C344.093 261.076 345.352 260.761 346.633 261.481C347.937 262.223 348.387 263.437 348.364 264.921C348.387 272.857 348.387 280.817 348.387 288.776Z" fill="#7AC8E7"/>
<path d="M306.569 384.645C306.569 396.112 306.569 407.579 306.569 419.045C306.569 419.337 306.569 419.652 306.569 419.944C306.524 423.609 303.668 425.228 300.543 423.362C294.652 419.832 288.762 416.257 282.894 412.682C269.516 404.566 256.138 396.449 242.761 388.31C238.421 385.657 238.444 381.633 242.805 378.979C261.377 367.693 279.948 356.406 298.52 345.119C300.296 344.04 302.139 343.568 304.028 344.625C305.962 345.704 306.591 347.503 306.569 349.661C306.546 361.33 306.569 372.976 306.569 384.645Z" fill="#01396D"/>
<path d="M218.977 397.191C218.977 405.015 218.977 412.817 218.977 420.641C218.977 420.843 218.977 421.046 218.977 421.248C218.932 423.744 216.999 424.868 214.863 423.586C210.838 421.181 206.836 418.73 202.812 416.302C193.683 410.771 184.555 405.217 175.449 399.686C172.481 397.888 172.504 395.122 175.472 393.324C188.13 385.634 200.811 377.922 213.469 370.233C214.683 369.491 215.942 369.176 217.224 369.896C218.528 370.638 218.977 371.852 218.955 373.336C218.977 381.295 218.977 389.232 218.977 397.191Z" fill="#7AC8E7"/>
<path d="M426.837 125.972C426.837 137.439 426.837 148.905 426.837 160.372C426.837 160.664 426.837 160.979 426.837 161.271C426.792 164.936 423.936 166.555 420.811 164.689C414.92 161.159 409.03 157.584 403.161 154.009C389.784 145.893 376.406 137.776 363.028 129.637C358.689 126.984 358.712 122.959 363.073 120.306C381.645 109.02 400.216 97.7329 418.787 86.4462C420.564 85.367 422.407 84.8948 424.296 85.9516C426.23 87.0308 426.859 88.8295 426.837 90.9879C426.837 102.634 426.837 114.303 426.837 125.972Z" fill="#01396D"/>
<path d="M388.911 206.081C388.911 217.547 388.911 229.014 388.911 240.481C388.911 240.773 388.911 241.088 388.911 241.38C388.866 245.045 386.01 246.664 382.885 244.797C376.994 241.268 371.104 237.693 365.235 234.118C351.858 226.001 338.48 217.885 325.102 209.746C320.763 207.093 320.785 203.068 325.147 200.415C343.719 189.128 362.29 177.842 380.861 166.555C382.638 165.476 384.481 165.003 386.37 166.06C388.303 167.139 388.933 168.938 388.911 171.096C388.888 182.765 388.911 194.434 388.911 206.081Z" stroke="#7AC8E7" stroke-miterlimit="10"/>
<path d="M373.619 41.6143C373.619 53.0809 373.619 64.5475 373.619 76.0141C373.619 76.3064 373.619 76.6212 373.619 76.9135C373.574 80.5783 370.719 82.1971 367.593 80.3309C361.703 76.801 355.812 73.2261 349.944 69.6513C336.566 61.5347 323.189 53.4182 309.811 45.2791C305.471 42.6261 305.494 38.6015 309.856 35.9485C328.427 24.6618 346.999 13.375 365.57 2.08832C367.346 1.00911 369.19 0.536951 371.078 1.59368C373.012 2.67289 373.642 4.47154 373.619 6.62996C373.619 18.2989 373.619 29.9678 373.619 41.6143Z" stroke="#7AC8E7" stroke-miterlimit="10"/>
<path d="M339.266 138.518C339.266 146.342 339.266 154.144 339.266 161.968C339.266 162.171 339.266 162.373 339.266 162.575C339.221 165.071 337.288 166.195 335.152 164.914C331.127 162.508 327.125 160.057 323.101 157.629C313.972 152.098 304.844 146.545 295.738 141.014C292.77 139.215 292.793 136.449 295.761 134.651C308.419 126.961 321.1 119.25 333.758 111.56C334.972 110.818 336.231 110.503 337.513 111.223C338.817 111.965 339.266 113.179 339.244 114.663C339.244 122.6 339.266 130.559 339.266 138.518Z" fill="#7AC8E7"/>
<path d="M142.851 313.372C142.851 324.839 142.851 336.306 142.851 347.772C142.851 348.064 142.851 348.379 142.851 348.671C142.807 352.336 139.951 353.955 136.826 352.089C130.935 348.559 125.045 344.984 119.176 341.409C105.799 333.293 92.4209 325.176 79.0432 317.037C74.7039 314.384 74.7264 310.36 79.0882 307.707C97.6596 296.42 116.231 285.133 134.802 273.846C136.579 272.767 138.422 272.295 140.311 273.352C142.244 274.431 142.874 276.23 142.851 278.388C142.829 290.057 142.851 301.726 142.851 313.372Z" fill="#01396D"/>
<path d="M104.897 393.504C104.897 404.97 104.897 416.437 104.897 427.904C104.897 428.196 104.897 428.511 104.897 428.803C104.852 432.468 101.997 434.086 98.8713 432.22C92.9806 428.69 87.0899 425.116 81.2217 421.541C67.844 413.424 54.4664 405.308 41.0887 397.169C36.7494 394.515 36.7718 390.491 41.1336 387.838C59.705 376.551 78.2764 365.264 96.8478 353.978C98.624 352.898 100.468 352.426 102.356 353.483C104.29 354.562 104.919 356.361 104.897 358.519C104.874 370.166 104.897 381.835 104.897 393.504Z" stroke="#7AC8E7" stroke-miterlimit="10"/>
<path d="M55.2585 325.941C55.2585 333.765 55.2585 341.567 55.2585 349.391C55.2585 349.593 55.2585 349.796 55.2585 349.998C55.2136 352.494 53.28 353.618 51.1441 352.336C47.1195 349.93 43.1175 347.48 39.0929 345.051C29.9646 339.521 20.8363 333.967 11.7304 328.436C8.76262 326.637 8.78512 323.872 11.7529 322.073C24.4112 314.384 37.0919 306.672 49.7501 298.983C50.9642 298.241 52.2233 297.926 53.5048 298.646C54.8089 299.387 55.2586 300.602 55.2361 302.085C55.2361 310.022 55.2585 317.981 55.2585 325.941Z" fill="#7AC8E7"/>
<path d="M133.694 163.115C133.694 174.581 133.694 186.048 133.694 197.515C133.694 197.807 133.694 198.122 133.694 198.414C133.649 202.079 130.794 203.698 127.668 201.831C121.778 198.302 115.887 194.727 110.019 191.152C96.6412 183.035 83.2635 174.919 69.8858 166.78C65.5465 164.127 65.5689 160.102 69.9307 157.449C88.5021 146.162 107.074 134.875 125.645 123.589C127.421 122.51 129.265 122.037 131.153 123.094C133.087 124.173 133.716 125.972 133.694 128.13C133.672 139.799 133.694 151.468 133.694 163.115Z" fill="#01396D"/>
<path d="M95.7465 243.247C95.7465 254.713 95.7465 266.18 95.7465 277.647C95.7465 277.939 95.7465 278.254 95.7465 278.546C95.7015 282.211 92.8461 283.83 89.7209 281.964C83.8302 278.434 77.9395 274.859 72.0713 271.284C58.6937 263.167 45.3159 255.051 31.9383 246.912C27.5989 244.259 27.6214 240.234 31.9832 237.581C50.5546 226.294 69.126 215.008 87.6974 203.721C89.4736 202.642 91.3172 202.169 93.2058 203.226C95.1394 204.305 95.769 206.104 95.7465 208.263C95.724 219.909 95.7465 231.578 95.7465 243.247Z" stroke="#7AC8E7" stroke-miterlimit="10"/>
<path d="M95.7465 83.7706C95.7465 95.2372 95.7465 106.704 95.7465 118.17C95.7465 118.463 95.7465 118.777 95.7465 119.07C95.7015 122.735 92.8461 124.353 89.7209 122.487C83.8302 118.957 77.9395 115.382 72.0713 111.808C58.6937 103.691 45.3159 95.5744 31.9383 87.4354C27.5989 84.7823 27.6214 80.7578 31.9832 78.1047C50.5546 66.818 69.126 55.5313 87.6974 44.2446C89.4736 43.1654 91.3172 42.6932 93.2058 43.7499C95.1394 44.8291 95.769 46.6278 95.7465 48.7862C95.724 60.4327 95.7465 72.1016 95.7465 83.7706Z" stroke="#7AC8E7" stroke-miterlimit="10"/>
<path d="M46.104 175.683C46.104 183.507 46.104 191.309 46.104 199.133C46.104 199.336 46.104 199.538 46.104 199.741C46.059 202.236 44.1254 203.36 41.9895 202.079C37.965 199.673 33.9629 197.222 29.9383 194.794C20.81 189.263 11.6817 183.71 2.5759 178.179C-0.391924 176.38 -0.369456 173.615 2.59837 171.816C15.2566 164.127 27.9373 156.415 40.5955 148.725C41.8097 147.983 43.0687 147.669 44.3503 148.388C45.6543 149.13 46.104 150.344 46.0815 151.828C46.0815 159.765 46.104 167.724 46.104 175.683Z" fill="#7AC8E7"/>
<path d="M276.174 225.888C276.174 237.355 276.174 248.822 276.174 260.288C276.174 260.581 276.174 260.895 276.174 261.188C276.129 264.852 273.274 266.471 270.148 264.605C264.258 261.075 258.367 257.5 252.499 253.925C239.121 245.809 225.743 237.692 212.366 229.553C208.026 226.9 208.049 222.876 212.411 220.223C230.982 208.936 249.553 197.649 268.125 186.362C269.901 185.283 271.745 184.811 273.633 185.868C275.567 186.947 276.196 188.746 276.174 190.904C276.151 202.573 276.174 214.22 276.174 225.888Z" fill="#01396D"/>
<path d="M238.225 306.02C238.225 317.487 238.225 328.953 238.225 340.42C238.225 340.712 238.225 341.027 238.225 341.319C238.18 344.984 235.325 346.603 232.199 344.737C226.309 341.207 220.418 337.632 214.55 334.057C201.172 325.94 187.794 317.824 174.417 309.685C170.077 307.032 170.1 303.007 174.462 300.354C193.033 289.067 211.605 277.781 230.176 266.494C231.952 265.415 233.796 264.943 235.684 265.999C237.618 267.079 238.247 268.877 238.225 271.036C238.203 282.682 238.225 294.351 238.225 306.02Z" stroke="#7AC8E7" stroke-miterlimit="10"/>
<path d="M188.581 238.457C188.581 246.281 188.581 254.083 188.581 261.907C188.581 262.11 188.581 262.312 188.581 262.514C188.536 265.01 186.603 266.134 184.467 264.853C180.442 262.447 176.44 259.996 172.415 257.568C163.287 252.037 154.159 246.484 145.053 240.953C142.085 239.154 142.108 236.389 145.075 234.59C157.734 226.901 170.414 219.189 183.073 211.499C184.287 210.757 185.546 210.443 186.827 211.162C188.131 211.904 188.581 213.118 188.559 214.602C188.559 222.539 188.581 230.498 188.581 238.457Z" fill="#7AC8E7"/>
<path d="M265.544 65.9188C265.544 77.3853 265.544 88.8519 265.544 100.319C265.544 100.611 265.544 100.926 265.544 101.218C265.499 104.883 262.643 106.502 259.518 104.635C253.628 101.105 247.737 97.5306 241.869 93.9557C228.491 85.8392 215.113 77.7226 201.736 69.5836C197.396 66.9305 197.419 62.906 201.781 60.2529C220.352 48.9662 238.923 37.6794 257.495 26.3927C259.271 25.3135 261.115 24.8414 263.003 25.8981C264.937 26.9773 265.566 28.7759 265.544 30.9344C265.521 42.5808 265.544 54.2498 265.544 65.9188Z" fill="#01396D"/>
<path d="M227.591 146.028C227.591 157.494 227.591 168.961 227.591 180.427C227.591 180.72 227.591 181.034 227.591 181.327C227.546 184.992 224.69 186.61 221.565 184.744C215.674 181.214 209.784 177.639 203.916 174.065C190.538 165.948 177.16 157.832 163.782 149.692C159.443 147.039 159.466 143.015 163.827 140.362C182.399 129.075 200.97 117.788 219.542 106.502C221.318 105.422 223.161 104.95 225.05 106.007C226.984 107.086 227.613 108.885 227.591 111.043C227.568 122.712 227.591 134.381 227.591 146.028Z" stroke="#7AC8E7" stroke-miterlimit="10"/>
<path d="M177.942 78.4645C177.942 86.2887 177.942 94.0905 177.942 101.915C177.942 102.117 177.942 102.319 177.942 102.522C177.897 105.017 175.964 106.142 173.828 104.86C169.803 102.454 165.801 100.004 161.777 97.5754C152.648 92.0445 143.52 86.491 134.414 80.9601C131.446 79.1614 131.469 76.396 134.437 74.5973C147.095 66.9079 159.776 59.1961 172.434 51.5067C173.648 50.7647 174.907 50.45 176.189 51.1694C177.493 51.9114 177.942 53.1255 177.92 54.6094C177.92 62.5686 177.942 70.5053 177.942 78.4645Z" fill="#7AC8E7"/>
</svg>
