<svg width="390" height="300" viewBox="0 0 390 300" fill="none" xmlns="http://www.w3.org/2000/svg">
<g opacity="0.3">
<path d="M449.804 165.265C449.804 174.611 449.804 183.931 449.804 193.277C449.804 193.518 449.804 193.76 449.804 194.002C449.744 196.983 447.178 198.326 444.343 196.795C439.001 193.921 433.69 190.994 428.348 188.093C416.233 181.487 404.118 174.853 392.032 168.246C388.093 166.098 388.123 162.794 392.062 160.646C408.862 151.461 425.692 142.249 442.493 133.064C444.104 132.178 445.775 131.802 447.476 132.661C449.207 133.548 449.804 134.998 449.774 136.77C449.774 146.251 449.804 155.758 449.804 165.265Z" fill="#7AC8E7"/>
<path d="M176.97 194.646C176.97 208.343 176.97 222.04 176.97 235.737C176.97 236.086 176.97 236.462 176.97 236.811C176.91 241.189 173.121 243.122 168.973 240.893C161.154 236.677 153.336 232.407 145.548 228.137C127.793 218.441 110.037 208.746 92.2822 199.024C86.523 195.855 86.5528 191.048 92.3419 187.879C116.99 174.397 141.639 160.915 166.287 147.433C168.644 146.143 171.091 145.579 173.598 146.842C176.164 148.131 177 150.279 176.97 152.858C176.94 166.796 176.97 180.735 176.97 194.646Z" fill="#01396D"/>
<path d="M126.599 290.364C126.599 304.061 126.599 317.757 126.599 331.454C126.599 331.803 126.599 332.179 126.599 332.528C126.54 336.906 122.75 338.84 118.602 336.611C110.784 332.394 102.966 328.124 95.1771 323.854C77.422 314.159 59.6668 304.463 41.9116 294.741C36.1523 291.572 36.1822 286.765 41.9713 283.596C66.6196 270.114 91.268 256.632 115.916 243.15C118.274 241.861 120.721 241.297 123.227 242.559C125.794 243.848 126.629 245.997 126.599 248.575C126.569 262.487 126.599 276.425 126.599 290.364Z" stroke="#7AC8E7" stroke-miterlimit="10"/>
<path d="M126.599 99.87C126.599 113.567 126.599 127.264 126.599 140.961C126.599 141.31 126.599 141.686 126.599 142.035C126.54 146.412 122.75 148.346 118.602 146.117C110.784 141.901 102.966 137.63 95.1771 133.36C77.422 123.665 59.6668 113.97 41.9116 104.248C36.1523 101.079 36.1822 96.2713 41.9713 93.1022C66.6196 79.6202 91.268 66.1382 115.916 52.6562C118.274 51.3671 120.721 50.8031 123.227 52.0653C125.794 53.3545 126.629 55.503 126.599 58.0812C126.569 71.9929 126.599 85.9314 126.599 99.87Z" stroke="#7AC8E7" stroke-miterlimit="10"/>
<path d="M60.7109 209.659C60.7109 219.005 60.7109 228.325 60.7109 237.671C60.7109 237.912 60.7109 238.154 60.7109 238.396C60.6513 241.377 58.085 242.72 55.2501 241.189C49.9086 238.315 44.597 235.388 39.2555 232.487C27.1402 225.881 15.0249 219.247 2.93945 212.64C-0.999518 210.492 -0.969692 207.189 2.96927 205.04C19.7696 195.855 36.5997 186.643 53.4 177.458C55.0114 176.572 56.6824 176.196 58.3834 177.055C60.1141 177.942 60.7109 179.392 60.6811 181.164C60.6811 190.645 60.7109 200.152 60.7109 209.659Z" fill="#7AC8E7"/>
<path d="M366.07 269.63C366.07 283.327 366.07 297.024 366.07 310.721C366.07 311.07 366.07 311.446 366.07 311.795C366.01 316.173 362.221 318.106 358.073 315.877C350.254 311.661 342.436 307.391 334.648 303.12C316.893 293.425 299.137 283.73 281.382 274.008C275.623 270.839 275.653 266.032 281.442 262.862C306.09 249.38 330.739 235.898 355.387 222.416C357.744 221.127 360.191 220.563 362.698 221.826C365.264 223.115 366.1 225.263 366.07 227.841C366.04 241.78 366.07 255.692 366.07 269.63Z" fill="#01396D"/>
<path d="M249.812 284.644C249.812 293.99 249.812 303.309 249.812 312.655C249.812 312.897 249.812 313.139 249.812 313.38C249.752 316.361 247.186 317.704 244.351 316.173C239.01 313.3 233.698 310.372 228.357 307.472C216.241 300.865 204.126 294.231 192.041 287.625C188.102 285.476 188.131 282.173 192.07 280.024C208.871 270.839 225.701 261.628 242.501 252.443C244.112 251.556 245.784 251.18 247.484 252.04C249.215 252.926 249.812 254.376 249.782 256.149C249.782 265.629 249.812 275.136 249.812 284.644Z" fill="#7AC8E7"/>
<path d="M351.956 78.5458C351.956 92.2426 351.956 105.939 351.956 119.636C351.956 119.985 351.956 120.361 351.956 120.711C351.896 125.088 348.106 127.022 343.958 124.793C336.14 120.576 328.322 116.306 320.534 112.036C302.778 102.341 285.023 92.6455 267.268 82.9234C261.509 79.7543 261.539 74.947 267.328 71.7779C291.976 58.2959 316.624 44.8139 341.273 31.3319C343.63 30.0428 346.077 29.4788 348.584 30.7411C351.15 32.0302 351.986 34.1787 351.956 36.7569C351.926 50.6686 351.956 64.6072 351.956 78.5458Z" fill="#01396D"/>
<path d="M301.585 174.236C301.585 187.933 301.585 201.629 301.585 215.326C301.585 215.675 301.585 216.051 301.585 216.401C301.525 220.778 297.736 222.712 293.588 220.483C285.77 216.266 277.951 211.996 270.163 207.726C252.408 198.031 234.653 188.335 216.897 178.613C211.138 175.444 211.168 170.637 216.957 167.468C241.605 153.986 266.254 140.504 290.902 127.022C293.26 125.733 295.707 125.169 298.213 126.431C300.779 127.72 301.615 129.869 301.585 132.447C301.555 146.385 301.585 160.324 301.585 174.236Z" stroke="#7AC8E7" stroke-miterlimit="10"/>
<path d="M235.697 93.5319C235.697 102.878 235.697 112.197 235.697 121.543C235.697 121.785 235.697 122.027 235.697 122.268C235.637 125.25 233.071 126.592 230.236 125.061C224.894 122.188 219.583 119.261 214.241 116.36C202.126 109.753 190.011 103.12 177.925 96.513C173.986 94.3644 174.016 91.0611 177.955 88.9126C194.755 79.7276 211.586 70.5158 228.386 61.3309C229.997 60.4446 231.668 60.0686 233.369 60.928C235.1 61.8143 235.697 63.2645 235.667 65.0371C235.667 74.5443 235.697 84.0247 235.697 93.5319Z" fill="#7AC8E7"/>
</g>
</svg>
